400-italic.ufo
<glyph name="exclam" format="2">
  <advance width="291"/>
  <unicode hex="0021"/>
  <outline>
    <contour>
      <point x="188" y="700" type="line"/>
      <point x="288" y="700" type="line"/>
      <point x="184" y="200" type="line"/>
      <point x="124" y="200" type="line"/>
    </contour>
    <contour>
      <point x="70" y="40" type="curve" smooth="yes"/>
      <point x="70" y="70"/>
      <point x="96" y="95"/>
      <point x="126" y="95" type="curve" smooth="yes"/>
      <point x="156" y="95"/>
      <point x="180" y="70"/>
      <point x="180" y="40" type="curve" smooth="yes"/>
      <point x="180" y="10"/>
      <point x="156" y="-15"/>
      <point x="126" y="-15" type="curve" smooth="yes"/>
      <point x="96" y="-15"/>
      <point x="70" y="10"/>
    </contour>
  </outline>
</glyph>
<glyph name="quotedbl" format="2">
  <advance width="451"/>
  <unicode hex="0022"/>
  <outline>
    <contour>
      <point x="216" y="700" type="line"/>
      <point x="312" y="700" type="line"/>
      <point x="176" y="401" type="line"/>
      <point x="122" y="400" type="line"/>
    </contour>
    <contour>
      <point x="390" y="700" type="line"/>
      <point x="486" y="700" type="line"/>
      <point x="351" y="401" type="line"/>
      <point x="296" y="400" type="line"/>
    </contour>
  </outline>
</glyph>
<glyph name="numbersign" format="2">
  <advance width="587"/>
  <unicode hex="0023"/>
  <outline>
    <contour>
      <point x="120" y="440" type="line"/>
      <point x="131" y="504" type="line"/>
      <point x="612" y="504" type="line"/>
      <point x="602" y="440" type="line"/>
      <point x="468" y="440" type="line"/>
      <point x="454" y="440" type="line"/>
      <point x="268" y="440" type="line"/>
      <point x="254" y="440" type="line"/>
    </contour>
    <contour>
      <point x="41" y="200" type="line"/>
      <point x="51" y="264" type="line"/>
      <point x="176" y="265" type="line"/>
      <point x="192" y="265" type="line"/>
      <point x="386" y="265" type="line"/>
      <point x="406" y="265" type="line"/>
      <point x="532" y="264" type="line"/>
      <point x="522" y="200" type="line"/>
    </contour>
    <contour>
      <point x="532" y="700" type="line"/>
      <point x="609" y="700" type="line"/>
      <point x="323" y="0" type="line"/>
      <point x="248" y="0" type="line"/>
      <point x="340" y="228" type="line"/>
      <point x="348" y="246" type="line"/>
      <point x="436" y="462" type="line"/>
      <point x="442" y="478" type="line"/>
    </contour>
    <contour>
      <point x="328" y="700" type="line"/>
      <point x="405" y="700" type="line"/>
      <point x="316" y="482" type="line"/>
      <point x="309" y="466" type="line"/>
      <point x="219" y="244" type="line"/>
      <point x="212" y="226" type="line"/>
      <point x="119" y="0" type="line"/>
      <point x="46" y="0" type="line"/>
    </contour>
  </outline>
</glyph>
<glyph name="dollar" format="2">
  <advance width="562"/>
  <unicode hex="0024"/>
  <outline>
    <contour>
      <point x="360" y="818" type="line"/>
      <point x="432" y="818" type="line"/>
      <point x="409" y="668" type="line"/>
      <point x="336" y="668" type="line"/>
    </contour>
    <contour>
      <point x="242" y="48" type="line"/>
      <point x="314" y="48" type="line"/>
      <point x="289" y="-112" type="line"/>
      <point x="216" y="-112" type="line"/>
    </contour>
    <contour>
      <point x="490" y="514" type="line"/>
      <point x="468" y="571"/>
      <point x="440" y="627"/>
      <point x="368" y="628" type="curve" smooth="yes"/>
      <point x="298" y="629"/>
      <point x="249" y="594"/>
      <point x="239" y="534" type="curve" smooth="yes"/>
      <point x="227" y="458"/>
      <point x="302" y="426"/>
      <point x="372" y="396" type="curve" smooth="yes"/>
      <point x="450" y="362"/>
      <point x="529" y="302"/>
      <point x="516" y="190" type="curve" smooth="yes"/>
      <point x="500" y="74"/>
      <point x="409" y="-10"/>
      <point x="280" y="-10" type="curve" smooth="yes"/>
      <point x="166" y="-10"/>
      <point x="94" y="76"/>
      <point x="64" y="184" type="curve"/>
      <point x="140" y="226" type="line"/>
      <point x="166" y="142"/>
      <point x="204" y="70"/>
      <point x="292" y="70" type="curve" smooth="yes"/>
      <point x="366" y="70"/>
      <point x="418" y="116"/>
      <point x="428" y="183" type="curve" smooth="yes"/>
      <point x="442" y="269"/>
      <point x="367" y="308"/>
      <point x="295" y="338" type="curve" smooth="yes"/>
      <point x="219" y="370"/>
      <point x="138" y="429"/>
      <point x="152" y="540" type="curve" smooth="yes"/>
      <point x="166" y="638"/>
      <point x="266" y="710"/>
      <point x="374" y="710" type="curve" smooth="yes"/>
      <point x="477" y="710"/>
      <point x="541" y="637"/>
      <point x="564" y="559" type="curve"/>
    </contour>
  </outline>
</glyph>
<glyph name="ampersand" format="2">
  <advance width="655"/>
  <unicode hex="0026"/>
  <outline>
    <contour>
      <point x="260" y="384" type="line" smooth="yes"/>
      <point x="228" y="430"/>
      <point x="173" y="484"/>
      <point x="181" y="556" type="curve" smooth="yes"/>
      <point x="193" y="647"/>
      <point x="275" y="710"/>
      <point x="370" y="710" type="curve" smooth="yes"/>
      <point x="466" y="710"/>
      <point x="524" y="638"/>
      <point x="512" y="554" type="curve" smooth="yes"/>
      <point x="500" y="476"/>
      <point x="426" y="418"/>
      <point x="342" y="370" type="curve" smooth="yes"/>
      <point x="264" y="326"/>
      <point x="150" y="288"/>
      <point x="134" y="188" type="curve" smooth="yes"/>
      <point x="123" y="115"/>
      <point x="177" y="66"/>
      <point x="252" y="64" type="curve" smooth="yes"/>
      <point x="393" y="60"/>
      <point x="516" y="201"/>
      <point x="614" y="315" type="curve"/>
      <point x="671" y="276" type="line"/>
      <point x="557" y="146"/>
      <point x="425" y="-12"/>
      <point x="242" y="-10" type="curve" smooth="yes"/>
      <point x="131" y="-9"/>
      <point x="34" y="69"/>
      <point x="49" y="183" type="curve" smooth="yes"/>
      <point x="67" y="320"/>
      <point x="204" y="371"/>
      <point x="291" y="417" type="curve" smooth="yes"/>
      <point x="357" y="453"/>
      <point x="422" y="498"/>
      <point x="432" y="554" type="curve" smooth="yes"/>
      <point x="438" y="600"/>
      <point x="414" y="639"/>
      <point x="363" y="640" type="curve" smooth="yes"/>
      <point x="311" y="641"/>
      <point x="271" y="604"/>
      <point x="264" y="556" type="curve" smooth="yes"/>
      <point x="256" y="509"/>
      <point x="294" y="468"/>
      <point x="324" y="425" type="curve" smooth="yes"/>
      <point x="618" y="0" type="line"/>
      <point x="528" y="0" type="line"/>
    </contour>
  </outline>
</glyph>
<glyph name="quotesingle" format="2">
  <advance width="276"/>
  <unicode hex="0027"/>
  <outline>
    <contour>
      <point x="216" y="700" type="line"/>
      <point x="312" y="700" type="line"/>
      <point x="176" y="401" type="line"/>
      <point x="122" y="400" type="line"/>
    </contour>
  </outline>
</glyph>
<glyph name="parenleft" format="2">
  <advance width="300"/>
  <unicode hex="0028"/>
  <outline>
    <contour>
      <point x="300" y="779" type="curve"/>
      <point x="375" y="779" type="line"/>
      <point x="287" y="629"/>
      <point x="231" y="462"/>
      <point x="203" y="290" type="curve" smooth="yes"/>
      <point x="179" y="126"/>
      <point x="179" y="-42"/>
      <point x="224" y="-200" type="curve"/>
      <point x="152" y="-200" type="line"/>
      <point x="98" y="-42"/>
      <point x="90" y="126"/>
      <point x="114" y="290" type="curve" smooth="yes"/>
      <point x="141" y="464"/>
      <point x="202" y="632"/>
    </contour>
  </outline>
</glyph>
<glyph name="asterisk" format="2">
  <advance width="574"/>
  <unicode hex="002A"/>
  <outline>
    <contour>
      <point x="532" y="598" type="line"/>
      <point x="542" y="532" type="line"/>
      <point x="350" y="482" type="line"/>
      <point x="342" y="530" type="line"/>
    </contour>
    <contour>
      <point x="462" y="366" type="line"/>
      <point x="400" y="327" type="line"/>
      <point x="324" y="491" type="line"/>
      <point x="366" y="520" type="line"/>
    </contour>
    <contour>
      <point x="234" y="328" type="line"/>
      <point x="183" y="370" type="line"/>
      <point x="328" y="519" type="line"/>
      <point x="364" y="488" type="line"/>
    </contour>
    <contour>
      <point x="160" y="533" type="line"/>
      <point x="191" y="598" type="line"/>
      <point x="359" y="528" type="line"/>
      <point x="336" y="482" type="line"/>
    </contour>
    <contour>
      <point x="346" y="700" type="line"/>
      <point x="414" y="700" type="line"/>
      <point x="371" y="506" type="line"/>
      <point x="322" y="506" type="line"/>
    </contour>
  </outline>
</glyph>
<glyph name="plus" format="2">
  <advance width="596"/>
  <unicode hex="002B"/>
  <outline>
    <contour>
      <point x="73" y="216" type="line"/>
      <point x="86" y="295" type="line"/>
      <point x="558" y="295" type="line"/>
      <point x="545" y="215" type="line"/>
    </contour>
    <contour>
      <point x="314" y="500" type="line"/>
      <point x="400" y="500" type="line"/>
      <point x="314" y="10" type="line"/>
      <point x="232" y="10" type="line"/>
    </contour>
  </outline>
</glyph>
<glyph name="comma" format="2">
  <advance width="298"/>
  <unicode hex="002C"/>
  <outline>
    <contour>
      <point x="134" y="109" type="line"/>
      <point x="210" y="78" type="line"/>
      <point x="60" y="-169" type="line"/>
      <point x="4" y="-148" type="line"/>
    </contour>
  </outline>
</glyph>
<glyph name="hyphen" format="2">
  <advance width="203"/>
  <unicode hex="002D"/>
  <outline>
    <contour>
      <point x="12" y="200" type="line"/>
      <point x="24" y="275" type="line"/>
      <point x="220" y="275" type="line"/>
      <point x="208" y="200" type="line"/>
    </contour>
  </outline>
</glyph>
<glyph name="period" format="2">
  <advance width="291"/>
  <unicode hex="002E"/>
  <outline>
    <contour>
      <point x="70" y="40" type="curve" smooth="yes"/>
      <point x="70" y="70"/>
      <point x="95" y="94"/>
      <point x="125" y="94" type="curve" smooth="yes"/>
      <point x="155" y="94"/>
      <point x="180" y="70"/>
      <point x="180" y="40" type="curve" smooth="yes"/>
      <point x="180" y="10"/>
      <point x="155" y="-14"/>
      <point x="125" y="-14" type="curve" smooth="yes"/>
      <point x="95" y="-14"/>
      <point x="70" y="10"/>
    </contour>
  </outline>
</glyph>
<glyph name="slash" format="2">
  <advance width="499"/>
  <unicode hex="002F"/>
  <outline>
    <contour>
      <point x="498" y="700" type="line"/>
      <point x="580" y="700" type="line"/>
      <point x="40" y="-150" type="line"/>
      <point x="-38" y="-149" type="line"/>
    </contour>
  </outline>
</glyph>
<glyph name="zero" format="2">
  <advance width="582"/>
  <unicode hex="0030"/>
  <outline>
    <contour>
      <point x="154" y="350" type="curve" smooth="yes"/>
      <point x="140" y="228"/>
      <point x="150" y="72"/>
      <point x="273" y="70" type="curve" smooth="yes"/>
      <point x="396" y="68"/>
      <point x="473" y="214"/>
      <point x="493" y="350" type="curve" smooth="yes"/>
      <point x="507" y="472"/>
      <point x="497" y="628"/>
      <point x="374" y="630" type="curve" smooth="yes"/>
      <point x="251" y="632"/>
      <point x="174" y="486"/>
    </contour>
    <contour>
      <point x="70" y="350" type="curve" smooth="yes"/>
      <point x="96" y="532"/>
      <point x="212" y="710"/>
      <point x="382" y="710" type="curve" smooth="yes"/>
      <point x="554" y="710"/>
      <point x="597" y="518"/>
      <point x="577" y="350" type="curve" smooth="yes"/>
      <point x="551" y="168"/>
      <point x="436" y="-10"/>
      <point x="266" y="-10" type="curve" smooth="yes"/>
      <point x="94" y="-10"/>
      <point x="50" y="182"/>
    </contour>
  </outline>
</glyph>
<glyph name="one" format="2">
  <advance width="436"/>
  <unicode hex="0031"/>
  <outline>
    <contour>
      <point x="144" y="562" type="line"/>
      <point x="161" y="651" type="line"/>
      <point x="406" y="710" type="line"/>
      <point x="284" y="0" type="line"/>
      <point x="200" y="0" type="line"/>
      <point x="304" y="606" type="line"/>
    </contour>
  </outline>
</glyph>
<glyph name="two" format="2">
  <advance width="552"/>
  <unicode hex="0032"/>
  <outline>
    <contour>
      <point x="2" y="0" type="line"/>
      <point x="376" y="353" type="line" smooth="yes"/>
      <point x="423" y="398"/>
      <point x="462" y="446"/>
      <point x="472" y="506" type="curve" smooth="yes"/>
      <point x="482" y="568"/>
      <point x="440" y="629"/>
      <point x="363" y="630" type="curve" smooth="yes"/>
      <point x="269" y="632"/>
      <point x="212" y="552"/>
      <point x="195" y="460" type="curve"/>
      <point x="112" y="460" type="line"/>
      <point x="135" y="597"/>
      <point x="224" y="710"/>
      <point x="370" y="710" type="curve" smooth="yes"/>
      <point x="502" y="710"/>
      <point x="573" y="605"/>
      <point x="558" y="509" type="curve" smooth="yes"/>
      <point x="547" y="433"/>
      <point x="497" y="361"/>
      <point x="438" y="307" type="curve" smooth="yes"/>
      <point x="186" y="80" type="line"/>
      <point x="496" y="80" type="line"/>
      <point x="483" y="0" type="line"/>
    </contour>
  </outline>
</glyph>
<glyph name="three" format="2">
  <advance width="529"/>
  <unicode hex="0033"/>
  <outline>
    <contour>
      <point x="282" y="346" type="curve"/>
      <point x="289" y="400" type="line"/>
      <point x="371" y="406"/>
      <point x="433" y="450"/>
      <point x="446" y="521" type="curve" smooth="yes"/>
      <point x="455" y="580"/>
      <point x="428" y="631"/>
      <point x="362" y="632" type="curve" smooth="yes"/>
      <point x="296" y="633"/>
      <point x="247" y="583"/>
      <point x="231" y="526" type="curve"/>
      <point x="150" y="527" type="line"/>
      <point x="170" y="631"/>
      <point x="254" y="710"/>
      <point x="368" y="710" type="curve" smooth="yes"/>
      <point x="480" y="710"/>
      <point x="545" y="622"/>
      <point x="531" y="524" type="curve" smooth="yes"/>
      <point x="513" y="415"/>
      <point x="406" y="350"/>
    </contour>
    <contour>
      <point x="258" y="-10" type="curve" smooth="yes"/>
      <point x="132" y="-10"/>
      <point x="60" y="75"/>
      <point x="68" y="185" type="curve"/>
      <point x="152" y="184" type="line"/>
      <point x="148" y="118"/>
      <point x="190" y="70"/>
      <point x="266" y="70" type="curve" smooth="yes"/>
      <point x="343" y="70"/>
      <point x="403" y="123"/>
      <point x="414" y="195" type="curve" smooth="yes"/>
      <point x="428" y="281"/>
      <point x="360" y="320"/>
      <point x="278" y="325" type="curve"/>
      <point x="286" y="380" type="line"/>
      <point x="410" y="376"/>
      <point x="516" y="318"/>
      <point x="498" y="184" type="curve" smooth="yes"/>
      <point x="482" y="68"/>
      <point x="378" y="-10"/>
    </contour>
  </outline>
</glyph>
<glyph name="four" format="2">
  <advance width="565"/>
  <unicode hex="0034"/>
  <outline>
    <contour>
      <point x="16" y="141" type="line"/>
      <point x="486" y="699" type="line"/>
      <point x="522" y="700" type="line"/>
      <point x="403" y="0" type="line"/>
      <point x="319" y="0" type="line"/>
      <point x="350" y="176" type="line"/>
      <point x="352" y="187" type="line"/>
      <point x="406" y="506" type="line"/>
      <point x="167" y="216" type="line"/>
      <point x="388" y="215" type="line"/>
      <point x="404" y="215" type="line"/>
      <point x="548" y="215" type="line"/>
      <point x="535" y="140" type="line"/>
    </contour>
  </outline>
</glyph>
<glyph name="five" format="2">
  <advance width="547"/>
  <unicode hex="0035"/>
  <outline>
    <contour>
      <point x="528" y="230" type="curve" smooth="yes"/>
      <point x="509" y="84"/>
      <point x="393" y="-10"/>
      <point x="255" y="-10" type="curve" smooth="yes"/>
      <point x="141" y="-10"/>
      <point x="72" y="53"/>
      <point x="32" y="138" type="curve"/>
      <point x="109" y="186" type="line"/>
      <point x="135" y="125"/>
      <point x="188" y="70"/>
      <point x="262" y="70" type="curve" smooth="yes"/>
      <point x="358" y="70"/>
      <point x="427" y="140"/>
      <point x="441" y="230" type="curve" smooth="yes"/>
      <point x="453" y="316"/>
      <point x="405" y="388"/>
      <point x="316" y="390" type="curve" smooth="yes"/>
      <point x="248" y="392"/>
      <point x="195" y="368"/>
      <point x="130" y="328" type="curve"/>
      <point x="276" y="700" type="line"/>
      <point x="598" y="700" type="line"/>
      <point x="586" y="625" type="line"/>
      <point x="332" y="625" type="line"/>
      <point x="254" y="440" type="line"/>
      <point x="287" y="455"/>
      <point x="322" y="466"/>
      <point x="358" y="466" type="curve" smooth="yes"/>
      <point x="482" y="466"/>
      <point x="543" y="352"/>
    </contour>
  </outline>
</glyph>
<glyph name="six" format="2">
  <advance width="558"/>
  <unicode hex="0036"/>
  <outline>
    <contour>
      <point x="146" y="230" type="curve" smooth="yes"/>
      <point x="134" y="145"/>
      <point x="180" y="68"/>
      <point x="270" y="68" type="curve" smooth="yes"/>
      <point x="361" y="68"/>
      <point x="436" y="140"/>
      <point x="450" y="230" type="curve" smooth="yes"/>
      <point x="462" y="315"/>
      <point x="416" y="394"/>
      <point x="326" y="394" type="curve" smooth="yes"/>
      <point x="235" y="394"/>
      <point x="160" y="320"/>
    </contour>
    <contour>
      <point x="409" y="700" type="line"/>
      <point x="518" y="700" type="line"/>
      <point x="259" y="412" type="line"/>
      <point x="252" y="418" type="line"/>
      <point x="282" y="445"/>
      <point x="317" y="456"/>
      <point x="360" y="456" type="curve" smooth="yes"/>
      <point x="478" y="454"/>
      <point x="544" y="345"/>
      <point x="530" y="230" type="curve" smooth="yes"/>
      <point x="512" y="94"/>
      <point x="400" y="-10"/>
      <point x="264" y="-10" type="curve" smooth="yes"/>
      <point x="130" y="-10"/>
      <point x="49" y="99"/>
      <point x="66" y="230" type="curve" smooth="yes"/>
      <point x="74" y="286"/>
      <point x="98" y="336"/>
      <point x="130" y="375" type="curve" smooth="yes"/>
    </contour>
  </outline>
</glyph>
<glyph name="seven" format="2">
  <advance width="509"/>
  <unicode hex="0037"/>
  <outline>
    <contour>
      <point x="106" y="620" type="line"/>
      <point x="119" y="700" type="line"/>
      <point x="598" y="700" type="line"/>
      <point x="164" y="0" type="line"/>
      <point x="74" y="0" type="line"/>
      <point x="458" y="620" type="line"/>
    </contour>
  </outline>
</glyph>
<glyph name="eight" format="2">
  <advance width="529"/>
  <unicode hex="0038"/>
  <outline>
    <contour>
      <point x="140" y="532" type="curve" smooth="yes"/>
      <point x="156" y="630"/>
      <point x="250" y="710"/>
      <point x="356" y="710" type="curve" smooth="yes"/>
      <point x="460" y="710"/>
      <point x="530" y="626"/>
      <point x="516" y="530" type="curve" smooth="yes"/>
      <point x="500" y="425"/>
      <point x="412" y="356"/>
      <point x="302" y="356" type="curve" smooth="yes"/>
      <point x="194" y="356"/>
      <point x="124" y="429"/>
    </contour>
    <contour>
      <point x="218" y="521" type="curve" smooth="yes"/>
      <point x="209" y="463"/>
      <point x="245" y="411"/>
      <point x="305" y="410" type="curve" smooth="yes"/>
      <point x="366" y="409"/>
      <point x="426" y="460"/>
      <point x="436" y="521" type="curve" smooth="yes"/>
      <point x="446" y="579"/>
      <point x="413" y="633"/>
      <point x="349" y="634" type="curve" smooth="yes"/>
      <point x="285" y="635"/>
      <point x="228" y="583"/>
    </contour>
    <contour>
      <point x="58" y="190" type="curve" smooth="yes"/>
      <point x="76" y="310"/>
      <point x="186" y="390"/>
      <point x="302" y="390" type="curve" smooth="yes"/>
      <point x="416" y="390"/>
      <point x="499" y="308"/>
      <point x="482" y="190" type="curve" smooth="yes"/>
      <point x="464" y="80"/>
      <point x="359" y="-10"/>
      <point x="239" y="-10" type="curve" smooth="yes"/>
      <point x="121" y="-10"/>
      <point x="42" y="84"/>
    </contour>
    <contour>
      <point x="139" y="200" type="curve" smooth="yes"/>
      <point x="127" y="125"/>
      <point x="174" y="67"/>
      <point x="246" y="66" type="curve" smooth="yes"/>
      <point x="319" y="65"/>
      <point x="393" y="122"/>
      <point x="405" y="200" type="curve" smooth="yes"/>
      <point x="415" y="268"/>
      <point x="369" y="333"/>
      <point x="298" y="334" type="curve" smooth="yes"/>
      <point x="226" y="335"/>
      <point x="151" y="272"/>
    </contour>
  </outline>
</glyph>
<glyph name="nine" format="2">
  <advance width="558"/>
  <unicode hex="0039"/>
  <outline>
    <contour>
      <point x="487" y="470" type="curve" smooth="yes"/>
      <point x="499" y="555"/>
      <point x="452" y="632"/>
      <point x="362" y="632" type="curve" smooth="yes"/>
      <point x="271" y="632"/>
      <point x="196" y="560"/>
      <point x="182" y="470" type="curve" smooth="yes"/>
      <point x="170" y="385"/>
      <point x="216" y="306"/>
      <point x="306" y="306" type="curve" smooth="yes"/>
      <point x="397" y="306"/>
      <point x="473" y="380"/>
    </contour>
    <contour>
      <point x="224" y="0" type="line"/>
      <point x="115" y="0" type="line"/>
      <point x="374" y="288" type="line"/>
      <point x="380" y="282" type="line"/>
      <point x="350" y="255"/>
      <point x="315" y="244"/>
      <point x="272" y="244" type="curve" smooth="yes"/>
      <point x="154" y="246"/>
      <point x="89" y="355"/>
      <point x="103" y="470" type="curve" smooth="yes"/>
      <point x="121" y="606"/>
      <point x="233" y="710"/>
      <point x="369" y="710" type="curve" smooth="yes"/>
      <point x="503" y="710"/>
      <point x="583" y="601"/>
      <point x="566" y="470" type="curve" smooth="yes"/>
      <point x="558" y="414"/>
      <point x="534" y="364"/>
      <point x="502" y="325" type="curve" smooth="yes"/>
    </contour>
  </outline>
</glyph>
<glyph name="colon" format="2">
  <advance width="291"/>
  <unicode hex="003A"/>
  <outline>
    <contour>
      <point x="70" y="40" type="curve" smooth="yes"/>
      <point x="70" y="70"/>
      <point x="95" y="94"/>
      <point x="125" y="94" type="curve" smooth="yes"/>
      <point x="155" y="94"/>
      <point x="180" y="70"/>
      <point x="180" y="40" type="curve" smooth="yes"/>
      <point x="180" y="10"/>
      <point x="155" y="-14"/>
      <point x="125" y="-14" type="curve" smooth="yes"/>
      <point x="95" y="-14"/>
      <point x="70" y="10"/>
    </contour>
    <contour>
      <point x="136" y="420" type="curve" smooth="yes"/>
      <point x="136" y="450"/>
      <point x="160" y="474"/>
      <point x="190" y="474" type="curve" smooth="yes"/>
      <point x="220" y="474"/>
      <point x="244" y="450"/>
      <point x="244" y="420" type="curve" smooth="yes"/>
      <point x="244" y="390"/>
      <point x="220" y="366"/>
      <point x="190" y="366" type="curve" smooth="yes"/>
      <point x="160" y="366"/>
      <point x="136" y="390"/>
    </contour>
  </outline>
</glyph>
<glyph name="semicolon" format="2">
  <advance width="320"/>
  <unicode hex="003B"/>
  <outline>
    <contour>
      <point x="165" y="420" type="curve" smooth="yes"/>
      <point x="165" y="450"/>
      <point x="190" y="474"/>
      <point x="220" y="474" type="curve" smooth="yes"/>
      <point x="250" y="474"/>
      <point x="274" y="450"/>
      <point x="274" y="420" type="curve" smooth="yes"/>
      <point x="274" y="390"/>
      <point x="250" y="366"/>
      <point x="220" y="366" type="curve" smooth="yes"/>
      <point x="190" y="366"/>
      <point x="165" y="390"/>
    </contour>
    <contour>
      <point x="134" y="109" type="line"/>
      <point x="210" y="78" type="line"/>
      <point x="60" y="-169" type="line"/>
      <point x="4" y="-148" type="line"/>
    </contour>
  </outline>
</glyph>
<glyph name="less" format="2">
  <advance width="621"/>
  <unicode hex="003C"/>
  <outline>
    <contour>
      <point x="209" y="258" type="line"/>
      <point x="548" y="91" type="line"/>
      <point x="534" y="16" type="line"/>
      <point x="76" y="236" type="line"/>
      <point x="83" y="280" type="line"/>
      <point x="618" y="501" type="line"/>
      <point x="604" y="418" type="line"/>
    </contour>
  </outline>
</glyph>
<glyph name="greater" format="2">
  <advance width="621"/>
  <unicode hex="003E"/>
  <outline>
    <contour>
      <point x="446" y="256" type="line"/>
      <point x="107" y="424" type="line"/>
      <point x="120" y="499" type="line"/>
      <point x="579" y="280" type="line"/>
      <point x="572" y="235" type="line"/>
      <point x="36" y="14" type="line"/>
      <point x="50" y="98" type="line"/>
    </contour>
  </outline>
</glyph>
<glyph name="question" format="2">
  <advance width="540"/>
  <unicode hex="003F"/>
  <outline>
    <contour>
      <point x="462" y="500" type="curve" smooth="yes"/>
      <point x="476" y="578"/>
      <point x="429" y="634"/>
      <point x="345" y="634" type="curve" smooth="yes"/>
      <point x="279" y="634"/>
      <point x="228" y="598"/>
      <point x="190" y="552" type="curve"/>
      <point x="132" y="594" type="line"/>
      <point x="188" y="660"/>
      <point x="254" y="711"/>
      <point x="362" y="710" type="curve" smooth="yes"/>
      <point x="482" y="709"/>
      <point x="559" y="613"/>
      <point x="542" y="500" type="curve" smooth="yes"/>
      <point x="523" y="384"/>
      <point x="416" y="304"/>
      <point x="302" y="290" type="curve"/>
      <point x="272" y="170" type="line"/>
      <point x="214" y="170" type="line"/>
      <point x="222" y="345" type="line"/>
      <point x="247" y="345" type="line"/>
      <point x="355" y="347"/>
      <point x="444" y="415"/>
    </contour>
    <contour>
      <point x="168" y="40" type="curve" smooth="yes"/>
      <point x="168" y="70"/>
      <point x="192" y="94"/>
      <point x="222" y="94" type="curve" smooth="yes"/>
      <point x="253" y="94"/>
      <point x="277" y="68"/>
      <point x="277" y="40" type="curve" smooth="yes"/>
      <point x="277" y="10"/>
      <point x="252" y="-14"/>
      <point x="222" y="-14" type="curve" smooth="yes"/>
      <point x="191" y="-14"/>
      <point x="168" y="11"/>
    </contour>
  </outline>
</glyph>
<glyph name="at" format="2">
  <advance width="747"/>
  <unicode hex="0040"/>
  <outline>
    <contour>
      <point x="286" y="320" type="curve" smooth="yes"/>
      <point x="279" y="272"/>
      <point x="295" y="232"/>
      <point x="347" y="230" type="curve" smooth="yes"/>
      <point x="409" y="227"/>
      <point x="478" y="286"/>
      <point x="488" y="370" type="curve" smooth="yes"/>
      <point x="494" y="418"/>
      <point x="471" y="459"/>
      <point x="421" y="460" type="curve" smooth="yes"/>
      <point x="358" y="462"/>
      <point x="296" y="393"/>
    </contour>
    <contour>
      <point x="210" y="318" type="curve" smooth="yes"/>
      <point x="224" y="436"/>
      <point x="330" y="533"/>
      <point x="428" y="530" type="curve" smooth="yes"/>
      <point x="514" y="528"/>
      <point x="533" y="442"/>
      <point x="523" y="370" type="curve" smooth="yes"/>
      <point x="508" y="252"/>
      <point x="425" y="158"/>
      <point x="321" y="160" type="curve" smooth="yes"/>
      <point x="241" y="162"/>
      <point x="200" y="234"/>
    </contour>
    <contour>
      <point x="60" y="320" type="curve" smooth="yes"/>
      <point x="93" y="530"/>
      <point x="271" y="711"/>
      <point x="494" y="710" type="curve" smooth="yes"/>
      <point x="690" y="709"/>
      <point x="780" y="548"/>
      <point x="754" y="390" type="curve" smooth="yes"/>
      <point x="738" y="252"/>
      <point x="638" y="146"/>
      <point x="540" y="150" type="curve" smooth="yes"/>
      <point x="474" y="152"/>
      <point x="460" y="212"/>
      <point x="472" y="270" type="curve"/>
      <point x="464" y="270" type="line"/>
      <point x="542" y="520" type="line"/>
      <point x="617" y="520" type="line"/>
      <point x="536" y="289" type="line" smooth="yes"/>
      <point x="534" y="281"/>
      <point x="529" y="270"/>
      <point x="528" y="262" type="curve" smooth="yes"/>
      <point x="526" y="240"/>
      <point x="528" y="219"/>
      <point x="556" y="216" type="curve" smooth="yes"/>
      <point x="606" y="206"/>
      <point x="675" y="302"/>
      <point x="684" y="390" type="curve" smooth="yes"/>
      <point x="706" y="517"/>
      <point x="644" y="642"/>
      <point x="488" y="644" type="curve" smooth="yes"/>
      <point x="302" y="646"/>
      <point x="159" y="494"/>
      <point x="130" y="320" type="curve" smooth="yes"/>
      <point x="108" y="174"/>
      <point x="179" y="58"/>
      <point x="334" y="56" type="curve" smooth="yes"/>
      <point x="406" y="55"/>
      <point x="473" y="71"/>
      <point x="539" y="107" type="curve"/>
      <point x="565" y="48" type="line"/>
      <point x="497" y="12"/>
      <point x="426" y="-10"/>
      <point x="328" y="-10" type="curve" smooth="yes"/>
      <point x="125" y="-8"/>
      <point x="32" y="136"/>
    </contour>
  </outline>
</glyph>
<glyph name="B" format="2">
  <advance width="541"/>
  <unicode hex="0042"/>
  <outline>
    <contour>
      <point x="178" y="370" type="line"/>
      <point x="186" y="416" type="line"/>
      <point x="294" y="417" type="line" smooth="yes"/>
      <point x="361" y="417"/>
      <point x="421" y="455"/>
      <point x="433" y="520" type="curve" smooth="yes"/>
      <point x="444" y="583"/>
      <point x="398" y="624"/>
      <point x="334" y="624" type="curve" smooth="yes"/>
      <point x="240" y="625" type="line"/>
      <point x="146" y="75" type="line"/>
      <point x="244" y="76" type="line" smooth="yes"/>
      <point x="331" y="76"/>
      <point x="404" y="126"/>
      <point x="419" y="210" type="curve" smooth="yes"/>
      <point x="433" y="292"/>
      <point x="380" y="343"/>
      <point x="296" y="343" type="curve" smooth="yes"/>
      <point x="174" y="344" type="line"/>
      <point x="182" y="390" type="line"/>
      <point x="299" y="390" type="line" smooth="yes"/>
      <point x="422" y="388"/>
      <point x="520" y="330"/>
      <point x="502" y="204" type="curve" smooth="yes"/>
      <point x="482" y="71"/>
      <point x="369" y="0"/>
      <point x="238" y="0" type="curve" smooth="yes"/>
      <point x="50" y="0" type="line"/>
      <point x="170" y="700" type="line"/>
      <point x="342" y="700" type="line" smooth="yes"/>
      <point x="456" y="700"/>
      <point x="536" y="638"/>
      <point x="518" y="524" type="curve" smooth="yes"/>
      <point x="501" y="422"/>
      <point x="404" y="372"/>
      <point x="290" y="370" type="curve" smooth="yes"/>
    </contour>
  </outline>
</glyph>
<glyph name="D" format="2">
  <advance width="659"/>
  <unicode hex="0044"/>
  <outline>
    <contour>
      <point x="168" y="700" type="line"/>
      <point x="254" y="700" type="line"/>
      <point x="133" y="0" type="line"/>
      <point x="51" y="0" type="line"/>
    </contour>
    <contour>
      <point x="258" y="0" type="curve" smooth="yes"/>
      <point x="95" y="0" type="line"/>
      <point x="110" y="85" type="line"/>
      <point x="266" y="85" type="line" smooth="yes"/>
      <point x="424" y="85"/>
      <point x="544" y="196"/>
      <point x="570" y="350" type="curve" smooth="yes"/>
      <point x="594" y="497"/>
      <point x="516" y="615"/>
      <point x="362" y="615" type="curve" smooth="yes"/>
      <point x="200" y="615" type="line"/>
      <point x="215" y="700" type="line"/>
      <point x="370" y="700" type="line" smooth="yes"/>
      <point x="570" y="700"/>
      <point x="682" y="542"/>
      <point x="654" y="350" type="curve" smooth="yes"/>
      <point x="623" y="150"/>
      <point x="462" y="0"/>
    </contour>
  </outline>
</glyph>
<glyph name="F" format="2">
  <advance width="485"/>
  <unicode hex="0046"/>
  <outline>
    <contour>
      <point x="202" y="620" type="line"/>
      <point x="216" y="700" type="line"/>
      <point x="521" y="700" type="line"/>
      <point x="508" y="620" type="line"/>
    </contour>
    <contour>
      <point x="154" y="340" type="line"/>
      <point x="168" y="420" type="line"/>
      <point x="464" y="420" type="line"/>
      <point x="450" y="340" type="line"/>
    </contour>
    <contour>
      <point x="168" y="700" type="line"/>
      <point x="254" y="700" type="line"/>
      <point x="133" y="0" type="line"/>
      <point x="51" y="0" type="line"/>
    </contour>
  </outline>
</glyph>
<glyph name="H" format="2">
  <advance width="693"/>
  <unicode hex="0048"/>
  <outline>
    <contour>
      <point x="154" y="340" type="line"/>
      <point x="168" y="420" type="line"/>
      <point x="635" y="420" type="line"/>
      <point x="622" y="340" type="line"/>
    </contour>
    <contour>
      <point x="624" y="700" type="line"/>
      <point x="710" y="700" type="line"/>
      <point x="589" y="0" type="line"/>
      <point x="507" y="0" type="line"/>
    </contour>
    <contour>
      <point x="168" y="700" type="line"/>
      <point x="254" y="700" type="line"/>
      <point x="133" y="0" type="line"/>
      <point x="51" y="0" type="line"/>
    </contour>
  </outline>
</glyph>
<glyph name="J" format="2">
  <advance width="232"/>
  <unicode hex="004A"/>
  <outline>
    <contour>
      <point x="-112" y="-104" type="line"/>
      <point x="-97" y="-126"/>
      <point x="-74" y="-141"/>
      <point x="-42" y="-140" type="curve" smooth="yes"/>
      <point x="-3" y="-138"/>
      <point x="34" y="-104"/>
      <point x="41" y="-50" type="curve" smooth="yes"/>
      <point x="170" y="700" type="line"/>
      <point x="249" y="700" type="line"/>
      <point x="120" y="-60" type="line" smooth="yes"/>
      <point x="104" y="-156"/>
      <point x="39" y="-221"/>
      <point x="-56" y="-220" type="curve" smooth="yes"/>
      <point x="-104" y="-220"/>
      <point x="-142" y="-195"/>
      <point x="-164" y="-169" type="curve"/>
    </contour>
  </outline>
</glyph>
<glyph name="L" format="2">
  <advance width="436"/>
  <unicode hex="004C"/>
  <outline>
    <contour>
      <point x="170" y="700" type="line"/>
      <point x="254" y="700" type="line"/>
      <point x="148" y="80" type="line"/>
      <point x="414" y="80" type="line"/>
      <point x="400" y="0" type="line"/>
      <point x="50" y="0" type="line"/>
    </contour>
  </outline>
</glyph>
<glyph name="M" format="2">
  <advance width="786"/>
  <unicode hex="004D"/>
  <outline>
    <contour>
      <point x="227" y="472" type="line"/>
      <point x="95" y="0" type="line"/>
      <point x="10" y="0" type="line"/>
      <point x="220" y="736" type="line"/>
      <point x="404" y="230" type="line"/>
      <point x="766" y="739" type="line"/>
      <point x="720" y="0" type="line"/>
      <point x="636" y="0" type="line"/>
      <point x="667" y="468" type="line"/>
      <point x="378" y="64" type="line"/>
    </contour>
  </outline>
</glyph>
<glyph name="N" format="2">
  <advance width="752"/>
  <unicode hex="004E"/>
  <outline>
    <contour>
      <point x="684" y="700" type="line"/>
      <point x="768" y="700" type="line"/>
      <point x="642" y="-34" type="line"/>
      <point x="224" y="522" type="line"/>
      <point x="134" y="0" type="line"/>
      <point x="49" y="0" type="line"/>
      <point x="175" y="734" type="line"/>
      <point x="594" y="178" type="line"/>
    </contour>
  </outline>
</glyph>
<glyph name="P" format="2">
  <advance width="531"/>
  <unicode hex="0050"/>
  <outline>
    <contour>
      <point x="168" y="700" type="line"/>
      <point x="254" y="700" type="line"/>
      <point x="133" y="0" type="line"/>
      <point x="51" y="0" type="line"/>
    </contour>
    <contour>
      <point x="200" y="620" type="line"/>
      <point x="215" y="700" type="line"/>
      <point x="352" y="700" type="line" smooth="yes"/>
      <point x="479" y="700"/>
      <point x="569" y="614"/>
      <point x="550" y="490" type="curve" smooth="yes"/>
      <point x="530" y="363"/>
      <point x="417" y="280"/>
      <point x="286" y="280" type="curve" smooth="yes"/>
      <point x="142" y="280" type="line"/>
      <point x="157" y="360" type="line"/>
      <point x="294" y="360" type="line"/>
      <point x="380" y="362"/>
      <point x="451" y="406"/>
      <point x="466" y="490" type="curve" smooth="yes"/>
      <point x="480" y="572"/>
      <point x="427" y="620"/>
      <point x="344" y="620" type="curve" smooth="yes"/>
    </contour>
  </outline>
</glyph>
<glyph name="Q" format="2">
  <advance width="766"/>
  <unicode hex="0051"/>
  <outline>
    <contour>
      <point x="160" y="350" type="curve" smooth="yes"/>
      <point x="138" y="209"/>
      <point x="213" y="77"/>
      <point x="366" y="76" type="curve" smooth="yes"/>
      <point x="521" y="75"/>
      <point x="647" y="201"/>
      <point x="672" y="350" type="curve" smooth="yes"/>
      <point x="694" y="491"/>
      <point x="619" y="623"/>
      <point x="466" y="624" type="curve" smooth="yes"/>
      <point x="311" y="625"/>
      <point x="185" y="499"/>
    </contour>
    <contour>
      <point x="70" y="350" type="curve" smooth="yes"/>
      <point x="100" y="546"/>
      <point x="270" y="710"/>
      <point x="474" y="710" type="curve" smooth="yes"/>
      <point x="676" y="710"/>
      <point x="790" y="538"/>
      <point x="762" y="350" type="curve" smooth="yes"/>
      <point x="732" y="154"/>
      <point x="562" y="-10"/>
      <point x="358" y="-10" type="curve" smooth="yes"/>
      <point x="156" y="-10"/>
      <point x="42" y="162"/>
    </contour>
    <contour>
      <point x="394" y="300" type="line"/>
      <point x="497" y="300" type="line"/>
      <point x="737" y="0" type="line"/>
      <point x="634" y="0" type="line"/>
    </contour>
  </outline>
</glyph>
<glyph name="R" format="2">
  <advance width="543"/>
  <unicode hex="0052"/>
  <outline>
    <contour>
      <point x="230" y="345" type="line"/>
      <point x="322" y="345" type="line"/>
      <point x="506" y="0" type="line"/>
      <point x="406" y="0" type="line"/>
    </contour>
    <contour>
      <point x="168" y="700" type="line"/>
      <point x="254" y="700" type="line"/>
      <point x="133" y="0" type="line"/>
      <point x="51" y="0" type="line"/>
    </contour>
    <contour>
      <point x="202" y="625" type="line"/>
      <point x="215" y="700" type="line"/>
      <point x="352" y="700" type="line" smooth="yes"/>
      <point x="479" y="700"/>
      <point x="569" y="614"/>
      <point x="550" y="490" type="curve" smooth="yes"/>
      <point x="530" y="363"/>
      <point x="417" y="280"/>
      <point x="286" y="280" type="curve" smooth="yes"/>
      <point x="142" y="280" type="line"/>
      <point x="156" y="355" type="line"/>
      <point x="292" y="355" type="line" smooth="yes"/>
      <point x="379" y="355"/>
      <point x="451" y="406"/>
      <point x="466" y="490" type="curve" smooth="yes"/>
      <point x="480" y="571"/>
      <point x="428" y="625"/>
      <point x="344" y="625" type="curve" smooth="yes"/>
    </contour>
  </outline>
</glyph>
<glyph name="S" format="2">
  <advance width="531"/>
  <unicode hex="0053"/>
  <outline>
    <contour>
      <point x="106" y="212" type="line"/>
      <point x="143" y="127"/>
      <point x="187" y="70"/>
      <point x="271" y="70" type="curve" smooth="yes"/>
      <point x="361" y="70"/>
      <point x="416" y="136"/>
      <point x="416" y="200" type="curve" smooth="yes"/>
      <point x="416" y="279"/>
      <point x="356" y="303"/>
      <point x="285" y="336" type="curve" smooth="yes"/>
      <point x="224" y="364"/>
      <point x="130" y="412"/>
      <point x="130" y="519" type="curve" smooth="yes"/>
      <point x="130" y="623"/>
      <point x="214" y="710"/>
      <point x="343" y="710" type="curve" smooth="yes"/>
      <point x="456" y="710"/>
      <point x="522" y="638"/>
      <point x="552" y="560" type="curve"/>
      <point x="479" y="522" type="line"/>
      <point x="457" y="574"/>
      <point x="420" y="630"/>
      <point x="333" y="630" type="curve" smooth="yes"/>
      <point x="257" y="630"/>
      <point x="218" y="585"/>
      <point x="218" y="530" type="curve" smooth="yes"/>
      <point x="218" y="471"/>
      <point x="264" y="430"/>
      <point x="351" y="396" type="curve" smooth="yes"/>
      <point x="420" y="367"/>
      <point x="503" y="322"/>
      <point x="503" y="210" type="curve" smooth="yes"/>
      <point x="503" y="88"/>
      <point x="394" y="-10"/>
      <point x="268" y="-10" type="curve" smooth="yes"/>
      <point x="154" y="-10"/>
      <point x="73" y="73"/>
      <point x="38" y="166" type="curve"/>
    </contour>
  </outline>
</glyph>
<glyph name="T" format="2">
  <advance width="451"/>
  <unicode hex="0054"/>
  <outline>
    <contour>
      <point x="87" y="620" type="line"/>
      <point x="102" y="700" type="line"/>
      <point x="535" y="700" type="line"/>
      <point x="521" y="620" type="line"/>
      <point x="346" y="620" type="line"/>
      <point x="240" y="0" type="line"/>
      <point x="156" y="0" type="line"/>
      <point x="262" y="620" type="line"/>
    </contour>
  </outline>
</glyph>
<glyph name="U" format="2">
  <advance width="607"/>
  <unicode hex="0055"/>
  <outline>
    <contour>
      <point x="165" y="700" type="line"/>
      <point x="249" y="700" type="line"/>
      <point x="168" y="230" type="line" smooth="yes"/>
      <point x="156" y="144"/>
      <point x="189" y="70"/>
      <point x="286" y="70" type="curve" smooth="yes"/>
      <point x="394" y="70"/>
      <point x="449" y="140"/>
      <point x="464" y="230" type="curve" smooth="yes"/>
      <point x="544" y="700" type="line"/>
      <point x="628" y="700" type="line"/>
      <point x="548" y="230" type="line" smooth="yes"/>
      <point x="526" y="97"/>
      <point x="437" y="-10"/>
      <point x="279" y="-10" type="curve" smooth="yes"/>
      <point x="138" y="-10"/>
      <point x="64" y="102"/>
      <point x="84" y="230" type="curve" smooth="yes"/>
    </contour>
  </outline>
</glyph>
<glyph name="V" format="2">
  <advance width="640"/>
  <unicode hex="0056"/>
  <outline>
    <contour>
      <point x="326" y="158" type="line"/>
      <point x="633" y="700" type="line"/>
      <point x="728" y="700" type="line"/>
      <point x="298" y="-36" type="line"/>
      <point x="96" y="700" type="line"/>
      <point x="186" y="700" type="line"/>
    </contour>
  </outline>
</glyph>
<glyph name="W" format="2">
  <advance width="960"/>
  <unicode hex="0057"/>
  <outline>
    <contour>
      <point x="690" y="182" type="line"/>
      <point x="948" y="700" type="line"/>
      <point x="1044" y="700" type="line"/>
      <point x="662" y="-37" type="line"/>
      <point x="542" y="507" type="line"/>
      <point x="254" y="-37" type="line"/>
      <point x="100" y="700" type="line"/>
      <point x="192" y="700" type="line"/>
      <point x="291" y="182" type="line"/>
      <point x="577" y="737" type="line"/>
    </contour>
  </outline>
</glyph>
<glyph name="X" format="2">
  <advance width="538"/>
  <unicode hex="0058"/>
  <outline>
    <contour>
      <point x="506" y="700" type="line"/>
      <point x="608" y="700" type="line"/>
      <point x="352" y="365" type="line"/>
      <point x="511" y="0" type="line"/>
      <point x="416" y="0" type="line"/>
      <point x="301" y="292" type="line"/>
      <point x="91" y="0" type="line"/>
      <point x="-10" y="0" type="line"/>
      <point x="271" y="369" type="line"/>
      <point x="126" y="700" type="line"/>
      <point x="221" y="700" type="line"/>
      <point x="322" y="442" type="line"/>
    </contour>
  </outline>
</glyph>
<glyph name="Y" format="2">
  <advance width="544"/>
  <unicode hex="0059"/>
  <outline>
    <contour>
      <point x="538" y="700" type="line"/>
      <point x="634" y="700" type="line"/>
      <point x="338" y="300" type="line"/>
      <point x="286" y="0" type="line"/>
      <point x="202" y="0" type="line"/>
      <point x="256" y="304" type="line"/>
      <point x="98" y="700" type="line"/>
      <point x="189" y="700" type="line"/>
      <point x="308" y="378" type="line"/>
    </contour>
  </outline>
</glyph>
<glyph name="Z" format="2">
  <advance width="528"/>
  <unicode hex="005A"/>
  <outline>
    <contour>
      <point x="112" y="620" type="line"/>
      <point x="126" y="700" type="line"/>
      <point x="604" y="700" type="line"/>
      <point x="141" y="80" type="line"/>
      <point x="478" y="80" type="line"/>
      <point x="464" y="0" type="line"/>
      <point x="-15" y="0" type="line"/>
      <point x="448" y="620" type="line"/>
    </contour>
  </outline>
</glyph>
<glyph name="bracketleft" format="2">
  <advance width="291"/>
  <unicode hex="005B"/>
  <outline>
    <contour>
      <point x="267" y="705" type="line"/>
      <point x="135" y="-145" type="line"/>
      <point x="234" y="-145" type="line"/>
      <point x="222" y="-220" type="line"/>
      <point x="45" y="-220" type="line"/>
      <point x="200" y="780" type="line"/>
      <point x="376" y="780" type="line"/>
      <point x="364" y="706" type="line"/>
    </contour>
  </outline>
</glyph>
<glyph name="bracketright" format="2">
  <advance width="291"/>
  <unicode hex="005D"/>
  <outline>
    <contour>
      <point x="76" y="-145" type="line"/>
      <point x="208" y="705" type="line"/>
      <point x="110" y="705" type="line"/>
      <point x="122" y="780" type="line"/>
      <point x="298" y="780" type="line"/>
      <point x="144" y="-220" type="line"/>
      <point x="-33" y="-220" type="line"/>
      <point x="-22" y="-146" type="line"/>
    </contour>
  </outline>
</glyph>
<glyph name="asciicircum" format="2">
  <advance width="494"/>
  <unicode hex="005E"/>
  <outline>
    <contour>
      <point x="329" y="620" type="line"/>
      <point x="194" y="460" type="line"/>
      <point x="112" y="460" type="line"/>
      <point x="320" y="710" type="line"/>
      <point x="360" y="710" type="line"/>
      <point x="483" y="460" type="line"/>
      <point x="407" y="460" type="line"/>
    </contour>
  </outline>
</glyph>
<glyph name="underscore" format="2">
  <advance width="485"/>
  <unicode hex="005F"/>
  <outline>
    <contour>
      <point x="-50" y="-132" type="line"/>
      <point x="-42" y="-78" type="line"/>
      <point x="445" y="-78" type="line"/>
      <point x="436" y="-132" type="line"/>
    </contour>
  </outline>
</glyph>
<glyph name="grave" format="2">
  <advance width="363"/>
  <unicode hex="0060"/>
  <outline>
    <contour>
      <point x="156" y="661" type="line"/>
      <point x="234" y="700" type="line"/>
      <point x="358" y="539" type="line"/>
      <point x="311" y="510" type="line"/>
    </contour>
  </outline>
</glyph>
<glyph name="c" format="2">
  <advance width="463"/>
  <unicode hex="0063"/>
  <outline>
    <contour>
      <point x="126" y="230" type="curve" smooth="yes"/>
      <point x="114" y="144"/>
      <point x="160" y="68"/>
      <point x="250" y="66" type="curve" smooth="yes"/>
      <point x="322" y="65"/>
      <point x="385" y="104"/>
      <point x="421" y="148" type="curve"/>
      <point x="407" y="48" type="line"/>
      <point x="366" y="12"/>
      <point x="306" y="-10"/>
      <point x="244" y="-10" type="curve" smooth="yes"/>
      <point x="110" y="-10"/>
      <point x="29" y="102"/>
      <point x="46" y="230" type="curve" smooth="yes"/>
      <point x="64" y="363"/>
      <point x="176" y="470"/>
      <point x="312" y="470" type="curve" smooth="yes"/>
      <point x="371" y="470"/>
      <point x="427" y="449"/>
      <point x="462" y="411" type="curve"/>
      <point x="448" y="311" type="line"/>
      <point x="427" y="361"/>
      <point x="373" y="394"/>
      <point x="306" y="394" type="curve" smooth="yes"/>
      <point x="214" y="394"/>
      <point x="140" y="320"/>
    </contour>
  </outline>
</glyph>
<glyph name="e" format="2">
  <advance width="499"/>
  <unicode hex="0065"/>
  <outline>
    <contour>
      <point x="238" y="-10" type="curve" smooth="yes"/>
      <point x="124" y="-10"/>
      <point x="46" y="68"/>
      <point x="46" y="200" type="curve" smooth="yes"/>
      <point x="46" y="343"/>
      <point x="157" y="470"/>
      <point x="303" y="470" type="curve" smooth="yes"/>
      <point x="418" y="470"/>
      <point x="490" y="400"/>
      <point x="490" y="269" type="curve" smooth="yes"/>
      <point x="490" y="249"/>
      <point x="484" y="221"/>
      <point x="479" y="210" type="curve"/>
      <point x="96" y="210" type="line"/>
      <point x="96" y="278" type="line"/>
      <point x="426" y="278" type="line"/>
      <point x="395" y="232" type="line"/>
      <point x="401" y="248"/>
      <point x="408" y="266"/>
      <point x="408" y="285" type="curve" smooth="yes"/>
      <point x="408" y="356"/>
      <point x="371" y="400"/>
      <point x="298" y="400" type="curve" smooth="yes"/>
      <point x="196" y="400"/>
      <point x="126" y="310"/>
      <point x="126" y="205" type="curve" smooth="yes"/>
      <point x="126" y="122"/>
      <point x="164" y="65"/>
      <point x="248" y="65" type="curve" smooth="yes"/>
      <point x="310" y="65"/>
      <point x="363" y="100"/>
      <point x="397" y="148" type="curve"/>
      <point x="460" y="107" type="line"/>
      <point x="412" y="39"/>
      <point x="336" y="-10"/>
    </contour>
  </outline>
</glyph>
<glyph name="f" format="2">
  <advance width="277"/>
  <unicode hex="0066"/>
  <outline>
    <contour>
      <point x="90" y="460" type="line"/>
      <point x="314" y="460" type="line"/>
      <point x="301" y="385" type="line"/>
      <point x="76" y="385" type="line"/>
    </contour>
    <contour>
      <point x="346" y="684" type="line"/>
      <point x="334" y="702"/>
      <point x="321" y="710"/>
      <point x="304" y="710" type="curve" smooth="yes"/>
      <point x="268" y="710"/>
      <point x="246" y="670"/>
      <point x="240" y="620" type="curve" smooth="yes"/>
      <point x="134" y="0" type="line"/>
      <point x="54" y="0" type="line"/>
      <point x="162" y="630" type="line" smooth="yes"/>
      <point x="176" y="722"/>
      <point x="229" y="792"/>
      <point x="317" y="790" type="curve" smooth="yes"/>
      <point x="355" y="790"/>
      <point x="380" y="770"/>
      <point x="398" y="748" type="curve"/>
    </contour>
  </outline>
</glyph>
<glyph name="i" format="2">
  <advance width="252"/>
  <unicode hex="0069"/>
  <outline>
    <contour>
      <point x="156" y="650" type="curve" smooth="yes"/>
      <point x="156" y="680"/>
      <point x="180" y="704"/>
      <point x="210" y="704" type="curve" smooth="yes"/>
      <point x="240" y="704"/>
      <point x="264" y="680"/>
      <point x="264" y="650" type="curve" smooth="yes"/>
      <point x="264" y="620"/>
      <point x="240" y="596"/>
      <point x="210" y="596" type="curve" smooth="yes"/>
      <point x="180" y="596"/>
      <point x="156" y="620"/>
    </contour>
    <contour>
      <point x="137" y="460" type="line"/>
      <point x="218" y="460" type="line"/>
      <point x="140" y="0" type="line"/>
      <point x="60" y="0" type="line"/>
    </contour>
  </outline>
</glyph>
<glyph name="j" format="2">
  <advance width="242"/>
  <unicode hex="006A"/>
  <outline>
    <contour>
      <point x="144" y="650" type="curve" smooth="yes"/>
      <point x="144" y="680"/>
      <point x="168" y="704"/>
      <point x="198" y="704" type="curve" smooth="yes"/>
      <point x="228" y="704"/>
      <point x="252" y="680"/>
      <point x="252" y="650" type="curve" smooth="yes"/>
      <point x="252" y="620"/>
      <point x="228" y="596"/>
      <point x="198" y="596" type="curve" smooth="yes"/>
      <point x="168" y="596"/>
      <point x="144" y="620"/>
    </contour>
    <contour>
      <point x="-65" y="-114" type="line"/>
      <point x="-56" y="-128"/>
      <point x="-38" y="-140"/>
      <point x="-22" y="-140" type="curve" smooth="yes"/>
      <point x="16" y="-142"/>
      <point x="35" y="-97"/>
      <point x="41" y="-50" type="curve" smooth="yes"/>
      <point x="128" y="460" type="line"/>
      <point x="208" y="460" type="line"/>
      <point x="120" y="-60" type="line" smooth="yes"/>
      <point x="106" y="-148"/>
      <point x="58" y="-222"/>
      <point x="-30" y="-220" type="curve" smooth="yes"/>
      <point x="-67" y="-220"/>
      <point x="-97" y="-204"/>
      <point x="-118" y="-178" type="curve"/>
    </contour>
  </outline>
</glyph>
<glyph name="k" format="2">
  <advance width="426"/>
  <unicode hex="006B"/>
  <outline>
    <contour>
      <point x="172" y="780" type="line"/>
      <point x="254" y="780" type="line"/>
      <point x="118" y="0" type="line"/>
      <point x="41" y="0" type="line"/>
    </contour>
    <contour>
      <point x="360" y="460" type="line"/>
      <point x="462" y="460" type="line"/>
      <point x="230" y="264" type="line"/>
      <point x="398" y="0" type="line"/>
      <point x="304" y="0" type="line"/>
      <point x="136" y="272" type="line"/>
    </contour>
  </outline>
</glyph>
<glyph name="m" format="2">
  <advance width="756"/>
  <unicode hex="006D"/>
  <outline>
    <contour>
      <point x="707" y="290" type="curve" smooth="yes"/>
      <point x="658" y="0" type="line"/>
      <point x="578" y="0" type="line"/>
      <point x="628" y="280" type="line" smooth="yes"/>
      <point x="636" y="342"/>
      <point x="627" y="394"/>
      <point x="564" y="394" type="curve" smooth="yes"/>
      <point x="496" y="394"/>
      <point x="448" y="345"/>
      <point x="439" y="282" type="curve" smooth="yes"/>
      <point x="390" y="0" type="line"/>
      <point x="312" y="0" type="line"/>
      <point x="360" y="280" type="line" smooth="yes"/>
      <point x="367" y="342"/>
      <point x="361" y="394"/>
      <point x="298" y="394" type="curve" smooth="yes"/>
      <point x="232" y="394"/>
      <point x="184" y="349"/>
      <point x="174" y="284" type="curve" smooth="yes"/>
      <point x="124" y="0" type="line"/>
      <point x="44" y="0" type="line"/>
      <point x="124" y="460" type="line"/>
      <point x="203" y="460" type="line"/>
      <point x="192" y="396" type="line"/>
      <point x="224" y="442"/>
      <point x="267" y="470"/>
      <point x="324" y="470" type="curve" smooth="yes"/>
      <point x="390" y="470"/>
      <point x="426" y="433"/>
      <point x="438" y="380" type="curve"/>
      <point x="474" y="434"/>
      <point x="525" y="470"/>
      <point x="591" y="470" type="curve" smooth="yes"/>
      <point x="691" y="470"/>
      <point x="719" y="386"/>
    </contour>
  </outline>
</glyph>
<glyph name="n" format="2">
  <advance width="509"/>
  <unicode hex="006E"/>
  <outline>
    <contour>
      <point x="380" y="280" type="line" smooth="yes"/>
      <point x="388" y="342"/>
      <point x="373" y="394"/>
      <point x="307" y="394" type="curve" smooth="yes"/>
      <point x="238" y="394"/>
      <point x="184" y="347"/>
      <point x="174" y="284" type="curve" smooth="yes"/>
      <point x="124" y="0" type="line"/>
      <point x="44" y="0" type="line"/>
      <point x="124" y="460" type="line"/>
      <point x="203" y="460" type="line"/>
      <point x="192" y="390" type="line"/>
      <point x="226" y="440"/>
      <point x="274" y="470"/>
      <point x="334" y="470" type="curve" smooth="yes"/>
      <point x="435" y="470"/>
      <point x="474" y="386"/>
      <point x="460" y="290" type="curve" smooth="yes"/>
      <point x="410" y="0" type="line"/>
      <point x="332" y="0" type="line"/>
    </contour>
  </outline>
</glyph>
<glyph name="o" format="2">
  <advance width="529"/>
  <unicode hex="006F"/>
  <outline>
    <contour>
      <point x="52" y="230" type="curve" smooth="yes"/>
      <point x="70" y="362"/>
      <point x="183" y="470"/>
      <point x="318" y="470" type="curve" smooth="yes"/>
      <point x="452" y="470"/>
      <point x="532" y="358"/>
      <point x="515" y="230" type="curve" smooth="yes"/>
      <point x="497" y="98"/>
      <point x="384" y="-10"/>
      <point x="249" y="-10" type="curve" smooth="yes"/>
      <point x="115" y="-10"/>
      <point x="35" y="102"/>
    </contour>
    <contour>
      <point x="131" y="230" type="curve" smooth="yes"/>
      <point x="119" y="145"/>
      <point x="165" y="66"/>
      <point x="255" y="66" type="curve" smooth="yes"/>
      <point x="346" y="66"/>
      <point x="422" y="140"/>
      <point x="436" y="230" type="curve" smooth="yes"/>
      <point x="448" y="315"/>
      <point x="401" y="394"/>
      <point x="311" y="394" type="curve" smooth="yes"/>
      <point x="220" y="394"/>
      <point x="145" y="320"/>
    </contour>
  </outline>
</glyph>
<glyph name="s" format="2">
  <advance width="391"/>
  <unicode hex="0073"/>
  <outline>
    <contour>
      <point x="96" y="139" type="line"/>
      <point x="124" y="96"/>
      <point x="162" y="62"/>
      <point x="219" y="62" type="curve" smooth="yes"/>
      <point x="264" y="62"/>
      <point x="294" y="90"/>
      <point x="294" y="126" type="curve" smooth="yes"/>
      <point x="294" y="170"/>
      <point x="246" y="195"/>
      <point x="204" y="212" type="curve" smooth="yes"/>
      <point x="152" y="233"/>
      <point x="88" y="264"/>
      <point x="88" y="340" type="curve" smooth="yes"/>
      <point x="88" y="427"/>
      <point x="163" y="470"/>
      <point x="238" y="470" type="curve" smooth="yes"/>
      <point x="311" y="470"/>
      <point x="368" y="431"/>
      <point x="396" y="380" type="curve"/>
      <point x="336" y="340" type="line"/>
      <point x="311" y="374"/>
      <point x="276" y="402"/>
      <point x="233" y="402" type="curve" smooth="yes"/>
      <point x="191" y="402"/>
      <point x="164" y="381"/>
      <point x="164" y="350" type="curve" smooth="yes"/>
      <point x="164" y="313"/>
      <point x="202" y="295"/>
      <point x="246" y="276" type="curve" smooth="yes"/>
      <point x="315" y="246"/>
      <point x="373" y="217"/>
      <point x="373" y="135" type="curve" smooth="yes"/>
      <point x="373" y="55"/>
      <point x="306" y="-10"/>
      <point x="212" y="-10" type="curve" smooth="yes"/>
      <point x="120" y="-10"/>
      <point x="56" y="47"/>
      <point x="31" y="102" type="curve"/>
    </contour>
  </outline>
</glyph>
<glyph name="t" format="2">
  <advance width="232"/>
  <unicode hex="0074"/>
  <outline>
    <contour>
      <point x="58" y="460" type="line"/>
      <point x="282" y="460" type="line"/>
      <point x="268" y="385" type="line"/>
      <point x="44" y="385" type="line"/>
    </contour>
    <contour>
      <point x="155" y="620" type="line"/>
      <point x="236" y="620" type="line"/>
      <point x="128" y="0" type="line"/>
      <point x="51" y="0" type="line"/>
    </contour>
  </outline>
</glyph>
<glyph name="u" format="2">
  <advance width="509"/>
  <unicode hex="0075"/>
  <outline>
    <contour>
      <point x="154" y="180" type="line" smooth="yes"/>
      <point x="146" y="119"/>
      <point x="161" y="66"/>
      <point x="226" y="66" type="curve" smooth="yes"/>
      <point x="295" y="66"/>
      <point x="350" y="113"/>
      <point x="360" y="176" type="curve" smooth="yes"/>
      <point x="410" y="460" type="line"/>
      <point x="490" y="460" type="line"/>
      <point x="410" y="0" type="line"/>
      <point x="330" y="0" type="line"/>
      <point x="342" y="70" type="line"/>
      <point x="308" y="20"/>
      <point x="261" y="-10"/>
      <point x="200" y="-10" type="curve" smooth="yes"/>
      <point x="100" y="-10"/>
      <point x="60" y="75"/>
      <point x="74" y="170" type="curve" smooth="yes"/>
      <point x="124" y="460" type="line"/>
      <point x="202" y="460" type="line"/>
    </contour>
  </outline>
</glyph>
<glyph name="w" format="2">
  <advance width="659"/>
  <unicode hex="0077"/>
  <outline>
    <contour>
      <point x="57" y="460" type="line"/>
      <point x="144" y="460" type="line"/>
      <point x="203" y="164" type="line"/>
      <point x="383" y="497" type="line"/>
      <point x="454" y="162" type="line"/>
      <point x="618" y="460" type="line"/>
      <point x="709" y="460" type="line"/>
      <point x="428" y="-37" type="line"/>
      <point x="352" y="298" type="line"/>
      <point x="166" y="-37" type="line"/>
    </contour>
  </outline>
</glyph>
<glyph name="x" format="2">
  <advance width="407"/>
  <unicode hex="0078"/>
  <outline>
    <contour>
      <point x="362" y="460" type="line"/>
      <point x="454" y="460" type="line"/>
      <point x="266" y="233" type="line"/>
      <point x="390" y="0" type="line"/>
      <point x="304" y="0" type="line"/>
      <point x="215" y="176" type="line"/>
      <point x="72" y="0" type="line"/>
      <point x="-20" y="0" type="line"/>
      <point x="182" y="242" type="line"/>
      <point x="64" y="460" type="line"/>
      <point x="150" y="460" type="line"/>
      <point x="233" y="300" type="line"/>
    </contour>
  </outline>
</glyph>
<glyph name="y" format="2">
  <advance width="426"/>
  <unicode hex="0079"/>
  <outline>
    <contour>
      <point x="481" y="460" type="line"/>
      <point x="72" y="-220" type="line"/>
      <point x="-18" y="-220" type="line"/>
      <point x="156" y="68" type="line"/>
      <point x="52" y="460" type="line"/>
      <point x="140" y="460" type="line"/>
      <point x="224" y="100" type="line"/>
      <point x="192" y="104" type="line"/>
      <point x="390" y="460" type="line"/>
    </contour>
  </outline>
</glyph>
<glyph name="z" format="2">
  <advance width="446"/>
  <unicode hex="007A"/>
  <outline>
    <contour>
      <point x="328" y="385" type="line"/>
      <point x="81" y="385" type="line"/>
      <point x="94" y="460" type="line"/>
      <point x="486" y="460" type="line"/>
      <point x="143" y="75" type="line"/>
      <point x="400" y="75" type="line"/>
      <point x="386" y="0" type="line"/>
      <point x="-15" y="0" type="line"/>
    </contour>
  </outline>
</glyph>
<glyph name="braceleft" format="2">
  <advance width="301"/>
  <unicode hex="007B"/>
  <outline>
    <contour>
      <point x="258" y="660" type="curve" smooth="yes"/>
      <point x="232" y="490" type="line" smooth="yes"/>
      <point x="217" y="397"/>
      <point x="197" y="292"/>
      <point x="89" y="280" type="curve"/>
      <point x="92" y="300" type="line"/>
      <point x="197" y="284"/>
      <point x="182" y="174"/>
      <point x="170" y="90" type="curve" smooth="yes"/>
      <point x="143" y="-80" type="line" smooth="yes"/>
      <point x="139" y="-107"/>
      <point x="152" y="-130"/>
      <point x="182" y="-130" type="curve" smooth="yes"/>
      <point x="217" y="-130" type="line"/>
      <point x="206" y="-200" type="line"/>
      <point x="149" y="-200" type="line" smooth="yes"/>
      <point x="91" y="-200"/>
      <point x="60" y="-136"/>
      <point x="68" y="-60" type="curve" smooth="yes"/>
      <point x="101" y="150" type="line" smooth="yes"/>
      <point x="107" y="210"/>
      <point x="101" y="238"/>
      <point x="70" y="260" type="curve"/>
      <point x="80" y="320" type="line"/>
      <point x="116" y="338"/>
      <point x="135" y="368"/>
      <point x="143" y="430" type="curve" smooth="yes"/>
      <point x="175" y="640" type="line" smooth="yes"/>
      <point x="186" y="721"/>
      <point x="238" y="780"/>
      <point x="296" y="780" type="curve" smooth="yes"/>
      <point x="356" y="780" type="line"/>
      <point x="346" y="710" type="line"/>
      <point x="313" y="710" type="line" smooth="yes"/>
      <point x="281" y="710"/>
      <point x="263" y="689"/>
    </contour>
  </outline>
</glyph>
<glyph name="braceright" format="2">
  <advance width="301"/>
  <unicode hex="007D"/>
  <outline>
    <contour>
      <point x="108" y="-80" type="curve" smooth="yes"/>
      <point x="134" y="90" type="line" smooth="yes"/>
      <point x="149" y="183"/>
      <point x="169" y="288"/>
      <point x="277" y="300" type="curve"/>
      <point x="274" y="280" type="line"/>
      <point x="169" y="296"/>
      <point x="184" y="406"/>
      <point x="196" y="490" type="curve" smooth="yes"/>
      <point x="222" y="660" type="line" smooth="yes"/>
      <point x="226" y="687"/>
      <point x="214" y="710"/>
      <point x="184" y="710" type="curve" smooth="yes"/>
      <point x="149" y="710" type="line"/>
      <point x="159" y="780" type="line"/>
      <point x="216" y="780" type="line" smooth="yes"/>
      <point x="274" y="780"/>
      <point x="305" y="716"/>
      <point x="297" y="640" type="curve" smooth="yes"/>
      <point x="264" y="430" type="line" smooth="yes"/>
      <point x="258" y="370"/>
      <point x="264" y="342"/>
      <point x="295" y="320" type="curve"/>
      <point x="286" y="260" type="line"/>
      <point x="250" y="242"/>
      <point x="230" y="212"/>
      <point x="222" y="150" type="curve" smooth="yes"/>
      <point x="190" y="-60" type="line" smooth="yes"/>
      <point x="179" y="-141"/>
      <point x="128" y="-200"/>
      <point x="70" y="-200" type="curve" smooth="yes"/>
      <point x="9" y="-200" type="line"/>
      <point x="20" y="-130" type="line"/>
      <point x="52" y="-130" type="line" smooth="yes"/>
      <point x="84" y="-130"/>
      <point x="103" y="-109"/>
    </contour>
  </outline>
</glyph>
<glyph name="asciitilde" format="2">
  <advance width="558"/>
  <unicode hex="007E"/>
  <outline>
    <contour>
      <point x="148" y="176" type="curve"/>
      <point x="76" y="181" type="line"/>
      <point x="76" y="189"/>
      <point x="75" y="198"/>
      <point x="76" y="206" type="curve" smooth="yes"/>
      <point x="80" y="229"/>
      <point x="92" y="253"/>
      <point x="110" y="275" type="curve" smooth="yes"/>
      <point x="138" y="307"/>
      <point x="177" y="326"/>
      <point x="219" y="326" type="curve" smooth="yes"/>
      <point x="259" y="326"/>
      <point x="296" y="307"/>
      <point x="332" y="279" type="curve" smooth="yes"/>
      <point x="354" y="261"/>
      <point x="376" y="248"/>
      <point x="396" y="248" type="curve" smooth="yes"/>
      <point x="424" y="248"/>
      <point x="441" y="269"/>
      <point x="446" y="296" type="curve" smooth="yes"/>
      <point x="448" y="304"/>
      <point x="448" y="313"/>
      <point x="446" y="323" type="curve"/>
      <point x="523" y="318" type="line"/>
      <point x="523" y="310"/>
      <point x="525" y="300"/>
      <point x="523" y="290" type="curve" smooth="yes"/>
      <point x="519" y="268"/>
      <point x="510" y="240"/>
      <point x="492" y="219" type="curve" smooth="yes"/>
      <point x="466" y="189"/>
      <point x="430" y="172"/>
      <point x="394" y="172" type="curve" smooth="yes"/>
      <point x="358" y="172"/>
      <point x="326" y="192"/>
      <point x="290" y="220" type="curve" smooth="yes"/>
      <point x="265" y="240"/>
      <point x="238" y="252"/>
      <point x="212" y="252" type="curve" smooth="yes"/>
      <point x="178" y="252"/>
      <point x="154" y="230"/>
      <point x="148" y="198" type="curve" smooth="yes"/>
      <point x="146" y="191"/>
      <point x="147" y="184"/>
    </contour>
  </outline>
</glyph>
<glyph name="exclamdown" format="2">
  <advance width="291"/>
  <unicode hex="00A1"/>
  <outline>
    <contour>
      <point x="126" y="-245" type="line"/>
      <point x="26" y="-245" type="line"/>
      <point x="132" y="254" type="line"/>
      <point x="192" y="254" type="line"/>
    </contour>
    <contour>
      <point x="243" y="414" type="curve" smooth="yes"/>
      <point x="240" y="387"/>
      <point x="209" y="358"/>
      <point x="181" y="360" type="curve" smooth="yes"/>
      <point x="153" y="362"/>
      <point x="133" y="388"/>
      <point x="136" y="416" type="curve" smooth="yes"/>
      <point x="139" y="443"/>
      <point x="170" y="472"/>
      <point x="198" y="470" type="curve" smooth="yes"/>
      <point x="226" y="468"/>
      <point x="246" y="442"/>
    </contour>
  </outline>
</glyph>
<glyph name="cent" format="2">
  <advance width="562"/>
  <unicode hex="00A2"/>
  <outline>
    <contour>
      <point x="250" y="38" type="line"/>
      <point x="314" y="38" type="line"/>
      <point x="288" y="-112" type="line"/>
      <point x="225" y="-112" type="line"/>
    </contour>
    <contour>
      <point x="170" y="230" type="curve" smooth="yes"/>
      <point x="156" y="145"/>
      <point x="201" y="68"/>
      <point x="291" y="66" type="curve" smooth="yes"/>
      <point x="363" y="65"/>
      <point x="427" y="104"/>
      <point x="463" y="148" type="curve"/>
      <point x="448" y="48" type="line"/>
      <point x="407" y="12"/>
      <point x="346" y="-10"/>
      <point x="284" y="-10" type="curve" smooth="yes"/>
      <point x="150" y="-10"/>
      <point x="72" y="102"/>
      <point x="90" y="230" type="curve" smooth="yes"/>
      <point x="110" y="363"/>
      <point x="224" y="470"/>
      <point x="360" y="470" type="curve" smooth="yes"/>
      <point x="419" y="470"/>
      <point x="474" y="448"/>
      <point x="508" y="410" type="curve"/>
      <point x="492" y="311" type="line"/>
      <point x="472" y="361"/>
      <point x="419" y="394"/>
      <point x="353" y="394" type="curve" smooth="yes"/>
      <point x="261" y="394"/>
      <point x="186" y="320"/>
    </contour>
    <contour>
      <point x="343" y="578" type="line"/>
      <point x="406" y="578" type="line"/>
      <point x="380" y="428" type="line"/>
      <point x="317" y="428" type="line"/>
    </contour>
  </outline>
</glyph>
<glyph name="sterling" format="2">
  <advance width="562"/>
  <unicode hex="00A3"/>
  <outline>
    <contour>
      <point x="100" y="370" type="line"/>
      <point x="452" y="370" type="line"/>
      <point x="438" y="295" type="line"/>
      <point x="87" y="295" type="line"/>
    </contour>
    <contour>
      <point x="492" y="480" type="line"/>
      <point x="496" y="547"/>
      <point x="478" y="624"/>
      <point x="394" y="626" type="curve" smooth="yes"/>
      <point x="331" y="628"/>
      <point x="271" y="588"/>
      <point x="259" y="520" type="curve" smooth="yes"/>
      <point x="242" y="420"/>
      <point x="321" y="363"/>
      <point x="308" y="264" type="curve" smooth="yes"/>
      <point x="293" y="160"/>
      <point x="214" y="79"/>
      <point x="128" y="51" type="curve"/>
      <point x="135" y="80" type="line"/>
      <point x="490" y="80" type="line"/>
      <point x="475" y="0" type="line"/>
      <point x="35" y="0" type="line"/>
      <point x="125" y="88"/>
      <point x="208" y="150"/>
      <point x="226" y="249" type="curve" smooth="yes"/>
      <point x="241" y="341"/>
      <point x="159" y="404"/>
      <point x="173" y="518" type="curve" smooth="yes"/>
      <point x="189" y="630"/>
      <point x="286" y="711"/>
      <point x="402" y="710" type="curve" smooth="yes"/>
      <point x="526" y="709"/>
      <point x="571" y="596"/>
      <point x="566" y="508" type="curve"/>
    </contour>
  </outline>
</glyph>
<glyph name="currency" format="2">
  <advance width="562"/>
  <unicode hex="00A4"/>
  <outline>
    <contour>
      <point x="94" y="504" type="line"/>
      <point x="150" y="552" type="line"/>
      <point x="226" y="458" type="line"/>
      <point x="172" y="410" type="line"/>
    </contour>
    <contour>
      <point x="66" y="48" type="line"/>
      <point x="24" y="99" type="line"/>
      <point x="131" y="190" type="line"/>
      <point x="172" y="139" type="line"/>
    </contour>
    <contour>
      <point x="480" y="410" type="line"/>
      <point x="438" y="461" type="line"/>
      <point x="544" y="552" type="line"/>
      <point x="586" y="501" type="line"/>
    </contour>
    <contour>
      <point x="384" y="142" type="line"/>
      <point x="440" y="190" type="line"/>
      <point x="516" y="96" type="line"/>
      <point x="461" y="48" type="line"/>
    </contour>
    <contour>
      <point x="74" y="300" type="curve" smooth="yes"/>
      <point x="94" y="432"/>
      <point x="208" y="540"/>
      <point x="344" y="540" type="curve" smooth="yes"/>
      <point x="478" y="540"/>
      <point x="556" y="428"/>
      <point x="538" y="300" type="curve" smooth="yes"/>
      <point x="518" y="168"/>
      <point x="404" y="60"/>
      <point x="268" y="60" type="curve" smooth="yes"/>
      <point x="134" y="60"/>
      <point x="56" y="172"/>
    </contour>
    <contour>
      <point x="154" y="300" type="curve" smooth="yes"/>
      <point x="140" y="216"/>
      <point x="184" y="136"/>
      <point x="274" y="136" type="curve" smooth="yes"/>
      <point x="366" y="136"/>
      <point x="443" y="210"/>
      <point x="458" y="300" type="curve" smooth="yes"/>
      <point x="472" y="384"/>
      <point x="426" y="464"/>
      <point x="336" y="464" type="curve" smooth="yes"/>
      <point x="244" y="464"/>
      <point x="169" y="390"/>
    </contour>
  </outline>
</glyph>
<glyph name="yen" format="2">
  <advance width="562"/>
  <unicode hex="00A5"/>
  <outline>
    <contour>
      <point x="66" y="290" type="line"/>
      <point x="79" y="365" type="line"/>
      <point x="551" y="365" type="line"/>
      <point x="538" y="290" type="line"/>
    </contour>
    <contour>
      <point x="41" y="140" type="line"/>
      <point x="53" y="215" type="line"/>
      <point x="526" y="215" type="line"/>
      <point x="513" y="140" type="line"/>
    </contour>
    <contour>
      <point x="548" y="700" type="line"/>
      <point x="644" y="700" type="line"/>
      <point x="350" y="304" type="line"/>
      <point x="298" y="0" type="line"/>
      <point x="212" y="0" type="line"/>
      <point x="266" y="306" type="line"/>
      <point x="108" y="700" type="line"/>
      <point x="198" y="700" type="line"/>
      <point x="317" y="378" type="line"/>
    </contour>
  </outline>
</glyph>
<glyph name="section" format="2">
  <advance width="395"/>
  <unicode hex="00A7"/>
  <outline>
    <contour>
      <point x="374" y="580" type="line"/>
      <point x="356" y="615"/>
      <point x="324" y="634"/>
      <point x="286" y="634" type="curve" smooth="yes"/>
      <point x="252" y="634"/>
      <point x="214" y="619"/>
      <point x="208" y="588" type="curve" smooth="yes"/>
      <point x="200" y="548"/>
      <point x="261" y="524"/>
      <point x="301" y="506" type="curve" smooth="yes"/>
      <point x="359" y="478"/>
      <point x="413" y="436"/>
      <point x="404" y="370" type="curve" smooth="yes"/>
      <point x="391" y="274"/>
      <point x="310" y="244"/>
      <point x="218" y="241" type="curve"/>
      <point x="223" y="275" type="line"/>
      <point x="270" y="282"/>
      <point x="315" y="319"/>
      <point x="322" y="363" type="curve" smooth="yes"/>
      <point x="329" y="413"/>
      <point x="283" y="434"/>
      <point x="238" y="454" type="curve" smooth="yes"/>
      <point x="180" y="481"/>
      <point x="120" y="518"/>
      <point x="130" y="590" type="curve" smooth="yes"/>
      <point x="141" y="664"/>
      <point x="220" y="710"/>
      <point x="293" y="710" type="curve" smooth="yes"/>
      <point x="362" y="710"/>
      <point x="423" y="675"/>
      <point x="442" y="619" type="curve"/>
    </contour>
    <contour>
      <point x="92" y="160" type="line"/>
      <point x="100" y="107"/>
      <point x="133" y="66"/>
      <point x="190" y="66" type="curve" smooth="yes"/>
      <point x="234" y="66"/>
      <point x="273" y="85"/>
      <point x="280" y="124" type="curve" smooth="yes"/>
      <point x="289" y="174"/>
      <point x="240" y="195"/>
      <point x="196" y="215" type="curve" smooth="yes"/>
      <point x="137" y="243"/>
      <point x="80" y="288"/>
      <point x="90" y="360" type="curve" smooth="yes"/>
      <point x="104" y="443"/>
      <point x="178" y="476"/>
      <point x="276" y="479" type="curve"/>
      <point x="272" y="454" type="line"/>
      <point x="220" y="436"/>
      <point x="179" y="413"/>
      <point x="170" y="369" type="curve" smooth="yes"/>
      <point x="160" y="308"/>
      <point x="214" y="288"/>
      <point x="260" y="266" type="curve" smooth="yes"/>
      <point x="318" y="238"/>
      <point x="370" y="196"/>
      <point x="362" y="130" type="curve" smooth="yes"/>
      <point x="350" y="37"/>
      <point x="270" y="-11"/>
      <point x="178" y="-10" type="curve" smooth="yes"/>
      <point x="94" y="-9"/>
      <point x="31" y="48"/>
      <point x="22" y="124" type="curve"/>
    </contour>
  </outline>
</glyph>
<glyph name="dieresis" format="2">
  <advance width="456"/>
  <unicode hex="00A8"/>
  <outline>
    <contour>
      <point x="356" y="661" type="curve" smooth="yes"/>
      <point x="358" y="688"/>
      <point x="389" y="716"/>
      <point x="417" y="714" type="curve" smooth="yes"/>
      <point x="445" y="712"/>
      <point x="466" y="687"/>
      <point x="464" y="659" type="curve" smooth="yes"/>
      <point x="462" y="632"/>
      <point x="430" y="604"/>
      <point x="402" y="606" type="curve" smooth="yes"/>
      <point x="374" y="608"/>
      <point x="354" y="633"/>
    </contour>
    <contour>
      <point x="162" y="661" type="curve" smooth="yes"/>
      <point x="164" y="688"/>
      <point x="195" y="716"/>
      <point x="223" y="714" type="curve" smooth="yes"/>
      <point x="251" y="712"/>
      <point x="272" y="687"/>
      <point x="270" y="659" type="curve" smooth="yes"/>
      <point x="268" y="632"/>
      <point x="236" y="604"/>
      <point x="208" y="606" type="curve" smooth="yes"/>
      <point x="180" y="608"/>
      <point x="160" y="633"/>
    </contour>
  </outline>
</glyph>
<glyph name="copyright" format="2">
  <advance width="776"/>
  <unicode hex="00A9"/>
  <outline>
    <contour>
      <point x="269" y="350" type="curve" smooth="yes"/>
      <point x="257" y="264"/>
      <point x="302" y="187"/>
      <point x="392" y="186" type="curve" smooth="yes"/>
      <point x="450" y="185"/>
      <point x="499" y="212"/>
      <point x="535" y="246" type="curve"/>
      <point x="526" y="180" type="line"/>
      <point x="487" y="152"/>
      <point x="446" y="134"/>
      <point x="390" y="134" type="curve" smooth="yes"/>
      <point x="274" y="134"/>
      <point x="201" y="236"/>
      <point x="216" y="350" type="curve" smooth="yes"/>
      <point x="232" y="468"/>
      <point x="333" y="565"/>
      <point x="451" y="566" type="curve" smooth="yes"/>
      <point x="505" y="566"/>
      <point x="543" y="550"/>
      <point x="578" y="520" type="curve"/>
      <point x="568" y="453" type="line"/>
      <point x="540" y="491"/>
      <point x="502" y="514"/>
      <point x="448" y="514" type="curve" smooth="yes"/>
      <point x="358" y="514"/>
      <point x="283" y="441"/>
    </contour>
    <contour>
      <point x="130" y="350" type="curve" smooth="yes"/>
      <point x="106" y="188"/>
      <point x="202" y="40"/>
      <point x="374" y="40" type="curve" smooth="yes"/>
      <point x="548" y="40"/>
      <point x="694" y="180"/>
      <point x="720" y="350" type="curve" smooth="yes"/>
      <point x="744" y="512"/>
      <point x="648" y="660"/>
      <point x="476" y="660" type="curve" smooth="yes"/>
      <point x="302" y="660"/>
      <point x="156" y="520"/>
    </contour>
    <contour>
      <point x="74" y="350" type="curve" smooth="yes"/>
      <point x="102" y="550"/>
      <point x="274" y="710"/>
      <point x="478" y="710" type="curve" smooth="yes"/>
      <point x="679" y="710"/>
      <point x="801" y="542"/>
      <point x="775" y="350" type="curve" smooth="yes"/>
      <point x="747" y="150"/>
      <point x="576" y="-10"/>
      <point x="372" y="-10" type="curve" smooth="yes"/>
      <point x="171" y="-10"/>
      <point x="48" y="158"/>
    </contour>
  </outline>
</glyph>
<glyph name="ordfeminine" format="2">
  <advance width="230"/>
  <unicode hex="00AA"/>
  <outline>
    <contour>
      <point x="122" y="532" type="curve" smooth="yes"/>
      <point x="120" y="510"/>
      <point x="134" y="493"/>
      <point x="162" y="492" type="curve" smooth="yes"/>
      <point x="199" y="490"/>
      <point x="229" y="515"/>
      <point x="240" y="550" type="curve"/>
      <point x="244" y="524" type="line"/>
      <point x="232" y="484"/>
      <point x="197" y="455"/>
      <point x="149" y="456" type="curve" smooth="yes"/>
      <point x="107" y="457"/>
      <point x="76" y="489"/>
      <point x="82" y="533" type="curve" smooth="yes"/>
      <point x="90" y="580"/>
      <point x="142" y="612"/>
      <point x="190" y="612" type="curve" smooth="yes"/>
      <point x="226" y="612"/>
      <point x="248" y="595"/>
      <point x="262" y="582" type="curve"/>
      <point x="258" y="559" type="line"/>
      <point x="238" y="573"/>
      <point x="216" y="583"/>
      <point x="190" y="583" type="curve" smooth="yes"/>
      <point x="158" y="583"/>
      <point x="126" y="560"/>
    </contour>
    <contour>
      <point x="143" y="646" type="curve"/>
      <point x="129" y="678" type="line"/>
      <point x="151" y="690"/>
      <point x="182" y="705"/>
      <point x="218" y="705" type="curve" smooth="yes"/>
      <point x="265" y="705"/>
      <point x="297" y="678"/>
      <point x="293" y="634" type="curve"/>
      <point x="264" y="460" type="line"/>
      <point x="224" y="460" type="line"/>
      <point x="254" y="635" type="line"/>
      <point x="251" y="656"/>
      <point x="239" y="667"/>
      <point x="215" y="669" type="curve" smooth="yes"/>
      <point x="186" y="671"/>
      <point x="159" y="655"/>
    </contour>
  </outline>
</glyph>
<glyph name="guillemotleft" format="2">
  <advance width="494"/>
  <unicode hex="00AB"/>
  <outline>
    <contour>
      <point x="298" y="258" type="line"/>
      <point x="412" y="64" type="line"/>
      <point x="356" y="20" type="line"/>
      <point x="210" y="258" type="line"/>
      <point x="434" y="490" type="line"/>
      <point x="476" y="444" type="line"/>
    </contour>
    <contour>
      <point x="143" y="258" type="line"/>
      <point x="256" y="64" type="line"/>
      <point x="201" y="20" type="line"/>
      <point x="55" y="258" type="line"/>
      <point x="278" y="490" type="line"/>
      <point x="322" y="444" type="line"/>
    </contour>
  </outline>
</glyph>
<glyph name="logicalnot" format="2">
  <advance width="601"/>
  <unicode hex="00AC"/>
  <outline>
    <contour>
      <point x="86" y="300" type="line"/>
      <point x="100" y="375" type="line"/>
      <point x="577" y="375" type="line"/>
      <point x="542" y="176" type="line"/>
      <point x="468" y="176" type="line"/>
      <point x="490" y="300" type="line"/>
    </contour>
  </outline>
</glyph>
<glyph name="registered" format="2">
  <advance width="776"/>
  <unicode hex="00AE"/>
  <outline>
    <contour>
      <point x="376" y="358" type="line"/>
      <point x="430" y="358" type="line"/>
      <point x="546" y="150" type="line"/>
      <point x="486" y="150" type="line"/>
    </contour>
    <contour>
      <point x="336" y="570" type="line"/>
      <point x="386" y="570" type="line"/>
      <point x="322" y="150" type="line"/>
      <point x="272" y="150" type="line"/>
    </contour>
    <contour>
      <point x="356" y="525" type="line"/>
      <point x="363" y="570" type="line"/>
      <point x="446" y="570" type="line"/>
      <point x="522" y="568"/>
      <point x="578" y="519"/>
      <point x="568" y="444" type="curve" smooth="yes"/>
      <point x="558" y="368"/>
      <point x="488" y="320"/>
      <point x="410" y="318" type="curve"/>
      <point x="324" y="318" type="line"/>
      <point x="331" y="362" type="line"/>
      <point x="414" y="363" type="line"/>
      <point x="465" y="365"/>
      <point x="509" y="394"/>
      <point x="517" y="444" type="curve" smooth="yes"/>
      <point x="524" y="493"/>
      <point x="491" y="522"/>
      <point x="442" y="524" type="curve"/>
    </contour>
    <contour>
      <point x="130" y="350" type="curve" smooth="yes"/>
      <point x="106" y="188"/>
      <point x="202" y="40"/>
      <point x="374" y="40" type="curve" smooth="yes"/>
      <point x="548" y="40"/>
      <point x="694" y="180"/>
      <point x="720" y="350" type="curve" smooth="yes"/>
      <point x="744" y="512"/>
      <point x="648" y="660"/>
      <point x="476" y="660" type="curve" smooth="yes"/>
      <point x="302" y="660"/>
      <point x="156" y="520"/>
    </contour>
    <contour>
      <point x="74" y="350" type="curve" smooth="yes"/>
      <point x="102" y="550"/>
      <point x="274" y="710"/>
      <point x="478" y="710" type="curve" smooth="yes"/>
      <point x="679" y="710"/>
      <point x="801" y="542"/>
      <point x="775" y="350" type="curve" smooth="yes"/>
      <point x="747" y="150"/>
      <point x="576" y="-10"/>
      <point x="372" y="-10" type="curve" smooth="yes"/>
      <point x="171" y="-10"/>
      <point x="48" y="158"/>
    </contour>
  </outline>
</glyph>
<glyph name="macron" format="2">
  <advance width="494"/>
  <unicode hex="00AF"/>
  <outline>
    <contour>
      <point x="153" y="600" type="line"/>
      <point x="164" y="675" type="line"/>
      <point x="506" y="675" type="line"/>
      <point x="494" y="600" type="line"/>
    </contour>
  </outline>
</glyph>
<glyph name="degree" format="2">
  <advance width="269"/>
  <unicode hex="00B0"/>
  <outline>
    <contour>
      <point x="94" y="600" type="curve" smooth="yes"/>
      <point x="104" y="666"/>
      <point x="161" y="720"/>
      <point x="228" y="720" type="curve" smooth="yes"/>
      <point x="295" y="720"/>
      <point x="335" y="664"/>
      <point x="326" y="600" type="curve" smooth="yes"/>
      <point x="316" y="534"/>
      <point x="259" y="480"/>
      <point x="192" y="480" type="curve" smooth="yes"/>
      <point x="125" y="480"/>
      <point x="85" y="536"/>
    </contour>
    <contour>
      <point x="134" y="600" type="curve" smooth="yes"/>
      <point x="128" y="558"/>
      <point x="150" y="518"/>
      <point x="194" y="518" type="curve" smooth="yes"/>
      <point x="239" y="518"/>
      <point x="279" y="556"/>
      <point x="287" y="600" type="curve" smooth="yes"/>
      <point x="293" y="642"/>
      <point x="270" y="682"/>
      <point x="226" y="682" type="curve" smooth="yes"/>
      <point x="181" y="682"/>
      <point x="142" y="644"/>
    </contour>
  </outline>
</glyph>
<glyph name="plusminus" format="2">
  <advance width="596"/>
  <unicode hex="00B1"/>
  <outline>
    <contour>
      <point x="46" y="0" type="line"/>
      <point x="58" y="80" type="line"/>
      <point x="530" y="80" type="line"/>
      <point x="518" y="0" type="line"/>
    </contour>
    <contour>
      <point x="100" y="345" type="line"/>
      <point x="112" y="425" type="line"/>
      <point x="584" y="425" type="line"/>
      <point x="571" y="345" type="line"/>
    </contour>
    <contour>
      <point x="334" y="620" type="line"/>
      <point x="420" y="620" type="line"/>
      <point x="346" y="150" type="line"/>
      <point x="264" y="150" type="line"/>
    </contour>
  </outline>
</glyph>
<glyph name="uni00B2" format="2">
  <advance width="335"/>
  <unicode hex="00B2"/>
  <outline>
    <contour>
      <point x="45" y="283" type="line"/>
      <point x="272" y="494" type="line" smooth="yes"/>
      <point x="300" y="520"/>
      <point x="326" y="550"/>
      <point x="332" y="586" type="curve" smooth="yes"/>
      <point x="338" y="622"/>
      <point x="320" y="658"/>
      <point x="274" y="660" type="curve" smooth="yes"/>
      <point x="217" y="663"/>
      <point x="178" y="613"/>
      <point x="166" y="559" type="curve"/>
      <point x="115" y="559" type="line"/>
      <point x="132" y="640"/>
      <point x="189" y="709"/>
      <point x="277" y="708" type="curve" smooth="yes"/>
      <point x="359" y="708"/>
      <point x="392" y="642"/>
      <point x="382" y="582" type="curve" smooth="yes"/>
      <point x="374" y="537"/>
      <point x="345" y="498"/>
      <point x="310" y="466" type="curve" smooth="yes"/>
      <point x="158" y="330" type="line"/>
      <point x="341" y="330" type="line"/>
      <point x="333" y="282" type="line"/>
    </contour>
  </outline>
</glyph>
<glyph name="uni00B3" format="2">
  <advance width="302"/>
  <unicode hex="00B3"/>
  <outline>
    <contour>
      <point x="192" y="488" type="curve"/>
      <point x="198" y="520" type="line"/>
      <point x="247" y="525"/>
      <point x="286" y="549"/>
      <point x="294" y="593" type="curve" smooth="yes"/>
      <point x="300" y="628"/>
      <point x="283" y="658"/>
      <point x="245" y="660" type="curve" smooth="yes"/>
      <point x="205" y="662"/>
      <point x="175" y="629"/>
      <point x="165" y="597" type="curve"/>
      <point x="116" y="598" type="line"/>
      <point x="131" y="658"/>
      <point x="179" y="707"/>
      <point x="248" y="706" type="curve" smooth="yes"/>
      <point x="315" y="705"/>
      <point x="354" y="652"/>
      <point x="344" y="594" type="curve" smooth="yes"/>
      <point x="332" y="528"/>
      <point x="266" y="492"/>
    </contour>
    <contour>
      <point x="176" y="274" type="curve" smooth="yes"/>
      <point x="98" y="274"/>
      <point x="59" y="325"/>
      <point x="63" y="391" type="curve"/>
      <point x="114" y="391" type="line"/>
      <point x="114" y="353"/>
      <point x="134" y="323"/>
      <point x="180" y="322" type="curve" smooth="yes"/>
      <point x="226" y="321"/>
      <point x="265" y="355"/>
      <point x="271" y="398" type="curve" smooth="yes"/>
      <point x="279" y="450"/>
      <point x="238" y="471"/>
      <point x="190" y="475" type="curve"/>
      <point x="196" y="508" type="line"/>
      <point x="270" y="504"/>
      <point x="334" y="471"/>
      <point x="322" y="390" type="curve" smooth="yes"/>
      <point x="312" y="322"/>
      <point x="248" y="274"/>
    </contour>
  </outline>
</glyph>
<glyph name="acute" format="2">
  <advance width="363"/>
  <unicode hex="00B4"/>
  <outline>
    <contour>
      <point x="376" y="658" type="line"/>
      <point x="180" y="511" type="line"/>
      <point x="138" y="542" type="line"/>
      <point x="307" y="700" type="line"/>
    </contour>
  </outline>
</glyph>
<glyph name="mu" format="2">
  <advance width="509"/>
  <unicode hex="00B5"/>
  <outline>
    <contour>
      <point x="204" y="460" type="line"/>
      <point x="151" y="169" type="line" smooth="yes"/>
      <point x="144" y="110"/>
      <point x="165" y="66"/>
      <point x="226" y="66" type="curve" smooth="yes"/>
      <point x="295" y="67"/>
      <point x="350" y="113"/>
      <point x="360" y="176" type="curve" smooth="yes"/>
      <point x="410" y="460" type="line"/>
      <point x="490" y="460" type="line"/>
      <point x="410" y="0" type="line"/>
      <point x="330" y="0" type="line"/>
      <point x="340" y="60" type="line"/>
      <point x="305" y="18"/>
      <point x="257" y="-10"/>
      <point x="200" y="-10" type="curve" smooth="yes"/>
      <point x="170" y="-10"/>
      <point x="145" y="-3"/>
      <point x="126" y="10" type="curve"/>
      <point x="68" y="-320" type="line"/>
      <point x="-8" y="-320" type="line"/>
      <point x="123" y="460" type="line"/>
    </contour>
  </outline>
</glyph>
<glyph name="paragraph" format="2">
  <advance width="560"/>
  <unicode hex="00B6"/>
  <outline>
    <contour>
      <point x="298" y="271" type="line"/>
      <point x="177" y="278"/>
      <point x="94" y="357"/>
      <point x="113" y="486" type="curve" smooth="yes"/>
      <point x="134" y="620"/>
      <point x="243" y="700"/>
      <point x="371" y="700" type="curve" smooth="yes"/>
      <point x="596" y="700" type="line"/>
      <point x="439" y="-220" type="line"/>
      <point x="370" y="-220" type="line"/>
      <point x="516" y="636" type="line"/>
      <point x="429" y="636" type="line"/>
      <point x="284" y="-220" type="line"/>
      <point x="214" y="-220" type="line"/>
    </contour>
  </outline>
</glyph>
<glyph name="periodcentered" format="2">
  <advance width="291"/>
  <unicode hex="00B7"/>
  <outline>
    <contour>
      <point x="106" y="241" type="curve" smooth="yes"/>
      <point x="109" y="268"/>
      <point x="140" y="296"/>
      <point x="168" y="294" type="curve" smooth="yes"/>
      <point x="196" y="292"/>
      <point x="217" y="267"/>
      <point x="214" y="239" type="curve" smooth="yes"/>
      <point x="211" y="212"/>
      <point x="179" y="184"/>
      <point x="151" y="186" type="curve" smooth="yes"/>
      <point x="123" y="188"/>
      <point x="103" y="213"/>
    </contour>
  </outline>
</glyph>
<glyph name="cedilla" format="2">
  <advance width="339"/>
  <unicode hex="00B8"/>
  <outline>
    <contour>
      <point x="172" y="59" type="line"/>
      <point x="233" y="59" type="line"/>
      <point x="151" y="-52" type="line"/>
      <point x="153" y="-52"/>
      <point x="156" y="-52"/>
      <point x="158" y="-52" type="curve" smooth="yes"/>
      <point x="194" y="-56"/>
      <point x="223" y="-83"/>
      <point x="219" y="-127" type="curve" smooth="yes"/>
      <point x="213" y="-184"/>
      <point x="154" y="-220"/>
      <point x="100" y="-220" type="curve" smooth="yes"/>
      <point x="64" y="-220"/>
      <point x="43" y="-206"/>
      <point x="18" y="-180" type="curve"/>
      <point x="56" y="-142" type="line"/>
      <point x="72" y="-156"/>
      <point x="84" y="-166"/>
      <point x="106" y="-166" type="curve" smooth="yes"/>
      <point x="134" y="-166"/>
      <point x="160" y="-149"/>
      <point x="163" y="-126" type="curve" smooth="yes"/>
      <point x="166" y="-104"/>
      <point x="148" y="-90"/>
      <point x="122" y="-90" type="curve" smooth="yes"/>
      <point x="106" y="-89"/>
      <point x="82" y="-97"/>
      <point x="62" y="-107" type="curve"/>
    </contour>
  </outline>
</glyph>
<glyph name="uni00B9" format="2">
  <advance width="456"/>
  <unicode hex="00B9"/>
  <outline>
    <contour>
      <point x="225" y="612" type="line"/>
      <point x="233" y="664" type="line"/>
      <point x="382" y="700" type="line"/>
      <point x="308" y="274" type="line"/>
      <point x="257" y="274" type="line"/>
      <point x="318" y="638" type="line"/>
    </contour>
  </outline>
</glyph>
<glyph name="ordmasculine" format="2">
  <advance width="269"/>
  <unicode hex="00BA"/>
  <outline>
    <contour>
      <point x="90" y="580" type="curve" smooth="yes"/>
      <point x="100" y="646"/>
      <point x="158" y="700"/>
      <point x="225" y="700" type="curve" smooth="yes"/>
      <point x="292" y="700"/>
      <point x="332" y="644"/>
      <point x="323" y="580" type="curve" smooth="yes"/>
      <point x="313" y="514"/>
      <point x="255" y="460"/>
      <point x="188" y="460" type="curve" smooth="yes"/>
      <point x="121" y="460"/>
      <point x="81" y="516"/>
    </contour>
    <contour>
      <point x="130" y="580" type="curve" smooth="yes"/>
      <point x="124" y="538"/>
      <point x="146" y="498"/>
      <point x="190" y="498" type="curve" smooth="yes"/>
      <point x="235" y="498"/>
      <point x="276" y="536"/>
      <point x="284" y="580" type="curve" smooth="yes"/>
      <point x="290" y="622"/>
      <point x="267" y="662"/>
      <point x="223" y="662" type="curve" smooth="yes"/>
      <point x="178" y="662"/>
      <point x="138" y="624"/>
    </contour>
  </outline>
</glyph>
<glyph name="guillemotright" format="2">
  <advance width="494"/>
  <unicode hex="00BB"/>
  <outline>
    <contour>
      <point x="229" y="252" type="line"/>
      <point x="116" y="446" type="line"/>
      <point x="171" y="490" type="line"/>
      <point x="318" y="252" type="line"/>
      <point x="94" y="20" type="line"/>
      <point x="51" y="66" type="line"/>
    </contour>
    <contour>
      <point x="384" y="252" type="line"/>
      <point x="272" y="446" type="line"/>
      <point x="326" y="490" type="line"/>
      <point x="472" y="252" type="line"/>
      <point x="250" y="20" type="line"/>
      <point x="206" y="66" type="line"/>
    </contour>
  </outline>
</glyph>
<glyph name="onequarter" format="2">
  <advance width="731"/>
  <unicode hex="00BC"/>
  <outline>
    <contour>
      <point x="690" y="699" type="line"/>
      <point x="756" y="698" type="line"/>
      <point x="133" y="0" type="line"/>
      <point x="68" y="0" type="line"/>
    </contour>
    <contour>
      <point x="106" y="612" type="line"/>
      <point x="114" y="664" type="line"/>
      <point x="263" y="700" type="line"/>
      <point x="190" y="274" type="line"/>
      <point x="138" y="274" type="line"/>
      <point x="200" y="638" type="line"/>
    </contour>
    <contour>
      <point x="374" y="85" type="line"/>
      <point x="420" y="128" type="line"/>
      <point x="596" y="129" type="line"/>
      <point x="606" y="129" type="line"/>
      <point x="692" y="128" type="line"/>
      <point x="684" y="84" type="line"/>
    </contour>
    <contour>
      <point x="428" y="85" type="line"/>
      <point x="373" y="86" type="line"/>
      <point x="656" y="419" type="line"/>
      <point x="678" y="420" type="line"/>
      <point x="606" y="0" type="line"/>
      <point x="556" y="0" type="line"/>
      <point x="574" y="106" type="line"/>
      <point x="574" y="112" type="line"/>
      <point x="607" y="302" type="line"/>
    </contour>
  </outline>
</glyph>
<glyph name="onehalf" format="2">
  <advance width="794"/>
  <unicode hex="00BD"/>
  <outline>
    <contour>
      <point x="690" y="699" type="line"/>
      <point x="756" y="698" type="line"/>
      <point x="133" y="0" type="line"/>
      <point x="68" y="0" type="line"/>
    </contour>
    <contour>
      <point x="106" y="612" type="line"/>
      <point x="114" y="664" type="line"/>
      <point x="263" y="700" type="line"/>
      <point x="190" y="274" type="line"/>
      <point x="138" y="274" type="line"/>
      <point x="200" y="638" type="line"/>
    </contour>
    <contour>
      <point x="452" y="3" type="line"/>
      <point x="678" y="214" type="line" smooth="yes"/>
      <point x="706" y="240"/>
      <point x="732" y="270"/>
      <point x="738" y="306" type="curve" smooth="yes"/>
      <point x="744" y="342"/>
      <point x="726" y="378"/>
      <point x="680" y="380" type="curve" smooth="yes"/>
      <point x="623" y="383"/>
      <point x="584" y="333"/>
      <point x="572" y="279" type="curve"/>
      <point x="522" y="279" type="line"/>
      <point x="539" y="360"/>
      <point x="595" y="429"/>
      <point x="683" y="428" type="curve" smooth="yes"/>
      <point x="765" y="428"/>
      <point x="799" y="362"/>
      <point x="789" y="302" type="curve" smooth="yes"/>
      <point x="781" y="257"/>
      <point x="751" y="218"/>
      <point x="716" y="186" type="curve" smooth="yes"/>
      <point x="564" y="50" type="line"/>
      <point x="748" y="50" type="line"/>
      <point x="740" y="2" type="line"/>
    </contour>
  </outline>
</glyph>
<glyph name="threequarters" format="2">
  <advance width="795"/>
  <unicode hex="00BE"/>
  <outline>
    <contour>
      <point x="755" y="699" type="line"/>
      <point x="820" y="698" type="line"/>
      <point x="198" y="0" type="line"/>
      <point x="132" y="0" type="line"/>
    </contour>
    <contour>
      <point x="198" y="488" type="curve"/>
      <point x="202" y="520" type="line"/>
      <point x="251" y="525"/>
      <point x="290" y="549"/>
      <point x="298" y="593" type="curve" smooth="yes"/>
      <point x="304" y="628"/>
      <point x="288" y="658"/>
      <point x="250" y="660" type="curve" smooth="yes"/>
      <point x="210" y="662"/>
      <point x="180" y="629"/>
      <point x="170" y="597" type="curve"/>
      <point x="120" y="598" type="line"/>
      <point x="135" y="658"/>
      <point x="184" y="707"/>
      <point x="253" y="706" type="curve" smooth="yes"/>
      <point x="320" y="705"/>
      <point x="360" y="652"/>
      <point x="350" y="594" type="curve" smooth="yes"/>
      <point x="338" y="528"/>
      <point x="272" y="492"/>
    </contour>
    <contour>
      <point x="182" y="274" type="curve" smooth="yes"/>
      <point x="104" y="274"/>
      <point x="64" y="325"/>
      <point x="68" y="391" type="curve"/>
      <point x="118" y="391" type="line"/>
      <point x="118" y="353"/>
      <point x="138" y="323"/>
      <point x="184" y="322" type="curve" smooth="yes"/>
      <point x="230" y="321"/>
      <point x="270" y="355"/>
      <point x="276" y="398" type="curve" smooth="yes"/>
      <point x="284" y="450"/>
      <point x="243" y="471"/>
      <point x="195" y="475" type="curve"/>
      <point x="200" y="508" type="line"/>
      <point x="274" y="504"/>
      <point x="339" y="471"/>
      <point x="327" y="390" type="curve" smooth="yes"/>
      <point x="317" y="322"/>
      <point x="254" y="274"/>
    </contour>
    <contour>
      <point x="438" y="85" type="line"/>
      <point x="484" y="128" type="line"/>
      <point x="661" y="129" type="line"/>
      <point x="671" y="129" type="line"/>
      <point x="757" y="128" type="line"/>
      <point x="750" y="84" type="line"/>
    </contour>
    <contour>
      <point x="492" y="85" type="line"/>
      <point x="438" y="86" type="line"/>
      <point x="720" y="419" type="line"/>
      <point x="742" y="420" type="line"/>
      <point x="672" y="0" type="line"/>
      <point x="620" y="0" type="line"/>
      <point x="638" y="106" type="line"/>
      <point x="640" y="112" type="line"/>
      <point x="672" y="302" type="line"/>
    </contour>
  </outline>
</glyph>
<glyph name="questiondown" format="2">
  <advance width="540"/>
  <unicode hex="00BF"/>
  <outline>
    <contour>
      <point x="144" y="200" type="curve" smooth="yes"/>
      <point x="130" y="122"/>
      <point x="176" y="66"/>
      <point x="260" y="66" type="curve" smooth="yes"/>
      <point x="326" y="66"/>
      <point x="378" y="102"/>
      <point x="416" y="148" type="curve"/>
      <point x="474" y="106" type="line"/>
      <point x="418" y="40"/>
      <point x="352" y="-11"/>
      <point x="244" y="-10" type="curve" smooth="yes"/>
      <point x="124" y="-9"/>
      <point x="47" y="87"/>
      <point x="64" y="200" type="curve" smooth="yes"/>
      <point x="83" y="316"/>
      <point x="190" y="396"/>
      <point x="304" y="410" type="curve"/>
      <point x="333" y="530" type="line"/>
      <point x="392" y="530" type="line"/>
      <point x="384" y="355" type="line"/>
      <point x="359" y="355" type="line"/>
      <point x="251" y="353"/>
      <point x="162" y="285"/>
    </contour>
    <contour>
      <point x="438" y="659" type="curve" smooth="yes"/>
      <point x="435" y="632"/>
      <point x="403" y="604"/>
      <point x="375" y="606" type="curve" smooth="yes"/>
      <point x="347" y="608"/>
      <point x="327" y="633"/>
      <point x="330" y="661" type="curve" smooth="yes"/>
      <point x="333" y="688"/>
      <point x="364" y="716"/>
      <point x="392" y="714" type="curve" smooth="yes"/>
      <point x="420" y="712"/>
      <point x="441" y="687"/>
    </contour>
  </outline>
</glyph>
<glyph name="Agrave" format="2">
  <advance width="640"/>
  <unicode hex="00C0"/>
  <outline>
    <contour>
      <point x="152" y="211" type="line"/>
      <point x="193" y="290" type="line"/>
      <point x="496" y="290" type="line"/>
      <point x="512" y="210" type="line"/>
    </contour>
    <contour>
      <point x="388" y="542" type="line"/>
      <point x="226" y="264" type="line"/>
      <point x="215" y="246" type="line"/>
      <point x="71" y="0" type="line"/>
      <point x="-25" y="0" type="line"/>
      <point x="418" y="736" type="line"/>
      <point x="608" y="0" type="line"/>
      <point x="516" y="0" type="line"/>
      <point x="458" y="240" type="line"/>
      <point x="454" y="260" type="line"/>
    </contour>
    <contour>
      <point x="328" y="946" type="line"/>
      <point x="406" y="985" type="line"/>
      <point x="527" y="824" type="line"/>
      <point x="480" y="795" type="line"/>
    </contour>
  </outline>
</glyph>
<glyph name="Acircumflex" format="2">
  <advance width="640"/>
  <unicode hex="00C2"/>
  <outline>
    <contour>
      <point x="152" y="211" type="line"/>
      <point x="193" y="290" type="line"/>
      <point x="496" y="290" type="line"/>
      <point x="512" y="210" type="line"/>
    </contour>
    <contour>
      <point x="388" y="542" type="line"/>
      <point x="226" y="264" type="line"/>
      <point x="215" y="246" type="line"/>
      <point x="71" y="0" type="line"/>
      <point x="-25" y="0" type="line"/>
      <point x="418" y="736" type="line"/>
      <point x="608" y="0" type="line"/>
      <point x="516" y="0" type="line"/>
      <point x="458" y="240" type="line"/>
      <point x="454" y="260" type="line"/>
    </contour>
    <contour>
      <point x="441" y="850" type="line"/>
      <point x="317" y="756" type="line"/>
      <point x="272" y="796" type="line"/>
      <point x="451" y="935" type="line"/>
      <point x="585" y="794" type="line"/>
      <point x="531" y="756" type="line"/>
    </contour>
  </outline>
</glyph>
<glyph name="Atilde" format="2">
  <advance width="640"/>
  <unicode hex="00C3"/>
  <outline>
    <contour>
      <point x="152" y="211" type="line"/>
      <point x="193" y="290" type="line"/>
      <point x="496" y="290" type="line"/>
      <point x="512" y="210" type="line"/>
    </contour>
    <contour>
      <point x="388" y="542" type="line"/>
      <point x="226" y="264" type="line"/>
      <point x="215" y="246" type="line"/>
      <point x="71" y="0" type="line"/>
      <point x="-25" y="0" type="line"/>
      <point x="418" y="736" type="line"/>
      <point x="608" y="0" type="line"/>
      <point x="516" y="0" type="line"/>
      <point x="458" y="240" type="line"/>
      <point x="454" y="260" type="line"/>
    </contour>
    <contour>
      <point x="270" y="814" type="line"/>
      <point x="290" y="856"/>
      <point x="336" y="896"/>
      <point x="384" y="894" type="curve" smooth="yes"/>
      <point x="436" y="893"/>
      <point x="450" y="846"/>
      <point x="496" y="848" type="curve" smooth="yes"/>
      <point x="520" y="849"/>
      <point x="540" y="870"/>
      <point x="560" y="894" type="curve"/>
      <point x="600" y="850" type="line"/>
      <point x="577" y="816"/>
      <point x="535" y="778"/>
      <point x="486" y="780" type="curve" smooth="yes"/>
      <point x="440" y="782"/>
      <point x="418" y="827"/>
      <point x="376" y="826" type="curve" smooth="yes"/>
      <point x="340" y="825"/>
      <point x="326" y="794"/>
      <point x="318" y="776" type="curve"/>
    </contour>
  </outline>
</glyph>
<glyph name="Adieresis" format="2">
  <advance width="640"/>
  <unicode hex="00C4"/>
  <outline>
    <contour>
      <point x="152" y="211" type="line"/>
      <point x="193" y="290" type="line"/>
      <point x="496" y="290" type="line"/>
      <point x="512" y="210" type="line"/>
    </contour>
    <contour>
      <point x="388" y="542" type="line"/>
      <point x="226" y="264" type="line"/>
      <point x="215" y="246" type="line"/>
      <point x="71" y="0" type="line"/>
      <point x="-25" y="0" type="line"/>
      <point x="418" y="736" type="line"/>
      <point x="608" y="0" type="line"/>
      <point x="516" y="0" type="line"/>
      <point x="458" y="240" type="line"/>
      <point x="454" y="260" type="line"/>
    </contour>
    <contour>
      <point x="482" y="851" type="curve" smooth="yes"/>
      <point x="485" y="878"/>
      <point x="516" y="906"/>
      <point x="544" y="904" type="curve" smooth="yes"/>
      <point x="572" y="902"/>
      <point x="592" y="877"/>
      <point x="589" y="849" type="curve" smooth="yes"/>
      <point x="586" y="822"/>
      <point x="555" y="794"/>
      <point x="527" y="796" type="curve" smooth="yes"/>
      <point x="499" y="798"/>
      <point x="479" y="823"/>
    </contour>
    <contour>
      <point x="287" y="851" type="curve" smooth="yes"/>
      <point x="290" y="878"/>
      <point x="322" y="906"/>
      <point x="350" y="904" type="curve" smooth="yes"/>
      <point x="378" y="902"/>
      <point x="398" y="877"/>
      <point x="395" y="849" type="curve" smooth="yes"/>
      <point x="392" y="822"/>
      <point x="361" y="794"/>
      <point x="333" y="796" type="curve" smooth="yes"/>
      <point x="305" y="798"/>
      <point x="284" y="823"/>
    </contour>
  </outline>
</glyph>
<glyph name="Aring" format="2">
  <advance width="640"/>
  <unicode hex="00C5"/>
  <outline>
    <contour>
      <point x="152" y="211" type="line"/>
      <point x="193" y="290" type="line"/>
      <point x="496" y="290" type="line"/>
      <point x="512" y="210" type="line"/>
    </contour>
    <contour>
      <point x="388" y="542" type="line"/>
      <point x="226" y="264" type="line"/>
      <point x="215" y="246" type="line"/>
      <point x="71" y="0" type="line"/>
      <point x="-25" y="0" type="line"/>
      <point x="418" y="736" type="line"/>
      <point x="608" y="0" type="line"/>
      <point x="516" y="0" type="line"/>
      <point x="458" y="240" type="line"/>
      <point x="454" y="260" type="line"/>
    </contour>
    <contour>
      <point x="330" y="799" type="curve" smooth="yes"/>
      <point x="338" y="854"/>
      <point x="391" y="898"/>
      <point x="444" y="898" type="curve" smooth="yes"/>
      <point x="497" y="898"/>
      <point x="537" y="851"/>
      <point x="529" y="797" type="curve" smooth="yes"/>
      <point x="521" y="742"/>
      <point x="467" y="698"/>
      <point x="414" y="698" type="curve" smooth="yes"/>
      <point x="361" y="698"/>
      <point x="322" y="745"/>
    </contour>
    <contour>
      <point x="380" y="798" type="curve" smooth="yes"/>
      <point x="377" y="772"/>
      <point x="394" y="748"/>
      <point x="418" y="746" type="curve" smooth="yes"/>
      <point x="442" y="744"/>
      <point x="476" y="770"/>
      <point x="479" y="798" type="curve" smooth="yes"/>
      <point x="482" y="824"/>
      <point x="464" y="848"/>
      <point x="440" y="850" type="curve" smooth="yes"/>
      <point x="416" y="852"/>
      <point x="383" y="826"/>
    </contour>
  </outline>
</glyph>
<glyph name="AE" format="2">
  <advance width="931"/>
  <unicode hex="00C6"/>
  <outline>
    <contour>
      <point x="220" y="210" type="line"/>
      <point x="233" y="290" type="line"/>
      <point x="526" y="290" type="line"/>
      <point x="512" y="210" type="line"/>
    </contour>
    <contour>
      <point x="516" y="700" type="line"/>
      <point x="576" y="658" type="line"/>
      <point x="72" y="0" type="line"/>
      <point x="-22" y="0" type="line"/>
    </contour>
    <contour>
      <point x="494" y="0" type="line"/>
      <point x="508" y="80" type="line"/>
      <point x="852" y="80" type="line"/>
      <point x="838" y="0" type="line"/>
    </contour>
    <contour>
      <point x="610" y="620" type="line"/>
      <point x="516" y="700" type="line"/>
      <point x="958" y="700" type="line"/>
      <point x="944" y="620" type="line"/>
    </contour>
    <contour>
      <point x="552" y="340" type="line"/>
      <point x="566" y="420" type="line"/>
      <point x="890" y="420" type="line"/>
      <point x="877" y="340" type="line"/>
    </contour>
    <contour>
      <point x="566" y="700" type="line"/>
      <point x="652" y="700" type="line"/>
      <point x="531" y="0" type="line"/>
      <point x="448" y="0" type="line"/>
    </contour>
  </outline>
</glyph>
<glyph name="Ccedilla" format="2">
  <advance width="664"/>
  <unicode hex="00C7"/>
  <outline>
    <contour>
      <point x="160" y="350" type="curve" smooth="yes"/>
      <point x="138" y="208"/>
      <point x="217" y="78"/>
      <point x="361" y="76" type="curve" smooth="yes"/>
      <point x="457" y="75"/>
      <point x="539" y="120"/>
      <point x="600" y="178" type="curve"/>
      <point x="582" y="66" type="line"/>
      <point x="517" y="17"/>
      <point x="446" y="-10"/>
      <point x="352" y="-10" type="curve" smooth="yes"/>
      <point x="156" y="-9"/>
      <point x="42" y="162"/>
      <point x="70" y="350" type="curve" smooth="yes"/>
      <point x="100" y="548"/>
      <point x="271" y="709"/>
      <point x="470" y="710" type="curve" smooth="yes"/>
      <point x="559" y="710"/>
      <point x="622" y="685"/>
      <point x="678" y="632" type="curve"/>
      <point x="660" y="521" type="line"/>
      <point x="617" y="586"/>
      <point x="549" y="624"/>
      <point x="461" y="624" type="curve" smooth="yes"/>
      <point x="315" y="624"/>
      <point x="185" y="501"/>
    </contour>
    <contour>
      <point x="350" y="58" type="line"/>
      <point x="410" y="58" type="line"/>
      <point x="329" y="-53" type="line"/>
      <point x="331" y="-53"/>
      <point x="334" y="-53"/>
      <point x="336" y="-53" type="curve" smooth="yes"/>
      <point x="372" y="-57"/>
      <point x="401" y="-84"/>
      <point x="396" y="-128" type="curve" smooth="yes"/>
      <point x="389" y="-184"/>
      <point x="333" y="-220"/>
      <point x="279" y="-220" type="curve" smooth="yes"/>
      <point x="243" y="-220"/>
      <point x="222" y="-207"/>
      <point x="196" y="-182" type="curve"/>
      <point x="234" y="-144" type="line"/>
      <point x="250" y="-158"/>
      <point x="262" y="-167"/>
      <point x="284" y="-167" type="curve" smooth="yes"/>
      <point x="312" y="-167"/>
      <point x="338" y="-149"/>
      <point x="341" y="-126" type="curve" smooth="yes"/>
      <point x="344" y="-104"/>
      <point x="326" y="-91"/>
      <point x="300" y="-91" type="curve" smooth="yes"/>
      <point x="284" y="-90"/>
      <point x="260" y="-98"/>
      <point x="240" y="-108" type="curve"/>
    </contour>
  </outline>
</glyph>
<glyph name="Ecircumflex" format="2">
  <advance width="533"/>
  <unicode hex="00CA"/>
  <outline>
    <contour>
      <point x="96" y="0" type="line"/>
      <point x="110" y="80" type="line"/>
      <point x="454" y="80" type="line"/>
      <point x="440" y="0" type="line"/>
    </contour>
    <contour>
      <point x="202" y="620" type="line"/>
      <point x="216" y="700" type="line"/>
      <point x="560" y="700" type="line"/>
      <point x="546" y="620" type="line"/>
    </contour>
    <contour>
      <point x="154" y="340" type="line"/>
      <point x="168" y="420" type="line"/>
      <point x="492" y="420" type="line"/>
      <point x="479" y="340" type="line"/>
    </contour>
    <contour>
      <point x="168" y="700" type="line"/>
      <point x="254" y="700" type="line"/>
      <point x="133" y="0" type="line"/>
      <point x="51" y="0" type="line"/>
    </contour>
    <contour>
      <point x="404" y="864" type="line"/>
      <point x="281" y="770" type="line"/>
      <point x="236" y="812" type="line"/>
      <point x="414" y="950" type="line"/>
      <point x="548" y="809" type="line"/>
      <point x="495" y="770" type="line"/>
    </contour>
  </outline>
</glyph>
<glyph name="Edieresis" format="2">
  <advance width="533"/>
  <unicode hex="00CB"/>
  <outline>
    <contour>
      <point x="96" y="0" type="line"/>
      <point x="110" y="80" type="line"/>
      <point x="454" y="80" type="line"/>
      <point x="440" y="0" type="line"/>
    </contour>
    <contour>
      <point x="202" y="620" type="line"/>
      <point x="216" y="700" type="line"/>
      <point x="560" y="700" type="line"/>
      <point x="546" y="620" type="line"/>
    </contour>
    <contour>
      <point x="154" y="340" type="line"/>
      <point x="168" y="420" type="line"/>
      <point x="492" y="420" type="line"/>
      <point x="479" y="340" type="line"/>
    </contour>
    <contour>
      <point x="168" y="700" type="line"/>
      <point x="254" y="700" type="line"/>
      <point x="133" y="0" type="line"/>
      <point x="51" y="0" type="line"/>
    </contour>
    <contour>
      <point x="442" y="846" type="curve" smooth="yes"/>
      <point x="445" y="873"/>
      <point x="476" y="902"/>
      <point x="504" y="900" type="curve" smooth="yes"/>
      <point x="532" y="898"/>
      <point x="553" y="872"/>
      <point x="550" y="844" type="curve" smooth="yes"/>
      <point x="547" y="817"/>
      <point x="516" y="788"/>
      <point x="488" y="790" type="curve" smooth="yes"/>
      <point x="460" y="792"/>
      <point x="439" y="818"/>
    </contour>
    <contour>
      <point x="248" y="846" type="curve" smooth="yes"/>
      <point x="251" y="873"/>
      <point x="282" y="902"/>
      <point x="310" y="900" type="curve" smooth="yes"/>
      <point x="338" y="898"/>
      <point x="359" y="872"/>
      <point x="356" y="844" type="curve" smooth="yes"/>
      <point x="353" y="817"/>
      <point x="322" y="788"/>
      <point x="294" y="790" type="curve" smooth="yes"/>
      <point x="266" y="792"/>
      <point x="245" y="818"/>
    </contour>
  </outline>
</glyph>
<glyph name="Igrave" format="2">
  <advance width="237"/>
  <unicode hex="00CC"/>
  <outline>
    <contour>
      <point x="168" y="700" type="line"/>
      <point x="254" y="700" type="line"/>
      <point x="133" y="0" type="line"/>
      <point x="51" y="0" type="line"/>
    </contour>
    <contour>
      <point x="122" y="921" type="line"/>
      <point x="201" y="960" type="line"/>
      <point x="322" y="799" type="line"/>
      <point x="274" y="770" type="line"/>
    </contour>
  </outline>
</glyph>
<glyph name="Iacute" format="2">
  <advance width="237"/>
  <unicode hex="00CD"/>
  <outline>
    <contour>
      <point x="168" y="700" type="line"/>
      <point x="254" y="700" type="line"/>
      <point x="133" y="0" type="line"/>
      <point x="51" y="0" type="line"/>
    </contour>
    <contour>
      <point x="375" y="918" type="line"/>
      <point x="176" y="770" type="line"/>
      <point x="136" y="802" type="line"/>
      <point x="308" y="960" type="line"/>
    </contour>
  </outline>
</glyph>
<glyph name="Icircumflex" format="2">
  <advance width="237"/>
  <unicode hex="00CE"/>
  <outline>
    <contour>
      <point x="168" y="700" type="line"/>
      <point x="254" y="700" type="line"/>
      <point x="133" y="0" type="line"/>
      <point x="51" y="0" type="line"/>
    </contour>
    <contour>
      <point x="242" y="864" type="line"/>
      <point x="118" y="770" type="line"/>
      <point x="74" y="812" type="line"/>
      <point x="252" y="950" type="line"/>
      <point x="386" y="809" type="line"/>
      <point x="332" y="770" type="line"/>
    </contour>
  </outline>
</glyph>
<glyph name="Ntilde" format="2">
  <advance width="752"/>
  <unicode hex="00D1"/>
  <outline>
    <contour>
      <point x="684" y="700" type="line"/>
      <point x="768" y="700" type="line"/>
      <point x="642" y="-34" type="line"/>
      <point x="224" y="522" type="line"/>
      <point x="134" y="0" type="line"/>
      <point x="49" y="0" type="line"/>
      <point x="175" y="734" type="line"/>
      <point x="594" y="178" type="line"/>
    </contour>
    <contour>
      <point x="316" y="794" type="line"/>
      <point x="336" y="836"/>
      <point x="381" y="876"/>
      <point x="429" y="874" type="curve" smooth="yes"/>
      <point x="481" y="873"/>
      <point x="496" y="826"/>
      <point x="542" y="828" type="curve" smooth="yes"/>
      <point x="566" y="829"/>
      <point x="585" y="850"/>
      <point x="605" y="874" type="curve"/>
      <point x="644" y="830" type="line"/>
      <point x="621" y="796"/>
      <point x="580" y="758"/>
      <point x="531" y="760" type="curve" smooth="yes"/>
      <point x="485" y="762"/>
      <point x="464" y="807"/>
      <point x="422" y="806" type="curve" smooth="yes"/>
      <point x="386" y="805"/>
      <point x="372" y="774"/>
      <point x="364" y="756" type="curve"/>
    </contour>
  </outline>
</glyph>
<glyph name="Otilde" format="2">
  <advance width="766"/>
  <unicode hex="00D5"/>
  <outline>
    <contour>
      <point x="160" y="350" type="curve" smooth="yes"/>
      <point x="138" y="209"/>
      <point x="213" y="77"/>
      <point x="366" y="76" type="curve" smooth="yes"/>
      <point x="521" y="75"/>
      <point x="647" y="201"/>
      <point x="672" y="350" type="curve" smooth="yes"/>
      <point x="694" y="491"/>
      <point x="619" y="623"/>
      <point x="466" y="624" type="curve" smooth="yes"/>
      <point x="311" y="625"/>
      <point x="185" y="499"/>
    </contour>
    <contour>
      <point x="70" y="350" type="curve" smooth="yes"/>
      <point x="100" y="546"/>
      <point x="270" y="710"/>
      <point x="474" y="710" type="curve" smooth="yes"/>
      <point x="676" y="710"/>
      <point x="790" y="538"/>
      <point x="762" y="350" type="curve" smooth="yes"/>
      <point x="732" y="154"/>
      <point x="562" y="-10"/>
      <point x="358" y="-10" type="curve" smooth="yes"/>
      <point x="156" y="-10"/>
      <point x="42" y="162"/>
    </contour>
    <contour>
      <point x="333" y="808" type="line"/>
      <point x="333" y="852"/>
      <point x="410" y="888"/>
      <point x="446" y="888" type="curve" smooth="yes"/>
      <point x="498" y="887"/>
      <point x="511" y="840"/>
      <point x="558" y="842" type="curve" smooth="yes"/>
      <point x="582" y="843"/>
      <point x="602" y="866"/>
      <point x="622" y="890" type="curve"/>
      <point x="662" y="846" type="line"/>
      <point x="639" y="812"/>
      <point x="597" y="772"/>
      <point x="548" y="774" type="curve" smooth="yes"/>
      <point x="502" y="776"/>
      <point x="481" y="821"/>
      <point x="439" y="820" type="curve" smooth="yes"/>
      <point x="403" y="819"/>
      <point x="388" y="788"/>
      <point x="380" y="770" type="curve"/>
    </contour>
  </outline>
</glyph>
<glyph name="Odieresis" format="2">
  <advance width="766"/>
  <unicode hex="00D6"/>
  <outline>
    <contour>
      <point x="160" y="350" type="curve" smooth="yes"/>
      <point x="138" y="209"/>
      <point x="213" y="77"/>
      <point x="366" y="76" type="curve" smooth="yes"/>
      <point x="521" y="75"/>
      <point x="647" y="201"/>
      <point x="672" y="350" type="curve" smooth="yes"/>
      <point x="694" y="491"/>
      <point x="619" y="623"/>
      <point x="466" y="624" type="curve" smooth="yes"/>
      <point x="311" y="625"/>
      <point x="185" y="499"/>
    </contour>
    <contour>
      <point x="70" y="350" type="curve" smooth="yes"/>
      <point x="100" y="546"/>
      <point x="270" y="710"/>
      <point x="474" y="710" type="curve" smooth="yes"/>
      <point x="676" y="710"/>
      <point x="790" y="538"/>
      <point x="762" y="350" type="curve" smooth="yes"/>
      <point x="732" y="154"/>
      <point x="562" y="-10"/>
      <point x="358" y="-10" type="curve" smooth="yes"/>
      <point x="156" y="-10"/>
      <point x="42" y="162"/>
    </contour>
    <contour>
      <point x="540" y="826" type="curve" smooth="yes"/>
      <point x="543" y="853"/>
      <point x="574" y="882"/>
      <point x="602" y="880" type="curve" smooth="yes"/>
      <point x="630" y="878"/>
      <point x="651" y="852"/>
      <point x="648" y="824" type="curve" smooth="yes"/>
      <point x="645" y="797"/>
      <point x="614" y="768"/>
      <point x="586" y="770" type="curve" smooth="yes"/>
      <point x="558" y="772"/>
      <point x="537" y="798"/>
    </contour>
    <contour>
      <point x="346" y="826" type="curve" smooth="yes"/>
      <point x="349" y="853"/>
      <point x="380" y="882"/>
      <point x="408" y="880" type="curve" smooth="yes"/>
      <point x="436" y="878"/>
      <point x="457" y="852"/>
      <point x="454" y="824" type="curve" smooth="yes"/>
      <point x="451" y="797"/>
      <point x="420" y="768"/>
      <point x="392" y="770" type="curve" smooth="yes"/>
      <point x="364" y="772"/>
      <point x="343" y="798"/>
    </contour>
  </outline>
</glyph>
<glyph name="multiply" format="2">
  <advance width="578"/>
  <unicode hex="00D7"/>
  <outline>
    <contour>
      <point x="96" y="22" type="line"/>
      <point x="49" y="81" type="line"/>
      <point x="256" y="257" type="line"/>
      <point x="110" y="434" type="line"/>
      <point x="172" y="488" type="line"/>
      <point x="312" y="307" type="line"/>
      <point x="516" y="488" type="line"/>
      <point x="562" y="429" type="line"/>
      <point x="354" y="253" type="line"/>
      <point x="502" y="76" type="line"/>
      <point x="440" y="22" type="line"/>
      <point x="299" y="203" type="line"/>
    </contour>
  </outline>
</glyph>
<glyph name="Ugrave" format="2">
  <advance width="607"/>
  <unicode hex="00D9"/>
  <outline>
    <contour>
      <point x="165" y="700" type="line"/>
      <point x="249" y="700" type="line"/>
      <point x="168" y="230" type="line" smooth="yes"/>
      <point x="156" y="144"/>
      <point x="189" y="71"/>
      <point x="286" y="70" type="curve" smooth="yes"/>
      <point x="384" y="69"/>
      <point x="448" y="140"/>
      <point x="464" y="230" type="curve"/>
      <point x="544" y="700" type="line"/>
      <point x="628" y="700" type="line"/>
      <point x="548" y="230" type="line" smooth="yes"/>
      <point x="525" y="98"/>
      <point x="422" y="-10"/>
      <point x="278" y="-10" type="curve" smooth="yes"/>
      <point x="137" y="-10"/>
      <point x="66" y="101"/>
      <point x="84" y="230" type="curve"/>
    </contour>
    <contour>
      <point x="306" y="921" type="line"/>
      <point x="386" y="960" type="line"/>
      <point x="506" y="799" type="line"/>
      <point x="459" y="770" type="line"/>
    </contour>
  </outline>
</glyph>
<glyph name="Uacute" format="2">
  <advance width="607"/>
  <unicode hex="00DA"/>
  <outline>
    <contour>
      <point x="165" y="700" type="line"/>
      <point x="249" y="700" type="line"/>
      <point x="168" y="230" type="line" smooth="yes"/>
      <point x="156" y="144"/>
      <point x="189" y="71"/>
      <point x="286" y="70" type="curve" smooth="yes"/>
      <point x="384" y="69"/>
      <point x="448" y="140"/>
      <point x="464" y="230" type="curve"/>
      <point x="544" y="700" type="line"/>
      <point x="628" y="700" type="line"/>
      <point x="548" y="230" type="line" smooth="yes"/>
      <point x="525" y="98"/>
      <point x="422" y="-10"/>
      <point x="278" y="-10" type="curve" smooth="yes"/>
      <point x="137" y="-10"/>
      <point x="66" y="101"/>
      <point x="84" y="230" type="curve"/>
    </contour>
    <contour>
      <point x="560" y="918" type="line"/>
      <point x="362" y="771" type="line"/>
      <point x="320" y="802" type="line"/>
      <point x="492" y="960" type="line"/>
    </contour>
  </outline>
</glyph>
<glyph name="Udieresis" format="2">
  <advance width="607"/>
  <unicode hex="00DC"/>
  <outline>
    <contour>
      <point x="165" y="700" type="line"/>
      <point x="249" y="700" type="line"/>
      <point x="168" y="230" type="line" smooth="yes"/>
      <point x="156" y="144"/>
      <point x="189" y="71"/>
      <point x="286" y="70" type="curve" smooth="yes"/>
      <point x="384" y="69"/>
      <point x="448" y="140"/>
      <point x="464" y="230" type="curve"/>
      <point x="544" y="700" type="line"/>
      <point x="628" y="700" type="line"/>
      <point x="548" y="230" type="line" smooth="yes"/>
      <point x="525" y="98"/>
      <point x="422" y="-10"/>
      <point x="278" y="-10" type="curve" smooth="yes"/>
      <point x="137" y="-10"/>
      <point x="66" y="101"/>
      <point x="84" y="230" type="curve"/>
    </contour>
    <contour>
      <point x="460" y="826" type="curve" smooth="yes"/>
      <point x="463" y="853"/>
      <point x="494" y="882"/>
      <point x="522" y="880" type="curve" smooth="yes"/>
      <point x="550" y="878"/>
      <point x="571" y="852"/>
      <point x="568" y="824" type="curve" smooth="yes"/>
      <point x="565" y="797"/>
      <point x="534" y="768"/>
      <point x="506" y="770" type="curve" smooth="yes"/>
      <point x="478" y="772"/>
      <point x="457" y="798"/>
    </contour>
    <contour>
      <point x="266" y="826" type="curve" smooth="yes"/>
      <point x="269" y="853"/>
      <point x="300" y="882"/>
      <point x="328" y="880" type="curve" smooth="yes"/>
      <point x="356" y="878"/>
      <point x="377" y="852"/>
      <point x="374" y="824" type="curve" smooth="yes"/>
      <point x="371" y="797"/>
      <point x="340" y="768"/>
      <point x="312" y="770" type="curve" smooth="yes"/>
      <point x="284" y="772"/>
      <point x="263" y="798"/>
    </contour>
  </outline>
</glyph>
<glyph name="Yacute" format="2">
  <advance width="544"/>
  <unicode hex="00DD"/>
  <outline>
    <contour>
      <point x="528" y="918" type="line"/>
      <point x="330" y="770" type="line"/>
      <point x="289" y="802" type="line"/>
      <point x="460" y="960" type="line"/>
    </contour>
    <contour>
      <point x="538" y="700" type="line"/>
      <point x="634" y="700" type="line"/>
      <point x="338" y="300" type="line"/>
      <point x="286" y="0" type="line"/>
      <point x="202" y="0" type="line"/>
      <point x="256" y="304" type="line"/>
      <point x="98" y="700" type="line"/>
      <point x="189" y="700" type="line"/>
      <point x="308" y="378" type="line"/>
    </contour>
  </outline>
</glyph>
<glyph name="Thorn" format="2">
  <advance width="533"/>
  <unicode hex="00DE"/>
  <outline>
    <contour>
      <point x="168" y="700" type="line"/>
      <point x="254" y="700" type="line"/>
      <point x="133" y="0" type="line"/>
      <point x="51" y="0" type="line"/>
    </contour>
    <contour>
      <point x="176" y="480" type="line"/>
      <point x="191" y="560" type="line"/>
      <point x="328" y="560" type="line"/>
      <point x="455" y="558"/>
      <point x="545" y="474"/>
      <point x="526" y="350" type="curve" smooth="yes"/>
      <point x="506" y="223"/>
      <point x="393" y="142"/>
      <point x="262" y="140" type="curve"/>
      <point x="118" y="140" type="line"/>
      <point x="133" y="220" type="line"/>
      <point x="270" y="220" type="line"/>
      <point x="356" y="222"/>
      <point x="428" y="266"/>
      <point x="443" y="350" type="curve" smooth="yes"/>
      <point x="457" y="432"/>
      <point x="403" y="478"/>
      <point x="320" y="480" type="curve"/>
    </contour>
  </outline>
</glyph>
<glyph name="germandbls" format="2">
  <advance width="565"/>
  <unicode hex="00DF"/>
  <outline>
    <contour>
      <point x="342" y="-12" type="curve" smooth="yes"/>
      <point x="280" y="-12"/>
      <point x="231" y="16"/>
      <point x="195" y="56" type="curve"/>
      <point x="244" y="116" type="line"/>
      <point x="274" y="85"/>
      <point x="309" y="64"/>
      <point x="348" y="64" type="curve" smooth="yes"/>
      <point x="408" y="64"/>
      <point x="452" y="113"/>
      <point x="452" y="171" type="curve" smooth="yes"/>
      <point x="452" y="283"/>
      <point x="302" y="288"/>
      <point x="302" y="402" type="curve" smooth="yes"/>
      <point x="302" y="506"/>
      <point x="466" y="536"/>
      <point x="466" y="645" type="curve" smooth="yes"/>
      <point x="466" y="700"/>
      <point x="422" y="721"/>
      <point x="368" y="721" type="curve" smooth="yes"/>
      <point x="292" y="721"/>
      <point x="241" y="677"/>
      <point x="227" y="588" type="curve" smooth="yes"/>
      <point x="128" y="-2" type="line"/>
      <point x="47" y="-2" type="line"/>
      <point x="147" y="608" type="line" smooth="yes"/>
      <point x="163" y="711"/>
      <point x="245" y="794"/>
      <point x="381" y="794" type="curve" smooth="yes"/>
      <point x="479" y="794"/>
      <point x="550" y="743"/>
      <point x="550" y="652" type="curve" smooth="yes"/>
      <point x="550" y="496"/>
      <point x="390" y="486"/>
      <point x="390" y="402" type="curve" smooth="yes"/>
      <point x="390" y="332"/>
      <point x="536" y="326"/>
      <point x="536" y="182" type="curve" smooth="yes"/>
      <point x="536" y="74"/>
      <point x="451" y="-12"/>
    </contour>
  </outline>
</glyph>
<glyph name="acircumflex" format="2">
  <advance width="553"/>
  <unicode hex="00E2"/>
  <outline>
    <contour>
      <point x="462" y="460" type="line"/>
      <point x="538" y="460" type="line"/>
      <point x="458" y="0" type="line"/>
      <point x="386" y="0" type="line"/>
    </contour>
    <contour>
      <point x="45" y="230" type="curve" smooth="yes"/>
      <point x="65" y="366"/>
      <point x="176" y="471"/>
      <point x="306" y="470" type="curve" smooth="yes"/>
      <point x="430" y="469"/>
      <point x="472" y="354"/>
      <point x="456" y="230" type="curve" smooth="yes"/>
      <point x="438" y="99"/>
      <point x="352" y="-10"/>
      <point x="230" y="-10" type="curve" smooth="yes"/>
      <point x="100" y="-10"/>
      <point x="27" y="100"/>
    </contour>
    <contour>
      <point x="125" y="230" type="curve" smooth="yes"/>
      <point x="111" y="140"/>
      <point x="158" y="66"/>
      <point x="246" y="66" type="curve" smooth="yes"/>
      <point x="326" y="66"/>
      <point x="406" y="138"/>
      <point x="420" y="230" type="curve" smooth="yes"/>
      <point x="432" y="317"/>
      <point x="386" y="392"/>
      <point x="308" y="394" type="curve" smooth="yes"/>
      <point x="218" y="396"/>
      <point x="140" y="324"/>
    </contour>
    <contour>
      <point x="357" y="624" type="line"/>
      <point x="233" y="530" type="line"/>
      <point x="188" y="572" type="line"/>
      <point x="367" y="710" type="line"/>
      <point x="501" y="569" type="line"/>
      <point x="447" y="530" type="line"/>
    </contour>
  </outline>
</glyph>
<glyph name="atilde" format="2">
  <advance width="553"/>
  <unicode hex="00E3"/>
  <outline>
    <contour>
      <point x="462" y="460" type="line"/>
      <point x="538" y="460" type="line"/>
      <point x="458" y="0" type="line"/>
      <point x="386" y="0" type="line"/>
    </contour>
    <contour>
      <point x="45" y="230" type="curve" smooth="yes"/>
      <point x="65" y="366"/>
      <point x="176" y="471"/>
      <point x="306" y="470" type="curve" smooth="yes"/>
      <point x="430" y="469"/>
      <point x="472" y="354"/>
      <point x="456" y="230" type="curve" smooth="yes"/>
      <point x="438" y="99"/>
      <point x="352" y="-10"/>
      <point x="230" y="-10" type="curve" smooth="yes"/>
      <point x="100" y="-10"/>
      <point x="27" y="100"/>
    </contour>
    <contour>
      <point x="125" y="230" type="curve" smooth="yes"/>
      <point x="111" y="140"/>
      <point x="158" y="66"/>
      <point x="246" y="66" type="curve" smooth="yes"/>
      <point x="326" y="66"/>
      <point x="406" y="138"/>
      <point x="420" y="230" type="curve" smooth="yes"/>
      <point x="432" y="317"/>
      <point x="386" y="392"/>
      <point x="308" y="394" type="curve" smooth="yes"/>
      <point x="218" y="396"/>
      <point x="140" y="324"/>
    </contour>
    <contour>
      <point x="184" y="568" type="line"/>
      <point x="204" y="612"/>
      <point x="250" y="648"/>
      <point x="296" y="648" type="curve" smooth="yes"/>
      <point x="348" y="648"/>
      <point x="362" y="600"/>
      <point x="409" y="602" type="curve" smooth="yes"/>
      <point x="433" y="603"/>
      <point x="452" y="626"/>
      <point x="472" y="650" type="curve"/>
      <point x="512" y="606" type="line"/>
      <point x="489" y="572"/>
      <point x="447" y="532"/>
      <point x="398" y="534" type="curve" smooth="yes"/>
      <point x="352" y="536"/>
      <point x="332" y="581"/>
      <point x="290" y="580" type="curve" smooth="yes"/>
      <point x="254" y="579"/>
      <point x="239" y="548"/>
      <point x="231" y="530" type="curve"/>
    </contour>
  </outline>
</glyph>
<glyph name="adieresis" format="2">
  <advance width="553"/>
  <unicode hex="00E4"/>
  <outline>
    <contour>
      <point x="462" y="460" type="line"/>
      <point x="538" y="460" type="line"/>
      <point x="458" y="0" type="line"/>
      <point x="386" y="0" type="line"/>
    </contour>
    <contour>
      <point x="45" y="230" type="curve" smooth="yes"/>
      <point x="65" y="366"/>
      <point x="176" y="471"/>
      <point x="306" y="470" type="curve" smooth="yes"/>
      <point x="430" y="469"/>
      <point x="472" y="354"/>
      <point x="456" y="230" type="curve" smooth="yes"/>
      <point x="438" y="99"/>
      <point x="352" y="-10"/>
      <point x="230" y="-10" type="curve" smooth="yes"/>
      <point x="100" y="-10"/>
      <point x="27" y="100"/>
    </contour>
    <contour>
      <point x="125" y="230" type="curve" smooth="yes"/>
      <point x="111" y="140"/>
      <point x="158" y="66"/>
      <point x="246" y="66" type="curve" smooth="yes"/>
      <point x="326" y="66"/>
      <point x="406" y="138"/>
      <point x="420" y="230" type="curve" smooth="yes"/>
      <point x="432" y="317"/>
      <point x="386" y="392"/>
      <point x="308" y="394" type="curve" smooth="yes"/>
      <point x="218" y="396"/>
      <point x="140" y="324"/>
    </contour>
    <contour>
      <point x="390" y="586" type="curve" smooth="yes"/>
      <point x="393" y="613"/>
      <point x="424" y="642"/>
      <point x="452" y="640" type="curve" smooth="yes"/>
      <point x="480" y="638"/>
      <point x="501" y="612"/>
      <point x="498" y="584" type="curve" smooth="yes"/>
      <point x="495" y="557"/>
      <point x="464" y="528"/>
      <point x="436" y="530" type="curve" smooth="yes"/>
      <point x="408" y="532"/>
      <point x="387" y="558"/>
    </contour>
    <contour>
      <point x="196" y="586" type="curve" smooth="yes"/>
      <point x="199" y="613"/>
      <point x="230" y="642"/>
      <point x="258" y="640" type="curve" smooth="yes"/>
      <point x="286" y="638"/>
      <point x="307" y="612"/>
      <point x="304" y="584" type="curve" smooth="yes"/>
      <point x="301" y="557"/>
      <point x="270" y="528"/>
      <point x="242" y="530" type="curve" smooth="yes"/>
      <point x="214" y="532"/>
      <point x="193" y="558"/>
    </contour>
  </outline>
</glyph>
<glyph name="aring" format="2">
  <advance width="553"/>
  <unicode hex="00E5"/>
  <outline>
    <contour>
      <point x="462" y="460" type="line"/>
      <point x="538" y="460" type="line"/>
      <point x="458" y="0" type="line"/>
      <point x="386" y="0" type="line"/>
    </contour>
    <contour>
      <point x="45" y="230" type="curve" smooth="yes"/>
      <point x="65" y="366"/>
      <point x="176" y="471"/>
      <point x="306" y="470" type="curve" smooth="yes"/>
      <point x="430" y="469"/>
      <point x="472" y="354"/>
      <point x="456" y="230" type="curve" smooth="yes"/>
      <point x="438" y="99"/>
      <point x="352" y="-10"/>
      <point x="230" y="-10" type="curve" smooth="yes"/>
      <point x="100" y="-10"/>
      <point x="27" y="100"/>
    </contour>
    <contour>
      <point x="125" y="230" type="curve" smooth="yes"/>
      <point x="111" y="140"/>
      <point x="158" y="66"/>
      <point x="246" y="66" type="curve" smooth="yes"/>
      <point x="326" y="66"/>
      <point x="406" y="138"/>
      <point x="420" y="230" type="curve" smooth="yes"/>
      <point x="432" y="317"/>
      <point x="386" y="392"/>
      <point x="308" y="394" type="curve" smooth="yes"/>
      <point x="218" y="396"/>
      <point x="140" y="324"/>
    </contour>
    <contour>
      <point x="229" y="630" type="curve" smooth="yes"/>
      <point x="237" y="685"/>
      <point x="291" y="729"/>
      <point x="344" y="729" type="curve" smooth="yes"/>
      <point x="397" y="729"/>
      <point x="436" y="682"/>
      <point x="428" y="628" type="curve" smooth="yes"/>
      <point x="420" y="573"/>
      <point x="367" y="530"/>
      <point x="314" y="530" type="curve" smooth="yes"/>
      <point x="261" y="530"/>
      <point x="221" y="576"/>
    </contour>
    <contour>
      <point x="279" y="629" type="curve" smooth="yes"/>
      <point x="276" y="603"/>
      <point x="294" y="577"/>
      <point x="318" y="577" type="curve" smooth="yes"/>
      <point x="342" y="577"/>
      <point x="375" y="602"/>
      <point x="378" y="630" type="curve" smooth="yes"/>
      <point x="381" y="656"/>
      <point x="364" y="682"/>
      <point x="340" y="682" type="curve" smooth="yes"/>
      <point x="315" y="682"/>
      <point x="282" y="657"/>
    </contour>
  </outline>
</glyph>
<glyph name="ae" format="2">
  <advance width="800"/>
  <unicode hex="00E6"/>
  <outline>
    <contour>
      <point x="183" y="-10" type="curve" smooth="yes"/>
      <point x="74" y="-10"/>
      <point x="20" y="48"/>
      <point x="20" y="120" type="curve" smooth="yes"/>
      <point x="20" y="211"/>
      <point x="105" y="286"/>
      <point x="226" y="286" type="curve" smooth="yes"/>
      <point x="280" y="286"/>
      <point x="320" y="272"/>
      <point x="388" y="230" type="curve"/>
      <point x="348" y="230" type="line"/>
      <point x="362" y="310" type="line" smooth="yes"/>
      <point x="370" y="370"/>
      <point x="335" y="400"/>
      <point x="283" y="400" type="curve" smooth="yes"/>
      <point x="238" y="400"/>
      <point x="186" y="382"/>
      <point x="146" y="352" type="curve"/>
      <point x="107" y="413" type="line"/>
      <point x="157" y="450"/>
      <point x="219" y="470"/>
      <point x="283" y="470" type="curve" smooth="yes"/>
      <point x="374" y="470"/>
      <point x="430" y="430"/>
      <point x="424" y="356" type="curve"/>
      <point x="404" y="341" type="line"/>
      <point x="440" y="412"/>
      <point x="516" y="470"/>
      <point x="613" y="470" type="curve" smooth="yes"/>
      <point x="715" y="470"/>
      <point x="786" y="393"/>
      <point x="786" y="269" type="curve" smooth="yes"/>
      <point x="786" y="243"/>
      <point x="782" y="224"/>
      <point x="776" y="210" type="curve"/>
      <point x="404" y="210" type="line"/>
      <point x="426" y="229" type="line"/>
      <point x="411" y="141"/>
      <point x="446" y="65"/>
      <point x="538" y="65" type="curve" smooth="yes"/>
      <point x="600" y="65"/>
      <point x="653" y="92"/>
      <point x="687" y="148" type="curve"/>
      <point x="752" y="107" type="line"/>
      <point x="702" y="30"/>
      <point x="617" y="-10"/>
      <point x="533" y="-10" type="curve" smooth="yes"/>
      <point x="443" y="-10"/>
      <point x="388" y="26"/>
      <point x="360" y="110" type="curve"/>
      <point x="375" y="110" type="line"/>
      <point x="348" y="36"/>
      <point x="283" y="-10"/>
    </contour>
    <contour>
      <point x="198" y="61" type="curve" smooth="yes"/>
      <point x="278" y="61"/>
      <point x="327" y="102"/>
      <point x="354" y="192" type="curve"/>
      <point x="346" y="116" type="line"/>
      <point x="346" y="221" type="line"/>
      <point x="354" y="194" type="line"/>
      <point x="318" y="214"/>
      <point x="276" y="225"/>
      <point x="230" y="225" type="curve" smooth="yes"/>
      <point x="157" y="225"/>
      <point x="101" y="189"/>
      <point x="101" y="130" type="curve" smooth="yes"/>
      <point x="101" y="79"/>
      <point x="131" y="61"/>
    </contour>
    <contour>
      <point x="426" y="239" type="curve"/>
      <point x="404" y="278" type="line"/>
      <point x="726" y="278" type="line"/>
      <point x="702" y="250" type="line"/>
      <point x="704" y="254"/>
      <point x="704" y="258"/>
      <point x="704" y="266" type="curve" smooth="yes"/>
      <point x="704" y="348"/>
      <point x="677" y="400"/>
      <point x="596" y="400" type="curve" smooth="yes"/>
      <point x="508" y="400"/>
      <point x="451" y="337"/>
    </contour>
  </outline>
</glyph>
<glyph name="ccedilla" format="2">
  <advance width="463"/>
  <unicode hex="00E7"/>
  <outline>
    <contour>
      <point x="120" y="230" type="curve" smooth="yes"/>
      <point x="106" y="145"/>
      <point x="152" y="68"/>
      <point x="242" y="66" type="curve" smooth="yes"/>
      <point x="314" y="65"/>
      <point x="378" y="104"/>
      <point x="414" y="148" type="curve"/>
      <point x="398" y="48" type="line"/>
      <point x="357" y="12"/>
      <point x="296" y="-10"/>
      <point x="234" y="-10" type="curve" smooth="yes"/>
      <point x="100" y="-10"/>
      <point x="22" y="102"/>
      <point x="40" y="230" type="curve" smooth="yes"/>
      <point x="60" y="363"/>
      <point x="174" y="470"/>
      <point x="310" y="470" type="curve" smooth="yes"/>
      <point x="369" y="470"/>
      <point x="424" y="448"/>
      <point x="458" y="410" type="curve"/>
      <point x="442" y="311" type="line"/>
      <point x="422" y="361"/>
      <point x="370" y="394"/>
      <point x="304" y="394" type="curve" smooth="yes"/>
      <point x="212" y="394"/>
      <point x="136" y="320"/>
    </contour>
    <contour>
      <point x="232" y="58" type="line"/>
      <point x="292" y="58" type="line"/>
      <point x="211" y="-53" type="line"/>
      <point x="213" y="-53"/>
      <point x="216" y="-53"/>
      <point x="218" y="-53" type="curve" smooth="yes"/>
      <point x="254" y="-57"/>
      <point x="283" y="-84"/>
      <point x="278" y="-128" type="curve" smooth="yes"/>
      <point x="271" y="-184"/>
      <point x="214" y="-220"/>
      <point x="160" y="-220" type="curve" smooth="yes"/>
      <point x="124" y="-220"/>
      <point x="103" y="-207"/>
      <point x="77" y="-182" type="curve"/>
      <point x="116" y="-144" type="line"/>
      <point x="132" y="-158"/>
      <point x="144" y="-167"/>
      <point x="166" y="-167" type="curve" smooth="yes"/>
      <point x="194" y="-167"/>
      <point x="220" y="-149"/>
      <point x="223" y="-126" type="curve" smooth="yes"/>
      <point x="226" y="-104"/>
      <point x="208" y="-91"/>
      <point x="182" y="-91" type="curve" smooth="yes"/>
      <point x="166" y="-90"/>
      <point x="141" y="-98"/>
      <point x="121" y="-108" type="curve"/>
    </contour>
  </outline>
</glyph>
<glyph name="edieresis" format="2">
  <advance width="499"/>
  <unicode hex="00EB"/>
  <outline>
    <contour>
      <point x="92" y="210" type="line"/>
      <point x="103" y="278" type="line"/>
      <point x="400" y="278" type="line"/>
      <point x="401" y="344"/>
      <point x="376" y="399"/>
      <point x="299" y="400" type="curve" smooth="yes"/>
      <point x="216" y="401"/>
      <point x="149" y="339"/>
      <point x="132" y="260" type="curve"/>
      <point x="125" y="230" type="line"/>
      <point x="112" y="141"/>
      <point x="144" y="68"/>
      <point x="236" y="66" type="curve" smooth="yes"/>
      <point x="302" y="65"/>
      <point x="353" y="103"/>
      <point x="391" y="148" type="curve"/>
      <point x="450" y="106" type="line"/>
      <point x="394" y="40"/>
      <point x="327" y="-11"/>
      <point x="220" y="-10" type="curve" smooth="yes"/>
      <point x="92" y="-8"/>
      <point x="29" y="106"/>
      <point x="45" y="230" type="curve" smooth="yes"/>
      <point x="47" y="247"/>
      <point x="51" y="263"/>
      <point x="57" y="279" type="curve" smooth="yes"/>
      <point x="91" y="386"/>
      <point x="188" y="470"/>
      <point x="306" y="470" type="curve" smooth="yes"/>
      <point x="439" y="470"/>
      <point x="496" y="362"/>
      <point x="480" y="234" type="curve" smooth="yes"/>
      <point x="479" y="226"/>
      <point x="478" y="218"/>
      <point x="476" y="210" type="curve"/>
    </contour>
    <contour>
      <point x="371" y="586" type="curve" smooth="yes"/>
      <point x="374" y="613"/>
      <point x="405" y="642"/>
      <point x="433" y="640" type="curve" smooth="yes"/>
      <point x="461" y="638"/>
      <point x="482" y="612"/>
      <point x="479" y="584" type="curve" smooth="yes"/>
      <point x="476" y="557"/>
      <point x="445" y="528"/>
      <point x="417" y="530" type="curve" smooth="yes"/>
      <point x="389" y="532"/>
      <point x="368" y="558"/>
    </contour>
    <contour>
      <point x="177" y="586" type="curve" smooth="yes"/>
      <point x="180" y="613"/>
      <point x="211" y="642"/>
      <point x="239" y="640" type="curve" smooth="yes"/>
      <point x="267" y="638"/>
      <point x="288" y="612"/>
      <point x="285" y="584" type="curve" smooth="yes"/>
      <point x="282" y="557"/>
      <point x="250" y="528"/>
      <point x="222" y="530" type="curve" smooth="yes"/>
      <point x="194" y="532"/>
      <point x="174" y="558"/>
    </contour>
  </outline>
</glyph>
<glyph name="igrave" format="2">
  <advance width="252"/>
  <unicode hex="00EC"/>
  <outline>
    <contour>
      <point x="137" y="460" type="line"/>
      <point x="218" y="460" type="line"/>
      <point x="138" y="0" type="line"/>
      <point x="60" y="0" type="line"/>
    </contour>
    <contour>
      <point x="62" y="701" type="line"/>
      <point x="142" y="740" type="line"/>
      <point x="262" y="579" type="line"/>
      <point x="214" y="550" type="line"/>
    </contour>
  </outline>
</glyph>
<glyph name="iacute" format="2">
  <advance width="252"/>
  <unicode hex="00ED"/>
  <outline>
    <contour>
      <point x="137" y="460" type="line"/>
      <point x="218" y="460" type="line"/>
      <point x="138" y="0" type="line"/>
      <point x="60" y="0" type="line"/>
    </contour>
    <contour>
      <point x="374" y="698" type="line"/>
      <point x="176" y="551" type="line"/>
      <point x="134" y="582" type="line"/>
      <point x="306" y="740" type="line"/>
    </contour>
  </outline>
</glyph>
<glyph name="icircumflex" format="2">
  <advance width="252"/>
  <unicode hex="00EE"/>
  <outline>
    <contour>
      <point x="137" y="460" type="line"/>
      <point x="218" y="460" type="line"/>
      <point x="138" y="0" type="line"/>
      <point x="60" y="0" type="line"/>
    </contour>
    <contour>
      <point x="210" y="634" type="line"/>
      <point x="86" y="540" type="line"/>
      <point x="42" y="582" type="line"/>
      <point x="220" y="720" type="line"/>
      <point x="354" y="579" type="line"/>
      <point x="300" y="540" type="line"/>
    </contour>
  </outline>
</glyph>
<glyph name="idieresis" format="2">
  <advance width="252"/>
  <unicode hex="00EF"/>
  <outline>
    <contour>
      <point x="137" y="460" type="line"/>
      <point x="218" y="460" type="line"/>
      <point x="138" y="0" type="line"/>
      <point x="60" y="0" type="line"/>
    </contour>
    <contour>
      <point x="247" y="616" type="curve" smooth="yes"/>
      <point x="250" y="643"/>
      <point x="281" y="672"/>
      <point x="309" y="670" type="curve" smooth="yes"/>
      <point x="337" y="668"/>
      <point x="358" y="642"/>
      <point x="355" y="614" type="curve" smooth="yes"/>
      <point x="352" y="587"/>
      <point x="321" y="558"/>
      <point x="293" y="560" type="curve" smooth="yes"/>
      <point x="265" y="562"/>
      <point x="244" y="588"/>
    </contour>
    <contour>
      <point x="53" y="616" type="curve" smooth="yes"/>
      <point x="56" y="643"/>
      <point x="87" y="672"/>
      <point x="115" y="670" type="curve" smooth="yes"/>
      <point x="143" y="668"/>
      <point x="164" y="642"/>
      <point x="161" y="614" type="curve" smooth="yes"/>
      <point x="158" y="587"/>
      <point x="127" y="558"/>
      <point x="99" y="560" type="curve" smooth="yes"/>
      <point x="71" y="562"/>
      <point x="50" y="588"/>
    </contour>
  </outline>
</glyph>
<glyph name="ntilde" format="2">
  <advance width="509"/>
  <unicode hex="00F1"/>
  <outline>
    <contour>
      <point x="203" y="460" type="line"/>
      <point x="124" y="0" type="line"/>
      <point x="44" y="0" type="line"/>
      <point x="124" y="460" type="line"/>
    </contour>
    <contour>
      <point x="380" y="280" type="line" smooth="yes"/>
      <point x="388" y="342"/>
      <point x="373" y="392"/>
      <point x="307" y="394" type="curve" smooth="yes"/>
      <point x="237" y="396"/>
      <point x="188" y="341"/>
      <point x="172" y="281" type="curve"/>
      <point x="136" y="281" type="line"/>
      <point x="156" y="380"/>
      <point x="232" y="470"/>
      <point x="334" y="470" type="curve" smooth="yes"/>
      <point x="434" y="470"/>
      <point x="472" y="390"/>
      <point x="460" y="290" type="curve"/>
      <point x="410" y="0" type="line"/>
      <point x="332" y="0" type="line"/>
    </contour>
    <contour>
      <point x="164" y="568" type="line"/>
      <point x="184" y="610"/>
      <point x="229" y="650"/>
      <point x="277" y="648" type="curve" smooth="yes"/>
      <point x="329" y="647"/>
      <point x="344" y="600"/>
      <point x="390" y="602" type="curve" smooth="yes"/>
      <point x="414" y="603"/>
      <point x="433" y="626"/>
      <point x="453" y="650" type="curve"/>
      <point x="492" y="606" type="line"/>
      <point x="469" y="572"/>
      <point x="428" y="532"/>
      <point x="379" y="534" type="curve" smooth="yes"/>
      <point x="333" y="536"/>
      <point x="312" y="581"/>
      <point x="270" y="580" type="curve" smooth="yes"/>
      <point x="234" y="579"/>
      <point x="220" y="548"/>
      <point x="212" y="530" type="curve"/>
    </contour>
  </outline>
</glyph>
<glyph name="otilde" format="2">
  <advance width="529"/>
  <unicode hex="00F5"/>
  <outline>
    <contour>
      <point x="45" y="230" type="curve" smooth="yes"/>
      <point x="65" y="362"/>
      <point x="179" y="470"/>
      <point x="315" y="470" type="curve" smooth="yes"/>
      <point x="449" y="470"/>
      <point x="527" y="358"/>
      <point x="509" y="230" type="curve" smooth="yes"/>
      <point x="489" y="98"/>
      <point x="375" y="-10"/>
      <point x="239" y="-10" type="curve" smooth="yes"/>
      <point x="105" y="-10"/>
      <point x="27" y="102"/>
    </contour>
    <contour>
      <point x="125" y="230" type="curve" smooth="yes"/>
      <point x="111" y="146"/>
      <point x="156" y="66"/>
      <point x="246" y="66" type="curve" smooth="yes"/>
      <point x="338" y="66"/>
      <point x="414" y="140"/>
      <point x="429" y="230" type="curve" smooth="yes"/>
      <point x="443" y="314"/>
      <point x="398" y="394"/>
      <point x="308" y="394" type="curve" smooth="yes"/>
      <point x="216" y="394"/>
      <point x="140" y="320"/>
    </contour>
    <contour>
      <point x="174" y="568" type="line"/>
      <point x="174" y="612"/>
      <point x="250" y="648"/>
      <point x="286" y="648" type="curve" smooth="yes"/>
      <point x="338" y="647"/>
      <point x="352" y="600"/>
      <point x="399" y="602" type="curve" smooth="yes"/>
      <point x="423" y="603"/>
      <point x="442" y="626"/>
      <point x="462" y="650" type="curve"/>
      <point x="502" y="606" type="line"/>
      <point x="479" y="572"/>
      <point x="438" y="532"/>
      <point x="389" y="534" type="curve" smooth="yes"/>
      <point x="343" y="536"/>
      <point x="322" y="581"/>
      <point x="280" y="580" type="curve" smooth="yes"/>
      <point x="244" y="579"/>
      <point x="229" y="548"/>
      <point x="221" y="530" type="curve"/>
    </contour>
  </outline>
</glyph>
<glyph name="odieresis" format="2">
  <advance width="529"/>
  <unicode hex="00F6"/>
  <outline>
    <contour>
      <point x="45" y="230" type="curve" smooth="yes"/>
      <point x="65" y="362"/>
      <point x="179" y="470"/>
      <point x="315" y="470" type="curve" smooth="yes"/>
      <point x="449" y="470"/>
      <point x="527" y="358"/>
      <point x="509" y="230" type="curve" smooth="yes"/>
      <point x="489" y="98"/>
      <point x="375" y="-10"/>
      <point x="239" y="-10" type="curve" smooth="yes"/>
      <point x="105" y="-10"/>
      <point x="27" y="102"/>
    </contour>
    <contour>
      <point x="125" y="230" type="curve" smooth="yes"/>
      <point x="111" y="146"/>
      <point x="156" y="66"/>
      <point x="246" y="66" type="curve" smooth="yes"/>
      <point x="338" y="66"/>
      <point x="414" y="140"/>
      <point x="429" y="230" type="curve" smooth="yes"/>
      <point x="443" y="314"/>
      <point x="398" y="394"/>
      <point x="308" y="394" type="curve" smooth="yes"/>
      <point x="216" y="394"/>
      <point x="140" y="320"/>
    </contour>
    <contour>
      <point x="386" y="616" type="curve" smooth="yes"/>
      <point x="389" y="643"/>
      <point x="420" y="672"/>
      <point x="448" y="670" type="curve" smooth="yes"/>
      <point x="476" y="668"/>
      <point x="497" y="642"/>
      <point x="494" y="614" type="curve" smooth="yes"/>
      <point x="491" y="587"/>
      <point x="460" y="558"/>
      <point x="432" y="560" type="curve" smooth="yes"/>
      <point x="404" y="562"/>
      <point x="383" y="588"/>
    </contour>
    <contour>
      <point x="192" y="616" type="curve" smooth="yes"/>
      <point x="195" y="643"/>
      <point x="226" y="672"/>
      <point x="254" y="670" type="curve" smooth="yes"/>
      <point x="282" y="668"/>
      <point x="303" y="642"/>
      <point x="300" y="614" type="curve" smooth="yes"/>
      <point x="297" y="587"/>
      <point x="266" y="558"/>
      <point x="238" y="560" type="curve" smooth="yes"/>
      <point x="210" y="562"/>
      <point x="189" y="588"/>
    </contour>
  </outline>
</glyph>
<glyph name="divide" format="2">
  <advance width="604"/>
  <unicode hex="00F7"/>
  <outline>
    <contour>
      <point x="296" y="451" type="curve" smooth="yes"/>
      <point x="299" y="478"/>
      <point x="330" y="506"/>
      <point x="358" y="504" type="curve" smooth="yes"/>
      <point x="386" y="502"/>
      <point x="407" y="477"/>
      <point x="404" y="449" type="curve" smooth="yes"/>
      <point x="401" y="422"/>
      <point x="370" y="394"/>
      <point x="342" y="396" type="curve" smooth="yes"/>
      <point x="314" y="398"/>
      <point x="293" y="423"/>
    </contour>
    <contour>
      <point x="232" y="71" type="curve" smooth="yes"/>
      <point x="235" y="98"/>
      <point x="266" y="126"/>
      <point x="294" y="124" type="curve" smooth="yes"/>
      <point x="322" y="122"/>
      <point x="343" y="97"/>
      <point x="340" y="69" type="curve" smooth="yes"/>
      <point x="337" y="42"/>
      <point x="306" y="14"/>
      <point x="278" y="16" type="curve" smooth="yes"/>
      <point x="250" y="18"/>
      <point x="229" y="43"/>
    </contour>
    <contour>
      <point x="70" y="226" type="line"/>
      <point x="83" y="305" type="line"/>
      <point x="570" y="305" type="line"/>
      <point x="556" y="225" type="line"/>
    </contour>
  </outline>
</glyph>
<glyph name="ugrave" format="2">
  <advance width="509"/>
  <unicode hex="00F9"/>
  <outline>
    <contour>
      <point x="330" y="0" type="line"/>
      <point x="410" y="460" type="line"/>
      <point x="490" y="460" type="line"/>
      <point x="410" y="0" type="line"/>
    </contour>
    <contour>
      <point x="154" y="180" type="line" smooth="yes"/>
      <point x="146" y="118"/>
      <point x="160" y="68"/>
      <point x="226" y="66" type="curve" smooth="yes"/>
      <point x="296" y="64"/>
      <point x="346" y="119"/>
      <point x="362" y="179" type="curve"/>
      <point x="398" y="179" type="line"/>
      <point x="378" y="80"/>
      <point x="302" y="-10"/>
      <point x="200" y="-10" type="curve" smooth="yes"/>
      <point x="100" y="-10"/>
      <point x="62" y="70"/>
      <point x="74" y="170" type="curve"/>
      <point x="124" y="460" type="line"/>
      <point x="202" y="460" type="line"/>
    </contour>
    <contour>
      <point x="230" y="701" type="line"/>
      <point x="309" y="740" type="line"/>
      <point x="430" y="579" type="line"/>
      <point x="382" y="550" type="line"/>
    </contour>
  </outline>
</glyph>
<glyph name="uacute" format="2">
  <advance width="509"/>
  <unicode hex="00FA"/>
  <outline>
    <contour>
      <point x="330" y="0" type="line"/>
      <point x="410" y="460" type="line"/>
      <point x="490" y="460" type="line"/>
      <point x="410" y="0" type="line"/>
    </contour>
    <contour>
      <point x="154" y="180" type="line" smooth="yes"/>
      <point x="146" y="118"/>
      <point x="160" y="68"/>
      <point x="226" y="66" type="curve" smooth="yes"/>
      <point x="296" y="64"/>
      <point x="346" y="119"/>
      <point x="362" y="179" type="curve"/>
      <point x="398" y="179" type="line"/>
      <point x="378" y="80"/>
      <point x="302" y="-10"/>
      <point x="200" y="-10" type="curve" smooth="yes"/>
      <point x="100" y="-10"/>
      <point x="62" y="70"/>
      <point x="74" y="170" type="curve"/>
      <point x="124" y="460" type="line"/>
      <point x="202" y="460" type="line"/>
    </contour>
    <contour>
      <point x="464" y="698" type="line"/>
      <point x="265" y="550" type="line"/>
      <point x="224" y="582" type="line"/>
      <point x="396" y="740" type="line"/>
    </contour>
  </outline>
</glyph>
<glyph name="ucircumflex" format="2">
  <advance width="509"/>
  <unicode hex="00FB"/>
  <outline>
    <contour>
      <point x="330" y="0" type="line"/>
      <point x="410" y="460" type="line"/>
      <point x="490" y="460" type="line"/>
      <point x="410" y="0" type="line"/>
    </contour>
    <contour>
      <point x="154" y="180" type="line" smooth="yes"/>
      <point x="146" y="118"/>
      <point x="160" y="68"/>
      <point x="226" y="66" type="curve" smooth="yes"/>
      <point x="296" y="64"/>
      <point x="346" y="119"/>
      <point x="362" y="179" type="curve"/>
      <point x="398" y="179" type="line"/>
      <point x="378" y="80"/>
      <point x="302" y="-10"/>
      <point x="200" y="-10" type="curve" smooth="yes"/>
      <point x="100" y="-10"/>
      <point x="62" y="70"/>
      <point x="74" y="170" type="curve"/>
      <point x="124" y="460" type="line"/>
      <point x="202" y="460" type="line"/>
    </contour>
    <contour>
      <point x="340" y="644" type="line"/>
      <point x="216" y="550" type="line"/>
      <point x="172" y="592" type="line"/>
      <point x="350" y="730" type="line"/>
      <point x="484" y="589" type="line"/>
      <point x="430" y="550" type="line"/>
    </contour>
  </outline>
</glyph>
<glyph name="udieresis" format="2">
  <advance width="509"/>
  <unicode hex="00FC"/>
  <outline>
    <contour>
      <point x="330" y="0" type="line"/>
      <point x="410" y="460" type="line"/>
      <point x="490" y="460" type="line"/>
      <point x="410" y="0" type="line"/>
    </contour>
    <contour>
      <point x="154" y="180" type="line" smooth="yes"/>
      <point x="146" y="118"/>
      <point x="160" y="68"/>
      <point x="226" y="66" type="curve" smooth="yes"/>
      <point x="296" y="64"/>
      <point x="346" y="119"/>
      <point x="362" y="179" type="curve"/>
      <point x="398" y="179" type="line"/>
      <point x="378" y="80"/>
      <point x="302" y="-10"/>
      <point x="200" y="-10" type="curve" smooth="yes"/>
      <point x="100" y="-10"/>
      <point x="62" y="70"/>
      <point x="74" y="170" type="curve"/>
      <point x="124" y="460" type="line"/>
      <point x="202" y="460" type="line"/>
    </contour>
    <contour>
      <point x="374" y="606" type="curve" smooth="yes"/>
      <point x="377" y="632"/>
      <point x="408" y="662"/>
      <point x="436" y="660" type="curve" smooth="yes"/>
      <point x="464" y="658"/>
      <point x="485" y="632"/>
      <point x="482" y="604" type="curve" smooth="yes"/>
      <point x="479" y="577"/>
      <point x="447" y="548"/>
      <point x="419" y="550" type="curve" smooth="yes"/>
      <point x="390" y="552"/>
      <point x="371" y="578"/>
    </contour>
    <contour>
      <point x="180" y="606" type="curve" smooth="yes"/>
      <point x="183" y="632"/>
      <point x="214" y="662"/>
      <point x="242" y="660" type="curve" smooth="yes"/>
      <point x="270" y="658"/>
      <point x="291" y="632"/>
      <point x="288" y="604" type="curve" smooth="yes"/>
      <point x="285" y="577"/>
      <point x="253" y="548"/>
      <point x="225" y="550" type="curve" smooth="yes"/>
      <point x="196" y="552"/>
      <point x="177" y="578"/>
    </contour>
  </outline>
</glyph>
<glyph name="thorn" format="2">
  <advance width="553"/>
  <unicode hex="00FE"/>
  <outline>
    <contour>
      <point x="82" y="-220" type="line"/>
      <point x="2" y="-220" type="line"/>
      <point x="174" y="780" type="line"/>
      <point x="252" y="780" type="line"/>
    </contour>
    <contour>
      <point x="532" y="230" type="curve" smooth="yes"/>
      <point x="512" y="94"/>
      <point x="402" y="-11"/>
      <point x="272" y="-10" type="curve" smooth="yes"/>
      <point x="148" y="-9"/>
      <point x="106" y="106"/>
      <point x="122" y="230" type="curve" smooth="yes"/>
      <point x="140" y="361"/>
      <point x="226" y="470"/>
      <point x="348" y="470" type="curve" smooth="yes"/>
      <point x="478" y="470"/>
      <point x="550" y="360"/>
    </contour>
    <contour>
      <point x="452" y="230" type="curve" smooth="yes"/>
      <point x="466" y="320"/>
      <point x="420" y="394"/>
      <point x="332" y="394" type="curve" smooth="yes"/>
      <point x="252" y="394"/>
      <point x="172" y="322"/>
      <point x="158" y="230" type="curve" smooth="yes"/>
      <point x="146" y="143"/>
      <point x="192" y="68"/>
      <point x="270" y="66" type="curve" smooth="yes"/>
      <point x="360" y="64"/>
      <point x="437" y="136"/>
    </contour>
  </outline>
</glyph>
<glyph name="ydieresis" format="2">
  <advance width="426"/>
  <unicode hex="00FF"/>
  <outline>
    <contour>
      <point x="481" y="460" type="line"/>
      <point x="72" y="-220" type="line"/>
      <point x="-18" y="-220" type="line"/>
      <point x="156" y="68" type="line"/>
      <point x="52" y="460" type="line"/>
      <point x="144" y="460" type="line"/>
      <point x="224" y="100" type="line"/>
      <point x="192" y="104" type="line"/>
      <point x="390" y="460" type="line"/>
    </contour>
    <contour>
      <point x="330" y="586" type="curve" smooth="yes"/>
      <point x="333" y="613"/>
      <point x="364" y="642"/>
      <point x="392" y="640" type="curve" smooth="yes"/>
      <point x="420" y="638"/>
      <point x="440" y="612"/>
      <point x="437" y="584" type="curve" smooth="yes"/>
      <point x="434" y="557"/>
      <point x="403" y="528"/>
      <point x="375" y="530" type="curve" smooth="yes"/>
      <point x="347" y="532"/>
      <point x="327" y="558"/>
    </contour>
    <contour>
      <point x="136" y="586" type="curve" smooth="yes"/>
      <point x="139" y="613"/>
      <point x="170" y="642"/>
      <point x="198" y="640" type="curve" smooth="yes"/>
      <point x="226" y="638"/>
      <point x="246" y="612"/>
      <point x="243" y="584" type="curve" smooth="yes"/>
      <point x="240" y="557"/>
      <point x="209" y="528"/>
      <point x="181" y="530" type="curve" smooth="yes"/>
      <point x="153" y="532"/>
      <point x="133" y="558"/>
    </contour>
  </outline>
</glyph>
<glyph name="Amacron" format="2">
  <advance width="640"/>
  <unicode hex="0100"/>
  <outline>
    <contour>
      <point x="152" y="211" type="line"/>
      <point x="193" y="290" type="line"/>
      <point x="496" y="290" type="line"/>
      <point x="512" y="210" type="line"/>
    </contour>
    <contour>
      <point x="388" y="542" type="line"/>
      <point x="226" y="264" type="line"/>
      <point x="215" y="246" type="line"/>
      <point x="71" y="0" type="line"/>
      <point x="-25" y="0" type="line"/>
      <point x="418" y="736" type="line"/>
      <point x="608" y="0" type="line"/>
      <point x="516" y="0" type="line"/>
      <point x="458" y="240" type="line"/>
      <point x="454" y="260" type="line"/>
    </contour>
    <contour>
      <point x="260" y="796" type="line"/>
      <point x="272" y="870" type="line"/>
      <point x="613" y="870" type="line"/>
      <point x="600" y="795" type="line"/>
    </contour>
  </outline>
</glyph>
<glyph name="Abreve" format="2">
  <advance width="640"/>
  <unicode hex="0102"/>
  <outline>
    <contour>
      <point x="152" y="211" type="line"/>
      <point x="193" y="290" type="line"/>
      <point x="496" y="290" type="line"/>
      <point x="512" y="210" type="line"/>
    </contour>
    <contour>
      <point x="388" y="542" type="line"/>
      <point x="226" y="264" type="line"/>
      <point x="215" y="246" type="line"/>
      <point x="71" y="0" type="line"/>
      <point x="-25" y="0" type="line"/>
      <point x="418" y="736" type="line"/>
      <point x="608" y="0" type="line"/>
      <point x="516" y="0" type="line"/>
      <point x="458" y="240" type="line"/>
      <point x="454" y="260" type="line"/>
    </contour>
    <contour>
      <point x="298" y="935" type="curve"/>
      <point x="368" y="934" type="line"/>
      <point x="366" y="901"/>
      <point x="379" y="860"/>
      <point x="437" y="860" type="curve" smooth="yes"/>
      <point x="497" y="860"/>
      <point x="522" y="902"/>
      <point x="536" y="934" type="curve"/>
      <point x="606" y="934" type="line"/>
      <point x="587" y="862"/>
      <point x="529" y="796"/>
      <point x="432" y="796" type="curve" smooth="yes"/>
      <point x="336" y="796"/>
      <point x="292" y="861"/>
    </contour>
  </outline>
</glyph>
<glyph name="abreve" format="2">
  <advance width="553"/>
  <unicode hex="0103"/>
  <outline>
    <contour>
      <point x="462" y="460" type="line"/>
      <point x="538" y="460" type="line"/>
      <point x="458" y="0" type="line"/>
      <point x="386" y="0" type="line"/>
    </contour>
    <contour>
      <point x="45" y="230" type="curve" smooth="yes"/>
      <point x="65" y="366"/>
      <point x="176" y="471"/>
      <point x="306" y="470" type="curve" smooth="yes"/>
      <point x="430" y="469"/>
      <point x="472" y="354"/>
      <point x="456" y="230" type="curve" smooth="yes"/>
      <point x="438" y="99"/>
      <point x="352" y="-10"/>
      <point x="230" y="-10" type="curve" smooth="yes"/>
      <point x="100" y="-10"/>
      <point x="27" y="100"/>
    </contour>
    <contour>
      <point x="125" y="230" type="curve" smooth="yes"/>
      <point x="111" y="140"/>
      <point x="158" y="66"/>
      <point x="246" y="66" type="curve" smooth="yes"/>
      <point x="326" y="66"/>
      <point x="406" y="138"/>
      <point x="420" y="230" type="curve" smooth="yes"/>
      <point x="432" y="317"/>
      <point x="386" y="392"/>
      <point x="308" y="394" type="curve" smooth="yes"/>
      <point x="218" y="396"/>
      <point x="140" y="324"/>
    </contour>
    <contour>
      <point x="168" y="670" type="curve"/>
      <point x="237" y="669" type="line"/>
      <point x="236" y="636"/>
      <point x="250" y="595"/>
      <point x="308" y="595" type="curve" smooth="yes"/>
      <point x="368" y="595"/>
      <point x="394" y="637"/>
      <point x="406" y="669" type="curve"/>
      <point x="476" y="668" type="line"/>
      <point x="458" y="596"/>
      <point x="400" y="530"/>
      <point x="303" y="530" type="curve" smooth="yes"/>
      <point x="207" y="530"/>
      <point x="164" y="596"/>
    </contour>
  </outline>
</glyph>
<glyph name="Aogonek" format="2">
  <advance width="640"/>
  <unicode hex="0104"/>
  <outline>
    <contour>
      <point x="152" y="211" type="line"/>
      <point x="193" y="290" type="line"/>
      <point x="496" y="290" type="line"/>
      <point x="512" y="210" type="line"/>
    </contour>
    <contour>
      <point x="388" y="542" type="line"/>
      <point x="226" y="264" type="line"/>
      <point x="215" y="246" type="line"/>
      <point x="71" y="0" type="line"/>
      <point x="-25" y="0" type="line"/>
      <point x="418" y="736" type="line"/>
      <point x="608" y="0" type="line"/>
      <point x="516" y="0" type="line"/>
      <point x="458" y="240" type="line"/>
      <point x="454" y="260" type="line"/>
    </contour>
    <contour>
      <point x="590" y="-130" type="curve"/>
      <point x="615" y="-182" type="line"/>
      <point x="593" y="-202"/>
      <point x="563" y="-220"/>
      <point x="524" y="-220" type="curve" smooth="yes"/>
      <point x="452" y="-221"/>
      <point x="411" y="-180"/>
      <point x="420" y="-120" type="curve" smooth="yes"/>
      <point x="431" y="-54"/>
      <point x="505" y="-9"/>
      <point x="571" y="24" type="curve"/>
      <point x="610" y="0" type="line"/>
      <point x="564" y="-22"/>
      <point x="508" y="-56"/>
      <point x="501" y="-100" type="curve" smooth="yes"/>
      <point x="498" y="-129"/>
      <point x="510" y="-148"/>
      <point x="538" y="-150" type="curve" smooth="yes"/>
      <point x="560" y="-152"/>
      <point x="576" y="-140"/>
    </contour>
  </outline>
</glyph>
<glyph name="Ccircumflex" format="2">
  <advance width="664"/>
  <unicode hex="0108"/>
  <outline>
    <contour>
      <point x="160" y="350" type="curve" smooth="yes"/>
      <point x="138" y="208"/>
      <point x="217" y="78"/>
      <point x="361" y="76" type="curve" smooth="yes"/>
      <point x="457" y="75"/>
      <point x="539" y="120"/>
      <point x="600" y="178" type="curve"/>
      <point x="582" y="66" type="line"/>
      <point x="517" y="17"/>
      <point x="446" y="-10"/>
      <point x="352" y="-10" type="curve" smooth="yes"/>
      <point x="156" y="-9"/>
      <point x="42" y="162"/>
      <point x="70" y="350" type="curve" smooth="yes"/>
      <point x="100" y="548"/>
      <point x="271" y="709"/>
      <point x="470" y="710" type="curve" smooth="yes"/>
      <point x="559" y="710"/>
      <point x="622" y="685"/>
      <point x="678" y="632" type="curve"/>
      <point x="660" y="521" type="line"/>
      <point x="617" y="586"/>
      <point x="549" y="624"/>
      <point x="461" y="624" type="curve" smooth="yes"/>
      <point x="315" y="624"/>
      <point x="185" y="501"/>
    </contour>
    <contour>
      <point x="502" y="864" type="line"/>
      <point x="378" y="770" type="line"/>
      <point x="334" y="812" type="line"/>
      <point x="512" y="950" type="line"/>
      <point x="646" y="809" type="line"/>
      <point x="592" y="770" type="line"/>
    </contour>
  </outline>
</glyph>
<glyph name="ccircumflex" format="2">
  <advance width="463"/>
  <unicode hex="0109"/>
  <outline>
    <contour>
      <point x="120" y="230" type="curve" smooth="yes"/>
      <point x="106" y="145"/>
      <point x="152" y="68"/>
      <point x="242" y="66" type="curve" smooth="yes"/>
      <point x="314" y="65"/>
      <point x="378" y="104"/>
      <point x="414" y="148" type="curve"/>
      <point x="398" y="48" type="line"/>
      <point x="357" y="12"/>
      <point x="296" y="-10"/>
      <point x="234" y="-10" type="curve" smooth="yes"/>
      <point x="100" y="-10"/>
      <point x="22" y="102"/>
      <point x="40" y="230" type="curve" smooth="yes"/>
      <point x="60" y="363"/>
      <point x="174" y="470"/>
      <point x="310" y="470" type="curve" smooth="yes"/>
      <point x="369" y="470"/>
      <point x="424" y="448"/>
      <point x="458" y="410" type="curve"/>
      <point x="442" y="311" type="line"/>
      <point x="422" y="361"/>
      <point x="370" y="394"/>
      <point x="304" y="394" type="curve" smooth="yes"/>
      <point x="212" y="394"/>
      <point x="136" y="320"/>
    </contour>
    <contour>
      <point x="342" y="624" type="line"/>
      <point x="218" y="530" type="line"/>
      <point x="174" y="572" type="line"/>
      <point x="352" y="710" type="line"/>
      <point x="486" y="569" type="line"/>
      <point x="432" y="530" type="line"/>
    </contour>
  </outline>
</glyph>
<glyph name="Cdotaccent" format="2">
  <advance width="664"/>
  <unicode hex="010A"/>
  <outline>
    <contour>
      <point x="160" y="350" type="curve" smooth="yes"/>
      <point x="138" y="208"/>
      <point x="217" y="78"/>
      <point x="361" y="76" type="curve" smooth="yes"/>
      <point x="457" y="75"/>
      <point x="539" y="120"/>
      <point x="600" y="178" type="curve"/>
      <point x="582" y="66" type="line"/>
      <point x="517" y="17"/>
      <point x="446" y="-10"/>
      <point x="352" y="-10" type="curve" smooth="yes"/>
      <point x="156" y="-9"/>
      <point x="42" y="162"/>
      <point x="70" y="350" type="curve" smooth="yes"/>
      <point x="100" y="548"/>
      <point x="271" y="709"/>
      <point x="470" y="710" type="curve" smooth="yes"/>
      <point x="559" y="710"/>
      <point x="622" y="685"/>
      <point x="678" y="632" type="curve"/>
      <point x="660" y="521" type="line"/>
      <point x="617" y="586"/>
      <point x="549" y="624"/>
      <point x="461" y="624" type="curve" smooth="yes"/>
      <point x="315" y="624"/>
      <point x="185" y="501"/>
    </contour>
    <contour>
      <point x="438" y="826" type="curve" smooth="yes"/>
      <point x="441" y="853"/>
      <point x="472" y="882"/>
      <point x="500" y="880" type="curve" smooth="yes"/>
      <point x="528" y="878"/>
      <point x="549" y="852"/>
      <point x="546" y="824" type="curve" smooth="yes"/>
      <point x="543" y="797"/>
      <point x="512" y="768"/>
      <point x="484" y="770" type="curve" smooth="yes"/>
      <point x="456" y="772"/>
      <point x="435" y="798"/>
    </contour>
  </outline>
</glyph>
<glyph name="Dcaron" format="2">
  <advance width="659"/>
  <unicode hex="010E"/>
  <outline>
    <contour>
      <point x="168" y="700" type="line"/>
      <point x="254" y="700" type="line"/>
      <point x="133" y="0" type="line"/>
      <point x="51" y="0" type="line"/>
    </contour>
    <contour>
      <point x="258" y="0" type="curve"/>
      <point x="95" y="0" type="line"/>
      <point x="110" y="85" type="line"/>
      <point x="266" y="85" type="line"/>
      <point x="424" y="88"/>
      <point x="544" y="196"/>
      <point x="570" y="350" type="curve" smooth="yes"/>
      <point x="594" y="497"/>
      <point x="516" y="611"/>
      <point x="362" y="615" type="curve"/>
      <point x="200" y="615" type="line"/>
      <point x="215" y="700" type="line"/>
      <point x="370" y="700" type="line"/>
      <point x="570" y="696"/>
      <point x="682" y="542"/>
      <point x="654" y="350" type="curve" smooth="yes"/>
      <point x="623" y="150"/>
      <point x="462" y="3"/>
    </contour>
    <contour>
      <point x="436" y="856" type="line"/>
      <point x="560" y="950" type="line"/>
      <point x="604" y="908" type="line"/>
      <point x="426" y="770" type="line"/>
      <point x="292" y="911" type="line"/>
      <point x="346" y="950" type="line"/>
    </contour>
  </outline>
</glyph>
<glyph name="dcaron" format="2">
  <advance width="553"/>
  <unicode hex="010F"/>
  <outline>
    <contour>
      <point x="512" y="780" type="line"/>
      <point x="593" y="780" type="line"/>
      <point x="458" y="0" type="line"/>
      <point x="380" y="0" type="line"/>
    </contour>
    <contour>
      <point x="45" y="230" type="curve" smooth="yes"/>
      <point x="65" y="366"/>
      <point x="176" y="471"/>
      <point x="306" y="470" type="curve" smooth="yes"/>
      <point x="430" y="469"/>
      <point x="472" y="354"/>
      <point x="456" y="230" type="curve" smooth="yes"/>
      <point x="438" y="99"/>
      <point x="352" y="-10"/>
      <point x="230" y="-10" type="curve" smooth="yes"/>
      <point x="100" y="-10"/>
      <point x="27" y="100"/>
    </contour>
    <contour>
      <point x="125" y="230" type="curve" smooth="yes"/>
      <point x="111" y="140"/>
      <point x="158" y="66"/>
      <point x="246" y="66" type="curve" smooth="yes"/>
      <point x="326" y="66"/>
      <point x="406" y="138"/>
      <point x="420" y="230" type="curve" smooth="yes"/>
      <point x="432" y="317"/>
      <point x="386" y="392"/>
      <point x="308" y="394" type="curve" smooth="yes"/>
      <point x="218" y="396"/>
      <point x="140" y="324"/>
    </contour>
    <contour>
      <point x="704" y="779" type="line"/>
      <point x="780" y="748" type="line"/>
      <point x="630" y="501" type="line"/>
      <point x="575" y="522" type="line"/>
    </contour>
  </outline>
</glyph>
<glyph name="Emacron" format="2">
  <advance width="533"/>
  <unicode hex="0112"/>
  <outline>
    <contour>
      <point x="96" y="0" type="line"/>
      <point x="110" y="80" type="line"/>
      <point x="454" y="80" type="line"/>
      <point x="440" y="0" type="line"/>
    </contour>
    <contour>
      <point x="202" y="620" type="line"/>
      <point x="216" y="700" type="line"/>
      <point x="560" y="700" type="line"/>
      <point x="546" y="620" type="line"/>
    </contour>
    <contour>
      <point x="154" y="340" type="line"/>
      <point x="168" y="420" type="line"/>
      <point x="492" y="420" type="line"/>
      <point x="479" y="340" type="line"/>
    </contour>
    <contour>
      <point x="168" y="700" type="line"/>
      <point x="254" y="700" type="line"/>
      <point x="133" y="0" type="line"/>
      <point x="51" y="0" type="line"/>
    </contour>
    <contour>
      <point x="206" y="770" type="line"/>
      <point x="219" y="845" type="line"/>
      <point x="560" y="845" type="line"/>
      <point x="548" y="770" type="line"/>
    </contour>
  </outline>
</glyph>
<glyph name="Ebreve" format="2">
  <advance width="533"/>
  <unicode hex="0114"/>
  <outline>
    <contour>
      <point x="96" y="0" type="line"/>
      <point x="110" y="80" type="line"/>
      <point x="454" y="80" type="line"/>
      <point x="440" y="0" type="line"/>
    </contour>
    <contour>
      <point x="202" y="620" type="line"/>
      <point x="216" y="700" type="line"/>
      <point x="560" y="700" type="line"/>
      <point x="546" y="620" type="line"/>
    </contour>
    <contour>
      <point x="154" y="340" type="line"/>
      <point x="168" y="420" type="line"/>
      <point x="492" y="420" type="line"/>
      <point x="479" y="340" type="line"/>
    </contour>
    <contour>
      <point x="168" y="700" type="line"/>
      <point x="254" y="700" type="line"/>
      <point x="133" y="0" type="line"/>
      <point x="51" y="0" type="line"/>
    </contour>
    <contour>
      <point x="246" y="910" type="curve"/>
      <point x="314" y="910" type="line"/>
      <point x="312" y="877"/>
      <point x="326" y="836"/>
      <point x="384" y="836" type="curve" smooth="yes"/>
      <point x="444" y="836"/>
      <point x="469" y="878"/>
      <point x="483" y="910" type="curve"/>
      <point x="554" y="909" type="line"/>
      <point x="535" y="837"/>
      <point x="475" y="770"/>
      <point x="378" y="770" type="curve" smooth="yes"/>
      <point x="282" y="770"/>
      <point x="240" y="836"/>
    </contour>
  </outline>
</glyph>
<glyph name="ebreve" format="2">
  <advance width="499"/>
  <unicode hex="0115"/>
  <outline>
    <contour>
      <point x="92" y="210" type="line"/>
      <point x="103" y="278" type="line"/>
      <point x="400" y="278" type="line"/>
      <point x="401" y="344"/>
      <point x="376" y="399"/>
      <point x="299" y="400" type="curve" smooth="yes"/>
      <point x="216" y="401"/>
      <point x="149" y="339"/>
      <point x="132" y="260" type="curve"/>
      <point x="125" y="230" type="line"/>
      <point x="112" y="141"/>
      <point x="144" y="68"/>
      <point x="236" y="66" type="curve" smooth="yes"/>
      <point x="302" y="65"/>
      <point x="353" y="103"/>
      <point x="391" y="148" type="curve"/>
      <point x="450" y="106" type="line"/>
      <point x="394" y="40"/>
      <point x="327" y="-11"/>
      <point x="220" y="-10" type="curve" smooth="yes"/>
      <point x="92" y="-8"/>
      <point x="29" y="106"/>
      <point x="45" y="230" type="curve" smooth="yes"/>
      <point x="47" y="247"/>
      <point x="51" y="263"/>
      <point x="57" y="279" type="curve" smooth="yes"/>
      <point x="91" y="386"/>
      <point x="188" y="470"/>
      <point x="306" y="470" type="curve" smooth="yes"/>
      <point x="439" y="470"/>
      <point x="496" y="362"/>
      <point x="480" y="234" type="curve" smooth="yes"/>
      <point x="479" y="226"/>
      <point x="478" y="218"/>
      <point x="476" y="210" type="curve"/>
    </contour>
    <contour>
      <point x="188" y="670" type="curve"/>
      <point x="258" y="670" type="line"/>
      <point x="256" y="637"/>
      <point x="269" y="596"/>
      <point x="327" y="596" type="curve" smooth="yes"/>
      <point x="387" y="596"/>
      <point x="412" y="638"/>
      <point x="426" y="670" type="curve"/>
      <point x="496" y="669" type="line"/>
      <point x="477" y="597"/>
      <point x="418" y="530"/>
      <point x="321" y="530" type="curve" smooth="yes"/>
      <point x="225" y="530"/>
      <point x="182" y="596"/>
    </contour>
  </outline>
</glyph>
<glyph name="Edotaccent" format="2">
  <advance width="533"/>
  <unicode hex="0116"/>
  <outline>
    <contour>
      <point x="96" y="0" type="line"/>
      <point x="110" y="80" type="line"/>
      <point x="454" y="80" type="line"/>
      <point x="440" y="0" type="line"/>
    </contour>
    <contour>
      <point x="202" y="620" type="line"/>
      <point x="216" y="700" type="line"/>
      <point x="560" y="700" type="line"/>
      <point x="546" y="620" type="line"/>
    </contour>
    <contour>
      <point x="154" y="340" type="line"/>
      <point x="168" y="420" type="line"/>
      <point x="492" y="420" type="line"/>
      <point x="479" y="340" type="line"/>
    </contour>
    <contour>
      <point x="168" y="700" type="line"/>
      <point x="254" y="700" type="line"/>
      <point x="133" y="0" type="line"/>
      <point x="51" y="0" type="line"/>
    </contour>
    <contour>
      <point x="332" y="826" type="curve" smooth="yes"/>
      <point x="335" y="853"/>
      <point x="366" y="882"/>
      <point x="394" y="880" type="curve" smooth="yes"/>
      <point x="422" y="878"/>
      <point x="443" y="852"/>
      <point x="440" y="824" type="curve" smooth="yes"/>
      <point x="437" y="797"/>
      <point x="405" y="768"/>
      <point x="377" y="770" type="curve" smooth="yes"/>
      <point x="349" y="772"/>
      <point x="329" y="798"/>
    </contour>
  </outline>
</glyph>
<glyph name="Eogonek" format="2">
  <advance width="533"/>
  <unicode hex="0118"/>
  <outline>
    <contour>
      <point x="96" y="0" type="line"/>
      <point x="110" y="80" type="line"/>
      <point x="454" y="80" type="line"/>
      <point x="440" y="0" type="line"/>
    </contour>
    <contour>
      <point x="202" y="620" type="line"/>
      <point x="216" y="700" type="line"/>
      <point x="560" y="700" type="line"/>
      <point x="546" y="620" type="line"/>
    </contour>
    <contour>
      <point x="154" y="340" type="line"/>
      <point x="168" y="420" type="line"/>
      <point x="492" y="420" type="line"/>
      <point x="479" y="340" type="line"/>
    </contour>
    <contour>
      <point x="168" y="700" type="line"/>
      <point x="254" y="700" type="line"/>
      <point x="133" y="0" type="line"/>
      <point x="51" y="0" type="line"/>
    </contour>
    <contour>
      <point x="304" y="-130" type="curve"/>
      <point x="328" y="-182" type="line"/>
      <point x="306" y="-202"/>
      <point x="277" y="-220"/>
      <point x="238" y="-220" type="curve" smooth="yes"/>
      <point x="166" y="-221"/>
      <point x="124" y="-180"/>
      <point x="133" y="-120" type="curve" smooth="yes"/>
      <point x="144" y="-54"/>
      <point x="218" y="-9"/>
      <point x="284" y="24" type="curve"/>
      <point x="323" y="0" type="line"/>
      <point x="277" y="-22"/>
      <point x="222" y="-56"/>
      <point x="215" y="-100" type="curve" smooth="yes"/>
      <point x="212" y="-129"/>
      <point x="224" y="-148"/>
      <point x="252" y="-150" type="curve" smooth="yes"/>
      <point x="274" y="-152"/>
      <point x="290" y="-140"/>
    </contour>
  </outline>
</glyph>
<glyph name="Ecaron" format="2">
  <advance width="533"/>
  <unicode hex="011A"/>
  <outline>
    <contour>
      <point x="96" y="0" type="line"/>
      <point x="110" y="80" type="line"/>
      <point x="454" y="80" type="line"/>
      <point x="440" y="0" type="line"/>
    </contour>
    <contour>
      <point x="202" y="620" type="line"/>
      <point x="216" y="700" type="line"/>
      <point x="560" y="700" type="line"/>
      <point x="546" y="620" type="line"/>
    </contour>
    <contour>
      <point x="154" y="340" type="line"/>
      <point x="168" y="420" type="line"/>
      <point x="492" y="420" type="line"/>
      <point x="479" y="340" type="line"/>
    </contour>
    <contour>
      <point x="168" y="700" type="line"/>
      <point x="254" y="700" type="line"/>
      <point x="133" y="0" type="line"/>
      <point x="51" y="0" type="line"/>
    </contour>
    <contour>
      <point x="388" y="856" type="line"/>
      <point x="512" y="950" type="line"/>
      <point x="556" y="908" type="line"/>
      <point x="378" y="770" type="line"/>
      <point x="244" y="911" type="line"/>
      <point x="298" y="950" type="line"/>
    </contour>
  </outline>
</glyph>
<glyph name="ecaron" format="2">
  <advance width="499"/>
  <unicode hex="011B"/>
  <outline>
    <contour>
      <point x="92" y="210" type="line"/>
      <point x="103" y="278" type="line"/>
      <point x="400" y="278" type="line"/>
      <point x="401" y="344"/>
      <point x="376" y="399"/>
      <point x="299" y="400" type="curve" smooth="yes"/>
      <point x="216" y="401"/>
      <point x="149" y="339"/>
      <point x="132" y="260" type="curve"/>
      <point x="125" y="230" type="line"/>
      <point x="112" y="141"/>
      <point x="144" y="68"/>
      <point x="236" y="66" type="curve" smooth="yes"/>
      <point x="302" y="65"/>
      <point x="353" y="103"/>
      <point x="391" y="148" type="curve"/>
      <point x="450" y="106" type="line"/>
      <point x="394" y="40"/>
      <point x="327" y="-11"/>
      <point x="220" y="-10" type="curve" smooth="yes"/>
      <point x="92" y="-8"/>
      <point x="29" y="106"/>
      <point x="45" y="230" type="curve" smooth="yes"/>
      <point x="47" y="247"/>
      <point x="51" y="263"/>
      <point x="57" y="279" type="curve" smooth="yes"/>
      <point x="91" y="386"/>
      <point x="188" y="470"/>
      <point x="306" y="470" type="curve" smooth="yes"/>
      <point x="439" y="470"/>
      <point x="496" y="362"/>
      <point x="480" y="234" type="curve" smooth="yes"/>
      <point x="479" y="226"/>
      <point x="478" y="218"/>
      <point x="476" y="210" type="curve"/>
    </contour>
    <contour>
      <point x="330" y="616" type="line"/>
      <point x="454" y="710" type="line"/>
      <point x="498" y="668" type="line"/>
      <point x="320" y="530" type="line"/>
      <point x="186" y="671" type="line"/>
      <point x="240" y="710" type="line"/>
    </contour>
  </outline>
</glyph>
<glyph name="Gcircumflex" format="2">
  <advance width="752"/>
  <unicode hex="011C"/>
  <outline>
    <contour>
      <point x="412" y="275" type="line"/>
      <point x="426" y="355" type="line"/>
      <point x="742" y="354" type="line"/>
      <point x="708" y="166"/>
      <point x="570" y="-10"/>
      <point x="358" y="-10" type="curve" smooth="yes"/>
      <point x="156" y="-10"/>
      <point x="42" y="160"/>
      <point x="70" y="350" type="curve" smooth="yes"/>
      <point x="101" y="550"/>
      <point x="268" y="710"/>
      <point x="474" y="710" type="curve" smooth="yes"/>
      <point x="592" y="710"/>
      <point x="685" y="658"/>
      <point x="735" y="560" type="curve"/>
      <point x="668" y="506" type="line"/>
      <point x="632" y="582"/>
      <point x="562" y="624"/>
      <point x="466" y="624" type="curve" smooth="yes"/>
      <point x="314" y="624"/>
      <point x="186" y="502"/>
      <point x="160" y="350" type="curve" smooth="yes"/>
      <point x="138" y="206"/>
      <point x="216" y="76"/>
      <point x="366" y="76" type="curve" smooth="yes"/>
      <point x="502" y="76"/>
      <point x="594" y="169"/>
      <point x="640" y="275" type="curve"/>
    </contour>
    <contour>
      <point x="506" y="864" type="line"/>
      <point x="382" y="770" type="line"/>
      <point x="338" y="812" type="line"/>
      <point x="516" y="950" type="line"/>
      <point x="650" y="809" type="line"/>
      <point x="597" y="770" type="line"/>
    </contour>
  </outline>
</glyph>
<glyph name="gcircumflex" format="2">
  <advance width="553"/>
  <unicode hex="011D"/>
  <outline>
    <contour>
      <point x="10" y="-30" type="curve"/>
      <point x="88" y="-30" type="line"/>
      <point x="83" y="-98"/>
      <point x="124" y="-154"/>
      <point x="208" y="-154" type="curve" smooth="yes"/>
      <point x="290" y="-155"/>
      <point x="365" y="-88"/>
      <point x="381" y="10" type="curve"/>
      <point x="458" y="460" type="line"/>
      <point x="538" y="460" type="line"/>
      <point x="461" y="10" type="line" smooth="yes"/>
      <point x="439" y="-131"/>
      <point x="327" y="-230"/>
      <point x="200" y="-230" type="curve" smooth="yes"/>
      <point x="72" y="-230"/>
      <point x="-2" y="-146"/>
    </contour>
    <contour>
      <point x="45" y="230" type="curve" smooth="yes"/>
      <point x="65" y="366"/>
      <point x="176" y="471"/>
      <point x="306" y="470" type="curve" smooth="yes"/>
      <point x="430" y="469"/>
      <point x="472" y="354"/>
      <point x="456" y="230" type="curve" smooth="yes"/>
      <point x="438" y="99"/>
      <point x="352" y="-10"/>
      <point x="230" y="-10" type="curve" smooth="yes"/>
      <point x="100" y="-10"/>
      <point x="27" y="100"/>
    </contour>
    <contour>
      <point x="125" y="230" type="curve" smooth="yes"/>
      <point x="111" y="140"/>
      <point x="158" y="66"/>
      <point x="246" y="66" type="curve" smooth="yes"/>
      <point x="326" y="66"/>
      <point x="406" y="138"/>
      <point x="420" y="230" type="curve" smooth="yes"/>
      <point x="432" y="317"/>
      <point x="386" y="392"/>
      <point x="308" y="394" type="curve" smooth="yes"/>
      <point x="218" y="396"/>
      <point x="140" y="324"/>
    </contour>
    <contour>
      <point x="338" y="624" type="line"/>
      <point x="214" y="530" type="line"/>
      <point x="170" y="572" type="line"/>
      <point x="348" y="710" type="line"/>
      <point x="482" y="569" type="line"/>
      <point x="428" y="530" type="line"/>
    </contour>
  </outline>
</glyph>
<glyph name="Gbreve" format="2">
  <advance width="752"/>
  <unicode hex="011E"/>
  <outline>
    <contour>
      <point x="412" y="275" type="line"/>
      <point x="426" y="355" type="line"/>
      <point x="742" y="354" type="line"/>
      <point x="708" y="166"/>
      <point x="570" y="-10"/>
      <point x="358" y="-10" type="curve" smooth="yes"/>
      <point x="156" y="-10"/>
      <point x="42" y="160"/>
      <point x="70" y="350" type="curve" smooth="yes"/>
      <point x="101" y="550"/>
      <point x="268" y="710"/>
      <point x="474" y="710" type="curve" smooth="yes"/>
      <point x="592" y="710"/>
      <point x="685" y="658"/>
      <point x="735" y="560" type="curve"/>
      <point x="668" y="506" type="line"/>
      <point x="632" y="582"/>
      <point x="562" y="624"/>
      <point x="466" y="624" type="curve" smooth="yes"/>
      <point x="314" y="624"/>
      <point x="186" y="502"/>
      <point x="160" y="350" type="curve" smooth="yes"/>
      <point x="138" y="206"/>
      <point x="216" y="76"/>
      <point x="366" y="76" type="curve" smooth="yes"/>
      <point x="502" y="76"/>
      <point x="594" y="169"/>
      <point x="640" y="275" type="curve"/>
    </contour>
    <contour>
      <point x="358" y="910" type="curve"/>
      <point x="426" y="910" type="line"/>
      <point x="424" y="877"/>
      <point x="438" y="836"/>
      <point x="496" y="836" type="curve" smooth="yes"/>
      <point x="556" y="836"/>
      <point x="581" y="878"/>
      <point x="595" y="910" type="curve"/>
      <point x="666" y="909" type="line"/>
      <point x="647" y="837"/>
      <point x="587" y="770"/>
      <point x="490" y="770" type="curve" smooth="yes"/>
      <point x="394" y="770"/>
      <point x="352" y="836"/>
    </contour>
  </outline>
</glyph>
